<svg width="240.000000" height="240.000000" viewBox="0 0 240 240" fill="none" xmlns="http://www.w3.org/2000/svg" xmlns:xlink="http://www.w3.org/1999/xlink">
	<desc>
			Created with Pixso.
	</desc>
	<defs>
		<clipPath id="clip3_44">
			<rect id="暗中观察" width="240.000000" height="240.000000" />
		</clipPath>
	</defs>
	<rect id="暗中观察" width="240.000000" height="240.000000"  />
	<rect id="暗中观察" width="240.000000" height="240.000000"  />
	<g clip-path="url(#clip3_44)">
		<path id="椭圆形" d="M134 220.947C146.905 208.33 155 190.176 155 170C155 131.892 126.123 101 90.5 101C54.8774 101 26 131.892 26 170C26 190.215 34.126 208.4 47.0747 221.02C65.7568 220.974 111.179 220.962 134 220.947Z" fill-rule="evenodd" fill="#FFBF0B"/>
		<path id="椭圆形" d="M118 157C137.33 157 153 148.493 153 138C153 127.507 137.33 119 118 119C98.6699 119 83 127.507 83 138C83 148.493 98.6699 157 118 157Z" fill-rule="evenodd" fill="#EFB104"/>
		<path id="路径 25" d="M133.308 36.4708C133.308 36.4708 126.658 25.1112 111.072 22.3629C111.072 22.3629 102.817 35.3593 104.845 51.7845C113.626 41.576 133.308 36.4708 133.308 36.4708Z" fill-rule="evenodd" fill="#FFBF0B"/>
		<path id="路径 25" d="M111.558 23.844C111.558 23.844 104.164 35.39 106.012 50.0026C108.47 47.1713 111.646 44.6732 115.538 42.5085C116.333 38.3936 115.494 28.6526 111.558 23.844Z" fill-rule="evenodd" fill="#FF4E90"/>
		<ellipse id="椭圆形备份 151" rx="60.000000" ry="54.500000" transform="matrix(0.984808 0.173648 -0.173648 0.984808 144.607 90.5532)" fill="#FFBF0B"/>
		<path id="路径 25" d="M176.162 44.6843C176.162 44.6843 186.296 36.2842 201.882 39.0325C201.882 39.0325 205.194 54.0681 197.67 68.8092C192.91 56.2131 176.162 44.6843 176.162 44.6843Z" fill-rule="evenodd" fill="#FFBF0B"/>
		<path id="路径 25" d="M200.918 40.2579C200.918 40.2579 203.917 53.6365 197.183 66.7356C195.841 63.2343 193.711 59.8008 190.794 56.4354C191.454 52.2965 195.575 43.4303 200.918 40.2579Z" fill-rule="evenodd" fill="#FF4E90"/>
		<path id="路径 41备份 16" d="M137.347 119.03C137.347 119.03 139.758 123.517 144.531 124.359C149.304 125.2 153.098 121.845 153.098 121.845" stroke="#1A1B54" stroke-width="4.000000" stroke-linecap="round"/>
		<path id="路径 41备份 17" d="M121.59 116.252C121.59 116.252 124.001 120.739 128.774 121.58C133.547 122.422 137.341 119.067 137.341 119.067" stroke="#1A1B54" stroke-width="4.000000" stroke-linecap="round"/>
		<ellipse id="椭圆形备份 81" rx="18.000000" ry="17.500000" transform="matrix(1 0 0 1 122 77.5)" fill="#FFFCFD"/>
		<ellipse id="椭圆形备份 82" rx="18.000000" ry="17.500000" transform="matrix(1 0 0 1 169 87.5)" fill="#FFFCFD"/>
		<path id="路径 28备份" d="M189.584 111.039L192.132 102.263L96 82L96 90.954L189.584 111.039Z" fill-rule="evenodd" fill="#FFBF0B"/>
		<circle id="椭圆形备份 83" r="8.000000" transform="matrix(1 0 0 1 122 78)" fill="#1A1B54"/>
		<circle id="椭圆形备份 84" r="8.000000" transform="matrix(1 0 0 1 169 88)" fill="#1A1B54"/>
		<rect id="矩形" x="26.000000" y="21.000000" width="78.000000" height="200.000000" fill="#1A1B54"/>
		<path id="路径 22" d="M26 61L104 61" stroke="#5B5C95" stroke-width="3.000000" stroke-linecap="round"/>
		<path id="路径 22备份" d="M26 140.5L104 140.5" stroke="#5B5C95" stroke-width="3.000000" stroke-linecap="round"/>
		<path id="路径 23" d="M26 101L104 101" stroke="#5B5C95" stroke-width="3.000000" stroke-linecap="round"/>
		<path id="路径 23备份" d="M26 180.5L104 180.5" stroke="#5B5C95" stroke-width="3.000000" stroke-linecap="round"/>
		<path id="路径 24" d="M51.5464 21.2262L51.5464 61" stroke="#5B5C96" stroke-width="3.000000" stroke-linecap="round"/>
		<path id="路径 24备份 2" d="M51.5464 101L51.5464 140.774" stroke="#5B5C96" stroke-width="3.000000" stroke-linecap="round"/>
		<path id="路径 24备份 4" d="M51.5464 181L51.5464 220.774" stroke="#5B5C96" stroke-width="3.000000" stroke-linecap="round"/>
		<path id="路径 24备份" d="M81 61L81 100.774" stroke="#5B5C96" stroke-width="3.000000" stroke-linecap="round"/>
		<path id="路径 24备份 3" d="M81 140.774L81 180.548" stroke="#5B5C96" stroke-width="3.000000" stroke-linecap="round"/>
		<path id="路径 26" d="M122 160.661C122 160.661 111.77 168.878 96.521 166.409C81.2725 163.939 81.2725 181 96.521 183.518C106.957 185.67 116.521 188.587 126 185.57L122 160.661Z" fill-rule="evenodd" fill="#FFBF0B"/>
		<path id="路径 28" d="M197.584 82.0848L200.132 73.3091L104 53.046L104 62L197.584 82.0848Z" fill-rule="evenodd" fill="#FFBF0B"/>
		<g opacity="0.199591">
			<path id="形状结合" d="M104.072 28.6157L104.072 220.947C114.169 220.932 124.076 220.92 133.985 220.918C150.436 205.485 156.946 180.862 154.852 162.364C147.52 97.5929 128.323 47.0942 104.072 28.6157ZM26.0723 184.565L26.0723 121.843C26.0679 123.487 26.0635 125.156 26.0586 126.847L26.0586 126.942C26.0073 145.55 25.9492 166.738 26.0723 184.565Z" clip-rule="evenodd" fill-rule="evenodd" fill="#7B5D07" fill-opacity="1.000000"/>
		</g>
	</g>
</svg>
