<svg width="240.000000" height="240.000000" viewBox="0 0 240 240" fill="none" xmlns="http://www.w3.org/2000/svg" xmlns:xlink="http://www.w3.org/1999/xlink">
	<desc>
			Created with Pixso.
	</desc>
	<defs>
		<clipPath id="clip3_19">
			<rect id="白眼" width="240.000000" height="240.000000" fill="white"/>
		</clipPath>
	</defs>
	<rect id="白眼" width="240.000000" height="240.000000"/>
	<rect id="白眼" width="240.000000" height="240.000000"/>
	<g clip-path="url(#clip3_19)">
		<circle id="椭圆形备份 44" cx="120.000000" cy="120.000000" r="100.000000" fill="#FFBF0B"/>
		<circle id="椭圆形备份 45" r="32.500000" transform="matrix(1 0 0 1 75.5 114.5)" fill="#FFFCFD"/>
		<circle id="椭圆形备份 46" r="32.500000" transform="matrix(1 0 0 1 164.5 114.5)" fill="#FFFCFD"/>
		<path id="形状结合" d="M75 110C81.6274 110 87 103.508 87 95.5C87 89.7213 84.2024 84.7321 80.1545 82.402C78.6345 82.1371 77.0803 82 75.5 82C73.396 82 71.3386 82.243 69.3459 82.7072C65.5693 85.1494 63 89.9622 63 95.5C63 103.508 68.3726 110 75 110Z" clip-rule="evenodd" fill-rule="evenodd" fill="#1A1B54" fill-opacity="1.000000"/>
		<path id="形状结合" d="M165 110C171.627 110 177 103.508 177 95.5C177 89.9622 174.431 85.1494 170.654 82.7072C168.661 82.243 166.604 82 164.5 82C162.92 82 161.365 82.1371 159.845 82.402C155.798 84.7321 153 89.7213 153 95.5C153 103.508 158.373 110 165 110Z" clip-rule="evenodd" fill-rule="evenodd" fill="#1A1B54" fill-opacity="1.000000"/>
		<path id="矩形备份 56" d="M103.881 174.407C109.012 174.557 115.274 174.69 121.282 174.69C127.424 174.69 133.569 174.551 138.474 174.397C144.669 174.203 151.646 180.034 145.976 182.536C140.025 184.516 129.229 185.425 121.282 185.425C113.336 185.425 102.727 185.273 94.5872 182.536C87.9106 179.754 96.6509 174.197 103.881 174.407Z" fill-rule="evenodd" fill="#1A1B54"/>
	</g>
</svg>
