<svg width="240.000000" height="240.000000" viewBox="0 0 240 240" fill="none" xmlns="http://www.w3.org/2000/svg" xmlns:xlink="http://www.w3.org/1999/xlink">
	<desc>
			Created with Pixso.
	</desc>
	<defs>
		<clipPath id="clip3_43">
			<rect id="便便" width="240.000000" height="240.000000" fill="white"/>
		</clipPath>
	</defs>
	<rect id="便便" width="240.000000" height="240.000000"  />
	<rect id="便便" width="240.000000" height="240.000000"  />
	<g clip-path="url(#clip3_43)">
		<rect id="矩形" x="20.000000" y="164.000000" rx="28.000000" width="200.000000" height="56.000000" fill="#9B5806"/>
		<rect id="矩形备份 121" x="35.000000" y="117.000000" rx="24.000000" width="170.000000" height="48.000000" fill="#9B5806"/>
		<path id="路径备份 5" d="M120.5 152.408C132.15 152.408 152.158 151.866 154.046 152.8C154.277 152.915 154.477 153.005 154.833 153.141C156.695 153.868 158 155.76 158 157.849C158 157.927 157.998 158.003 157.995 158.08L157.996 158.107C157.999 158.289 158 158.471 158 158.653C157.995 176.944 138.325 192 120.595 192C102.866 192 83.0356 176.944 83.009 158.653C83.0085 158.472 83.0103 158.291 83.0129 158.11C83.0142 158.021 83.022 157.94 83.0356 157.866C83.0178 157.698 82.9839 157.527 83.009 157.354C83.3762 154.841 85.0222 153.39 88.1868 152.408C90.9321 151.49 109.333 152.408 120.5 152.408Z" fill-rule="evenodd" fill="#1A1B54"/>
		<path id="形状结合备份 28" d="M150.999 177.419C142.851 172.769 132.615 170 121.5 170C109.797 170 99.0693 173.069 90.7261 178.172C98.1304 186.513 109.755 192 120.595 192C131.758 192 143.69 186.181 150.999 177.419Z" clip-rule="evenodd" fill-rule="evenodd" fill="#FF4E90" fill-opacity="1.000000"/>
		<rect id="矩形备份 122" x="50.000000" y="74.000000" rx="22.000000" width="140.000000" height="44.000000" fill="#9B5806"/>
		<circle id="椭圆形备份 170" r="25.000000" transform="matrix(1 0 0 1 86 115)" fill="#FFFCFD"/>
		<circle id="椭圆形备份 171" r="25.000000" transform="matrix(1 0 0 1 156 115)" fill="#FFFCFD"/>
		<circle id="椭圆形备份 172" r="11.000000" transform="matrix(1 0 0 1 86 115)" fill="#1A1B54"/>
		<circle id="椭圆形备份 173" r="11.000000" transform="matrix(1 0 0 1 156 115)" fill="#1A1B54"/>
		<path id="形状结合" d="M104.479 21C104.515 21.0366 104.512 21.2268 104.507 21.5388C104.47 23.9956 104.321 33.9512 122 34.7738C123.104 34.8252 124.134 34.9015 125.096 35L143 35C154.046 35 163 43.9543 163 55C163 66.0457 154.046 75 143 75L98 75C86.9543 75 78 66.0457 78 55C78 54.9246 78.0005 54.8494 78.0012 54.7742C78.002 54.7106 78.0029 54.647 78.0042 54.5835C78.0391 52.8702 78.2896 51.2098 78.7295 49.6284C80.4155 42.3896 85.9976 29.1721 104.479 21Z" clip-rule="evenodd" fill-rule="evenodd" fill="#9B5806" fill-opacity="1.000000"/>
	</g>
</svg>
