<svg width="240.000000" height="240.000015" viewBox="0 0 240 240" fill="none" xmlns="http://www.w3.org/2000/svg" xmlns:xlink="http://www.w3.org/1999/xlink">
	<desc>
			Created with Pixso.
	</desc>
	<defs>
		<clipPath id="clip3_22">
			<rect id="闭嘴" width="240.000000" height="240.000000" fill="white"/>
		</clipPath>
	</defs>
	<rect id="闭嘴" width="240.000000" height="240.000000"  />
	<rect id="闭嘴" width="240.000000" height="240.000000"  />
	<g clip-path="url(#clip3_22)">
		<circle id="椭圆形备份 55" cx="120.000000" cy="120.000000" r="100.000000" fill="#FFBF0B"/>
		<circle id="椭圆形备份 56" r="28.000000" transform="matrix(1 0 0 1 80 97)" fill="#FFFCFD"/>
		<circle id="椭圆形备份 57" r="28.000000" transform="matrix(1 0 0 1 161 97)" fill="#FFFCFD"/>
		<circle id="椭圆形备份 58" r="12.000000" transform="matrix(1 0 0 1 80 112)" fill="#1A1B54"/>
		<circle id="椭圆形备份 59" r="12.000000" transform="matrix(1 0 0 1 161 112)" fill="#1A1B54"/>
		<path id="矩形备份 57" d="M145.808 46.4118C148.404 43.1697 153.701 38 161.089 38C168.813 38 174.252 43.4209 176.708 46.4823C177.597 47.5905 177.281 49.1605 176.121 49.9806C174.936 50.8182 173.292 50.5807 172.283 49.537C169.961 47.1334 165.593 43.3523 161.089 43.3523C156.645 43.3523 152.765 47.0349 150.704 49.4418C149.746 50.5598 148.141 50.9942 146.818 50.3482C145.294 49.6038 144.748 47.7359 145.808 46.4118Z" fill-rule="evenodd" fill="#1A1B54"/>
		<path id="矩形备份 58" d="M64.8079 46.4118C67.4038 43.1697 72.7012 38 80.0891 38C87.813 38 93.252 43.4209 95.7078 46.4823C96.5967 47.5905 96.2812 49.1605 95.1211 49.9806C93.936 50.8182 92.2915 50.5807 91.2832 49.537C88.9612 47.1334 84.5928 43.3523 80.0891 43.3523C75.6448 43.3523 71.7649 47.0349 69.7036 49.4418C68.7461 50.5598 67.1409 50.9942 65.8181 50.3482C64.2939 49.6038 63.7478 47.7359 64.8079 46.4118Z" fill-rule="evenodd" fill="#1A1B54"/>
		<path id="矩形" d="M101.587 143.801C95.8591 139.79 87.9644 141.182 83.9539 146.91C79.9431 152.638 81.3352 160.533 87.063 164.543L139.413 201.199C145.141 205.21 153.036 203.818 157.046 198.09C161.057 192.362 159.665 184.467 153.937 180.457L101.587 143.801Z" fill-rule="evenodd" fill="#FFFDFE"/>
		<path id="形状结合" d="M136.552 175.89C137.027 175.212 137.963 175.047 138.641 175.522C139.32 175.997 139.485 176.932 139.01 177.611C138.534 178.29 137.599 178.455 136.92 177.98C136.242 177.504 136.077 176.569 136.552 175.89ZM144.375 179.537C143.696 179.062 142.761 179.227 142.286 179.905C141.811 180.584 141.976 181.52 142.654 181.995C143.333 182.47 144.268 182.305 144.744 181.626C145.219 180.948 145.054 180.012 144.375 179.537ZM132.537 181.625C133.012 180.946 133.948 180.781 134.626 181.256C135.305 181.731 135.47 182.667 134.994 183.345C134.52 184.024 133.584 184.189 132.906 183.714C132.227 183.238 132.062 182.303 132.537 181.625ZM148.02 183.921C148.496 183.242 149.431 183.077 150.109 183.552C150.788 184.027 150.953 184.963 150.477 185.641C150.002 186.32 149.067 186.485 148.388 186.01C147.71 185.535 147.545 184.599 148.02 183.921ZM140.36 185.271C139.681 184.796 138.746 184.961 138.271 185.639C137.796 186.318 137.961 187.253 138.639 187.729C139.318 188.204 140.253 188.039 140.729 187.36C141.204 186.682 141.039 185.746 140.36 185.271ZM128.522 187.359C128.997 186.68 129.933 186.515 130.611 186.99C131.29 187.465 131.455 188.401 130.979 189.079C130.504 189.758 129.569 189.923 128.89 189.448C128.212 188.973 128.047 188.037 128.522 187.359ZM146.094 189.286C145.416 188.811 144.481 188.976 144.005 189.655C143.53 190.333 143.695 191.268 144.374 191.744C145.052 192.219 145.988 192.054 146.463 191.375C146.938 190.697 146.773 189.761 146.094 189.286ZM136.345 191.005C135.667 190.53 134.731 190.695 134.256 191.374C133.781 192.052 133.946 192.988 134.624 193.463C135.303 193.938 136.238 193.773 136.713 193.094C137.188 192.416 137.024 191.48 136.345 191.005ZM142.079 195.02C141.401 194.545 140.465 194.71 139.99 195.389C139.515 196.067 139.68 197.003 140.358 197.478C141.037 197.953 141.972 197.788 142.447 197.109C142.923 196.431 142.758 195.496 142.079 195.02Z" clip-rule="evenodd" fill-rule="evenodd" fill="#E2E2EC" fill-opacity="1.000000"/>
		<path id="形状结合备份 10" d="M96.8904 148.229C97.366 147.55 98.301 147.385 98.9797 147.861C99.6584 148.336 99.8232 149.271 99.3481 149.95C98.873 150.628 97.9377 150.793 97.2588 150.318C96.5806 149.843 96.4153 148.907 96.8904 148.229ZM104.714 151.875C104.035 151.4 103.1 151.565 102.625 152.244C102.15 152.923 102.314 153.858 102.993 154.333C103.672 154.808 104.607 154.643 105.082 153.964C105.557 153.286 105.393 152.351 104.714 151.875ZM92.8752 153.963C93.3506 153.284 94.2856 153.119 94.9644 153.594C95.6428 154.07 95.8079 155.005 95.3328 155.684C94.8574 156.362 93.9224 156.527 93.2437 156.052C92.5652 155.577 92.4001 154.642 92.8752 153.963ZM108.358 156.259C108.833 155.58 109.769 155.415 110.447 155.891C111.126 156.366 111.291 157.301 110.816 157.98C110.341 158.658 109.406 158.823 108.727 158.348C108.048 157.873 107.883 156.937 108.358 156.259ZM100.698 157.61C100.02 157.135 99.085 157.299 98.6094 157.978C98.1345 158.657 98.2996 159.592 98.9778 160.067C99.6567 160.542 100.592 160.377 101.067 159.699C101.542 159.02 101.377 158.085 100.698 157.61ZM88.8604 159.697C89.3357 159.018 90.2712 158.854 90.9495 159.329C91.6284 159.804 91.7932 160.739 91.3179 161.418C90.843 162.096 89.9077 162.261 89.229 161.786C88.5503 161.311 88.3853 160.375 88.8604 159.697ZM106.433 161.625C105.754 161.149 104.819 161.314 104.344 161.993C103.868 162.672 104.034 163.607 104.712 164.082C105.391 164.557 106.326 164.392 106.801 163.714C107.276 163.035 107.112 162.1 106.433 161.625ZM96.6836 163.344C96.0049 162.869 95.0696 163.033 94.5945 163.712C94.1194 164.391 94.2844 165.326 94.9629 165.801C95.6414 166.276 96.5769 166.112 97.052 165.433C97.5271 164.754 97.3623 163.819 96.6836 163.344ZM102.417 167.359C101.739 166.884 100.804 167.048 100.328 167.727C99.8533 168.406 100.018 169.341 100.697 169.816C101.375 170.291 102.311 170.126 102.786 169.448C103.261 168.769 103.096 167.834 102.417 167.359Z" clip-rule="evenodd" fill-rule="evenodd" fill="#E2E2EC" fill-opacity="1.000000"/>
		<path id="矩形" d="M120.5 187.96L142.636 172.5L145.459 174.503L123.323 189.963L120.5 187.96Z" fill-rule="evenodd" fill="#C5C5DD"/>
		<path id="矩形" d="M139.413 143.801C145.141 139.79 153.035 141.182 157.046 146.91C161.057 152.638 159.665 160.533 153.937 164.543L101.587 201.199C95.8591 205.21 87.9644 203.818 83.9536 198.09C79.9429 192.362 81.335 184.467 87.063 180.457L139.413 143.801Z" fill-rule="evenodd" fill="#FFFDFE"/>
		<path id="形状结合" d="M141.079 150.98C140.401 151.455 139.466 151.29 138.99 150.611C138.515 149.933 138.68 148.997 139.359 148.522C140.037 148.047 140.973 148.212 141.448 148.891C141.923 149.569 141.758 150.505 141.079 150.98ZM135.345 154.995C134.667 155.47 133.731 155.305 133.256 154.627C132.781 153.948 132.946 153.012 133.625 152.537C134.303 152.062 135.239 152.227 135.714 152.906C136.189 153.584 136.024 154.52 135.345 154.995ZM145.094 156.714C144.416 157.189 143.481 157.024 143.005 156.345C142.53 155.667 142.695 154.732 143.374 154.256C144.052 153.781 144.988 153.946 145.463 154.625C145.938 155.303 145.773 156.239 145.094 156.714ZM127.522 158.641C127.997 159.32 128.933 159.485 129.611 159.01C130.29 158.535 130.455 157.599 129.979 156.921C129.504 156.242 128.569 156.077 127.891 156.552C127.212 157.028 127.047 157.963 127.522 158.641ZM139.36 160.729C138.682 161.204 137.747 161.039 137.271 160.361C136.796 159.682 136.961 158.746 137.64 158.271C138.318 157.796 139.254 157.961 139.729 158.64C140.204 159.318 140.039 160.254 139.36 160.729ZM147.02 162.08C147.496 162.758 148.431 162.923 149.109 162.448C149.788 161.973 149.953 161.037 149.478 160.359C149.003 159.68 148.068 159.515 147.388 159.991C146.71 160.466 146.545 161.401 147.02 162.08ZM131.537 164.376C132.012 165.054 132.948 165.219 133.626 164.744C134.305 164.269 134.47 163.333 133.995 162.655C133.52 161.976 132.584 161.811 131.906 162.286C131.227 162.762 131.062 163.697 131.537 164.376ZM143.375 166.463C142.697 166.938 141.761 166.773 141.286 166.095C140.811 165.416 140.976 164.481 141.655 164.005C142.333 163.53 143.269 163.695 143.744 164.374C144.219 165.052 144.054 165.988 143.375 166.463ZM135.552 170.11C136.027 170.788 136.963 170.953 137.641 170.478C138.32 170.003 138.485 169.067 138.01 168.389C137.535 167.71 136.599 167.545 135.921 168.021C135.242 168.496 135.077 169.431 135.552 170.11Z" clip-rule="evenodd" fill-rule="evenodd" fill="#E2E2EC" fill-opacity="1.000000"/>
		<path id="形状结合备份 10" d="M104.079 176.98C103.401 177.455 102.465 177.29 101.99 176.612C101.515 175.933 101.68 174.998 102.359 174.522C103.037 174.047 103.973 174.212 104.448 174.891C104.923 175.569 104.758 176.505 104.079 176.98ZM98.3452 180.995C97.6667 181.47 96.7314 181.305 96.2561 180.627C95.781 179.948 95.9463 179.013 96.6245 178.538C97.3032 178.062 98.2385 178.227 98.7136 178.906C99.1887 179.584 99.0239 180.52 98.3452 180.995ZM108.094 182.714C107.416 183.189 106.481 183.024 106.005 182.346C105.53 181.667 105.695 180.732 106.374 180.257C107.052 179.781 107.988 179.946 108.463 180.625C108.938 181.303 108.773 182.239 108.094 182.714ZM90.522 184.641C90.9976 185.32 91.9326 185.485 92.6113 185.01C93.2898 184.535 93.4543 183.599 92.9795 182.921C92.5044 182.242 91.5691 182.077 90.8904 182.552C90.2117 183.027 90.0469 183.963 90.522 184.641ZM102.36 186.729C101.682 187.204 100.747 187.039 100.271 186.361C99.7961 185.682 99.9612 184.747 100.64 184.272C101.318 183.796 102.254 183.961 102.729 184.64C103.204 185.319 103.039 186.254 102.36 186.729ZM110.02 188.08C110.495 188.758 111.431 188.923 112.109 188.448C112.788 187.973 112.953 187.037 112.478 186.359C112.003 185.68 111.067 185.515 110.389 185.991C109.71 186.466 109.545 187.401 110.02 188.08ZM94.5371 190.376C95.0122 191.054 95.9478 191.219 96.6262 190.744C97.3049 190.269 97.4697 189.334 96.9946 188.655C96.5195 187.976 95.5842 187.811 94.9058 188.286C94.2271 188.762 94.0618 189.697 94.5371 190.376ZM106.375 192.463C105.697 192.938 104.761 192.773 104.286 192.095C103.811 191.416 103.976 190.481 104.655 190.006C105.333 189.531 106.269 189.695 106.744 190.374C107.219 191.053 107.054 191.988 106.375 192.463ZM98.5522 196.11C99.0276 196.788 99.9626 196.953 100.641 196.478C101.32 196.003 101.485 195.068 101.01 194.389C100.535 193.71 99.5996 193.545 98.9207 194.021C98.2422 194.496 98.0771 195.431 98.5522 196.11Z" clip-rule="evenodd" fill-rule="evenodd" fill="#E2E2EC" fill-opacity="1.000000"/>
	</g>
</svg>
