<svg width="240.000000" height="240.000000" viewBox="0 0 240 240" fill="none" xmlns="http://www.w3.org/2000/svg" xmlns:xlink="http://www.w3.org/1999/xlink">
	<desc>
			Created with Pixso.
	</desc>
	<defs>
		<clipPath id="clip3_42">
			<rect id="彩虹马" width="240.000000" height="240.000000" fill="white"/>
		</clipPath>
	</defs>
	<rect id="彩虹马" width="240.000000" height="240.000000"  />
	<rect id="彩虹马" width="240.000000" height="240.000000"  />
	<g clip-path="url(#clip3_42)">
		<path id="路径 18备份 6" d="M60.0217 165.5C60.0217 165.5 86.115 158.346 90.9692 139.889C90.9692 139.889 87.5793 126.146 76.4597 133.65C71.8865 154 60.0217 165.5 60.0217 165.5Z" fill-rule="evenodd" fill="#FF4E90"/>
		<path id="路径 18备份 7" d="M89.5754 190.261C89.5754 190.261 71.8435 183.807 75.0112 159.194C75.0112 159.194 82.897 147.439 90.7795 158.293C85.365 178.325 89.5754 190.261 89.5754 190.261Z" fill-rule="evenodd" fill="#FF4E90"/>
		<path id="路径 5" d="M82.2468 145.23C82.2468 145.23 76.6577 176.434 76.6577 190.279C76.6577 190.279 85.8442 208.01 97.4978 213.333C109.151 218.655 134.32 229.401 147.572 197.716C160.825 166.032 145.216 142 145.216 142L82.2468 145.23Z" fill-rule="evenodd" fill="#FFF3D2"/>
		<path id="形状结合" d="M7.01611 81.4832L46.7429 58.5468C38.0354 43.4651 43.0459 24.2711 57.9341 15.6754C72.8223 7.07959 91.9502 12.3373 100.657 27.4187L140.384 4.48315C118.845 -32.8241 71.5286 -45.8304 34.7007 -24.5675C-2.12842 -3.30457 -14.5227 44.1757 7.01611 81.4832Z" clip-rule="evenodd" fill-rule="evenodd" fill="#FF4E90" fill-opacity="1.000000"/>
		<path id="形状结合" d="M12.5378 92.9552L42.5459 75.63C33.8889 60.6356 39.0261 41.4622 54.0208 32.8049C69.0151 24.1479 88.1882 29.2855 96.8452 44.2799L126.853 26.9553C108.628 -4.6123 68.2625 -15.4281 36.6953 2.79724C5.12817 21.0228 -5.6875 61.3876 12.5378 92.9552Z" clip-rule="evenodd" fill-rule="evenodd" fill="#FFBF0B" fill-opacity="1.000000"/>
		<path id="形状结合" d="M17.8601 102.543L38.0674 90.8762C29.4814 76.0056 34.7998 56.8618 49.946 48.1172C65.092 39.3727 84.3298 44.3389 92.9153 59.2094L113.123 47.5426C98.2112 21.715 64.7976 13.0894 38.4915 28.2772C12.1855 43.465 2.948 76.7148 17.8601 102.543Z" clip-rule="evenodd" fill-rule="evenodd" fill="#00AF64" fill-opacity="1.000000"/>
		<path id="形状结合" d="M23.1333 112.505L33.1594 106.716C24.4819 91.6866 29.6313 72.4689 44.6609 63.7916C59.6902 55.1144 78.9084 60.2635 87.5852 75.2932L97.6113 69.5048C85.7373 48.9382 59.4387 41.8915 38.8723 53.7655C18.3057 65.6396 11.259 91.9382 23.1333 112.505Z" clip-rule="evenodd" fill-rule="evenodd" fill="#0A84FF" fill-opacity="1.000000"/>
		<path id="路径 3" d="M160.69 84.7551C160.69 84.7551 159.968 67.9489 175.571 57.0336C191.173 46.1183 197.658 45 197.658 45C197.658 45 192.092 65.123 187.281 72.2312C182.472 79.3392 175.108 87.9822 167.1 90C161.372 86.1746 160.69 84.7551 160.69 84.7551Z" fill-rule="evenodd" fill="#1A1B54"/>
		<path id="路径 18备份 3" d="M57.6577 104C57.6577 104 77.29 109.852 86.1147 90.889C86.1147 90.889 82.7249 77.1464 71.6052 84.6501C73.6577 94.281 57.6577 104 57.6577 104Z" fill-rule="evenodd" fill="#FF4E90"/>
		<path id="路径 18备份 4" d="M47.7004 124.086C47.7004 124.086 73.9644 136.052 85.8303 108.778C85.8303 108.778 82.4402 95.0355 71.3208 102.539C68.7463 115 47.7004 124.086 47.7004 124.086Z" fill-rule="evenodd" fill="#FF4E90"/>
		<path id="路径 18备份 5" d="M42 150.841C42 150.841 76.4868 160 85.5566 128.778C85.5566 128.778 77.8848 113.496 66.7654 121C62.4485 134.865 42 150.841 42 150.841Z" fill-rule="evenodd" fill="#FF4E90"/>
		<path id="路径 3" d="M92.6577 84.2469C92.6577 84.2469 92.6577 66.2571 80.0574 55.2164C67.4573 44.1758 62.8848 43 62.8848 43C62.8848 43 61.9089 67.6783 65.1274 75.0645C68.3459 82.4506 74.5 89.9736 82.4314 92C88.1038 88.1583 92.6577 84.2469 92.6577 84.2469Z" fill-rule="evenodd" fill="#1A1B54"/>
		<path id="路径 19" d="M79.6577 148C79.6577 148 83.8135 190.261 118.658 194.951C153.502 199.641 163.008 159.159 163.008 159.159L79.6577 148Z" fill-rule="evenodd" fill="#FFEDBD"/>
		<path id="路径 16" d="M77.5618 97.7535C79.7795 79.115 109.099 62.0385 131.237 64.1826C153.376 66.3268 163.722 73.9618 167.21 81.5907C173.037 93.2434 175.95 114.819 175.49 132.183C174.797 146.028 175.49 149.984 175.49 149.984C175.49 149.984 181.656 155.676 181.656 161.181C181.716 178.544 177.934 178.544 177.189 185.548C176.445 192.553 175.49 197.897 169.205 200.656C162.92 203.415 151.64 207.002 142.427 199.63C134.981 198.577 124.215 190.518 121.935 184.118C121.935 184.118 114.332 184.476 101.211 179.573C85.7104 172.096 81.916 159.83 79.7795 149.984C77.6431 140.139 75.344 116.392 77.5618 97.7535Z" fill-rule="evenodd" fill="#FFF3D2"/>
		<path id="路径 16" d="M149.711 127C159.215 127 165.638 143.388 175.527 150.438C179.587 154.828 181.657 156.082 181.657 161.54C181.717 178.758 177.956 178.758 177.216 185.703C176.476 192.65 175.527 197.949 169.278 200.684C163.03 203.419 151.815 206.977 142.657 199.666C135.254 198.622 124.55 190.631 122.283 184.286C122.283 184.286 118.718 178.783 118.718 174.037C117.85 169.166 130.729 155.012 137.645 140.735C141.405 132.973 145.876 127 149.711 127Z" fill-rule="evenodd" fill="#FF4E90"/>
		<path id="椭圆形" d="M146.638 173.933C149.341 174.422 151.988 172.162 152.552 168.885C153.115 165.608 151.38 162.555 148.677 162.067C145.975 161.578 143.327 163.838 142.764 167.115C142.201 170.392 143.935 173.445 146.638 173.933Z" fill-rule="evenodd" fill="#1A1B54"/>
		<path id="椭圆形备份 138" d="M92.7209 120.92C96.2212 121.558 99.7019 118.305 100.495 113.655C101.289 109.004 99.0947 104.718 95.5945 104.08C92.0942 103.442 88.6135 106.695 87.8201 111.345C87.0264 115.996 89.2207 120.282 92.7209 120.92Z" fill-rule="evenodd" fill="#1A1B54"/>
		<path id="椭圆形备份 137" d="M179.247 165.973C181.083 165.66 182.084 162.732 181.483 159.433C180.882 156.134 178.905 153.714 177.069 154.027C175.232 154.34 174.231 157.268 174.833 160.567C175.434 163.866 177.41 166.286 179.247 165.973Z" fill-rule="evenodd" fill="#1A1B54"/>
		<path id="椭圆形备份 139" d="M172.591 114.975C174.165 114.688 175.023 112.004 174.508 108.98C173.992 105.956 172.299 103.738 170.724 104.025C169.15 104.312 168.292 106.996 168.807 110.02C169.323 113.044 171.017 115.262 172.591 114.975Z" fill-rule="evenodd" fill="#1A1B54"/>
		<path id="形状结合" d="M150.683 83.771C150.685 84.1753 150.651 84.5801 150.58 84.984C149.573 90.7345 141.382 94.1022 133.225 92.6552C125.068 91.2083 119.272 85.3735 120.281 79.623C120.472 78.5287 120.897 77.5164 121.514 76.6042C126.116 66.564 147.819 19.6489 150.968 21.04C154.366 22.542 150.932 79.6945 150.683 83.771Z" clip-rule="evenodd" fill-rule="evenodd" fill="#FF4E90" fill-opacity="1.000000"/>
		<path id="形状结合" d="M150.683 83.771C150.685 84.1753 150.651 84.5801 150.58 84.984C149.573 90.7345 141.382 94.1022 133.225 92.6552C125.068 91.2083 119.272 85.3735 120.281 79.623C120.472 78.5287 120.897 77.5164 121.514 76.6042C126.116 66.564 147.819 19.6489 150.968 21.04C154.366 22.542 150.932 79.6945 150.683 83.771Z" clip-rule="evenodd" fill-rule="evenodd" fill="#FF4E90" fill-opacity="1.000000"/>
		<path id="路径 18备份 8" d="M151.087 92.9901C151.087 92.9901 166.053 78.4785 155.792 66.2925C155.792 66.2925 143.817 60.998 140.441 68.9865C158.632 70.585 151.087 92.9901 151.087 92.9901Z" fill-rule="evenodd" fill="#FF4E90"/>
		<path id="路径 18备份 9" d="M172.129 97.219C172.129 97.219 171.658 74.4894 161.221 68.1328C161.221 68.1328 149.245 62.8384 145.869 70.8268C163.76 74.4894 172.129 97.219 172.129 97.219Z" fill-rule="evenodd" fill="#FF4E90"/>
		<path id="形状结合" d="M151.502 68.5981C151.332 72.1356 151.165 75.3026 151.025 77.8315C147.99 81.2987 141.706 83.0275 135.441 81.9161C129.416 80.8473 124.679 77.3848 123.021 73.3306C124.347 70.4598 126.148 66.5901 128.203 62.2471C131.193 60.8688 135.053 60.3756 139.091 61.0919C144.527 62.0563 149.253 65.0236 151.502 68.5981Z" clip-rule="evenodd" fill-rule="evenodd" fill="#E96942" fill-opacity="1.000000"/>
		<path id="形状结合" d="M151.998 57.0919C151.815 61.9507 151.6 66.6606 151.397 70.7458C148.034 72.9069 143.032 73.8231 138.042 72.9381C132.829 72.0133 128.58 69.296 126.456 65.954C128.347 61.9244 130.559 57.2628 132.87 52.4993C135.481 51.7335 138.532 51.5532 141.692 52.1139C145.78 52.8389 149.465 54.6959 151.998 57.0919Z" clip-rule="evenodd" fill-rule="evenodd" fill="#FFBF0B" fill-opacity="1.000000"/>
		<path id="形状结合" d="M152.301 47.6349C152.172 52.7089 151.977 57.9557 151.766 62.8312C148.456 64.5575 143.943 65.2258 139.441 64.4271C135.348 63.701 131.849 61.8701 129.507 59.4995C131.962 54.3423 134.69 48.7092 137.363 43.3832C139.175 43.1913 141.111 43.2517 143.091 43.6029C146.622 44.2294 149.854 45.7008 152.301 47.6349Z" clip-rule="evenodd" fill-rule="evenodd" fill="#00AF64" fill-opacity="1.000000"/>
		<path id="形状结合" d="M152.458 35.61C152.477 40.8842 152.341 47.0562 152.137 53.1934C149.125 54.2488 145.479 54.5618 141.839 53.9161C138.733 53.3651 135.969 52.178 133.793 50.6014C136.86 44.3182 140.046 37.9803 142.85 32.7909C143.716 32.8347 144.598 32.9338 145.489 33.0919C148.027 33.5421 150.41 34.4288 152.458 35.61Z" clip-rule="evenodd" fill-rule="evenodd" fill="#0A84FF" fill-opacity="1.000000"/>
		<path id="形状结合" d="M150.271 21.2454C150.637 21.3241 150.999 21.4119 151.356 21.5081C152.36 23.601 152.567 32.0392 152.416 42.0695C150.32 42.3478 148.078 42.3134 145.839 41.9161C143.408 41.4849 141.187 40.6641 139.293 39.5719C144.035 30.3074 148.337 22.6627 150.271 21.2454Z" clip-rule="evenodd" fill-rule="evenodd" fill="#6642AC" fill-opacity="1.000000"/>
		<path id="路径 18" d="M110.423 92.9901C110.423 92.9901 121.462 88.7257 126.091 66.7124C126.901 64.8533 127.644 63.5183 128.193 61.9254C128.193 61.9254 118.825 58.5966 111.104 62.5458C119.308 80.6823 110.423 92.9901 110.423 92.9901Z" fill-rule="evenodd" fill="#FF4E90"/>
		<path id="路径 18备份" d="M97.4978 92C97.4978 92 118.763 88.2201 117.481 62.593C117.481 62.593 111.777 59.9963 100.658 67.5C110.083 81.0114 97.4978 92 97.4978 92Z" fill-rule="evenodd" fill="#FF4E90"/>
		<path id="路径 18备份 2" d="M76.6577 107.599C76.6577 107.599 100.658 99.3029 105.337 66.6676C105.337 66.6676 89.6833 69.228 91.2717 72.9911C90.5251 75.5491 91.7444 76.1215 85.8301 82C75.2229 92 76.6577 107.599 76.6577 107.599Z" fill-rule="evenodd" fill="#FF4E90"/>
		<path id="路径 20" d="M129.438 185.811C129.438 185.811 139.926 194.464 150.612 196.542C160.724 197.376 172.325 193.072 174.658 190.261C176.99 187.45 177.39 184.245 177.39 184.245C177.39 184.245 176.275 186.103 173.668 188.855C171.06 191.608 157.592 195.438 150.612 194.517C143.632 193.596 129.438 185.811 129.438 185.811Z" fill-rule="evenodd" fill="#1A1B54"/>
	</g>
</svg>
