<svg width="240.000000" height="240.000015" viewBox="0 0 240 240" fill="none" xmlns="http://www.w3.org/2000/svg" xmlns:xlink="http://www.w3.org/1999/xlink">
	<desc>
			Created with Pixso.
	</desc>
	<defs>
		<clipPath id="clip3_6">
			<rect id="大哭" width="240.000000" height="240.000000" fill="white"/>
		</clipPath>
	</defs>
	<rect id="大哭" width="240.000000" height="240.000000"  />
	<rect id="大哭" width="240.000000" height="240.000000"  />
	<g clip-path="url(#clip3_6)">
		<circle id="椭圆形备份 6" r="100.000000" transform="matrix(1 0 0 1 125 120)" fill="#FFBF0B"/>
		<ellipse id="椭圆形备份 3" rx="88.000000" ry="18.500000" transform="matrix(1 0 0 1 125 200.5)" fill="#0A84FF"/>
		<path id="椭圆形备份 4" d="M124.605 187.204C141.142 187.204 143.843 191.171 151.712 191.171C168.285 192.603 162.612 165.029 159.436 150.063C153.973 123.761 148.902 105 126.047 105C103.192 105 95.71 118.693 89.7217 150.063C86.5442 171.284 79.9866 193.226 98.9309 191.947C104.555 191.947 108.069 187.204 124.605 187.204Z" fill-rule="evenodd" fill="#1A1B54"/>
		<path id="形状结合备份 3" d="M124.605 187.26C141.142 187.26 143.843 191.181 151.712 191.181C157.367 191.664 160.432 188.809 161.889 184.249C155.18 174.042 140.959 167 124.5 167C107.779 167 93.3679 174.268 86.7957 184.739C88.2134 189.592 91.7297 192.428 98.9309 191.947C104.555 191.947 108.069 187.26 124.605 187.26Z" clip-rule="evenodd" fill-rule="evenodd" fill="#FF4E90" fill-opacity="1.000000"/>
		<path id="形状结合备份 4" d="M66.436 70.9097C66.436 70.9097 63.6887 76.9357 59.8892 81.9833C57.2947 85.4299 50.3804 91.7167 48.7734 99.7599C47.7891 104.686 49.1794 110.638 50.7603 117.404C52.2493 123.779 53.9075 130.876 53.9075 138.518C53.9075 144.54 52.8123 148.51 51.7441 152.383C50.0869 158.391 48.4946 164.163 51.1582 176.995C52.6311 183.602 50.2056 190.612 48.4768 195.607C47.491 198.456 46.7322 200.649 47.052 201.739C47.0029 201.99 46.9778 202.244 46.9778 202.5C46.9778 208.023 58.6184 212.5 72.9778 212.5C87.3372 212.5 98.9778 208.023 98.9778 202.5C98.9778 199.718 96.0229 197.201 91.2544 195.388C91.2893 195.38 91.3071 195.376 91.3071 195.376C91.3071 195.376 79.4392 172.297 81.5073 125.343C83.5757 78.389 94.7937 73.6745 94.7964 70.9097C95.5371 68.177 94.4937 65.2656 82.3218 65.5151C71.8811 65.9844 66.436 70.9097 66.436 70.9097Z" clip-rule="evenodd" fill-rule="evenodd" fill="#0A84FF" fill-opacity="1.000000"/>
		<path id="形状结合备份 5" d="M183.564 70.9097C183.564 70.9097 186.311 76.9357 190.111 81.9833C192.705 85.4299 199.619 91.7167 201.226 99.7599C202.211 104.686 200.82 110.638 199.24 117.404C197.75 123.779 196.092 130.876 196.092 138.518C196.092 144.54 197.188 148.51 198.256 152.383C199.913 158.391 201.505 164.163 198.842 176.995C197.369 183.602 199.794 190.612 201.523 195.607C202.509 198.456 203.268 200.649 202.948 201.739C202.997 201.99 203.022 202.244 203.022 202.5C203.022 208.023 191.381 212.5 177.022 212.5C162.663 212.5 151.022 208.023 151.022 202.5C151.022 199.718 153.977 197.201 158.745 195.388C158.71 195.38 158.693 195.376 158.693 195.376C158.693 195.376 170.561 172.297 168.492 125.343C166.424 78.389 155.206 73.6745 155.203 70.9097C154.463 68.177 155.506 65.2656 167.678 65.5151C178.119 65.9844 183.564 70.9097 183.564 70.9097Z" clip-rule="evenodd" fill-rule="evenodd" fill="#0A84FF" fill-opacity="1.000000"/>
		<path id="椭圆形备份 5" d="M205.083 188.311C206.076 189.364 212.9 188.378 216.05 185.228C219.2 182.079 220.012 177.784 217.864 175.636C215.716 173.488 211.422 174.3 208.272 177.45C205.122 180.6 204.091 187.257 205.083 188.311Z" fill-rule="evenodd" fill="#0A84FF"/>
		<path id="椭圆形备份 8" d="M31.917 188.311C30.9246 189.364 24.1001 188.378 20.9502 185.228C17.8003 182.079 16.9883 177.784 19.136 175.636C21.2839 173.488 25.5786 174.3 28.7285 177.45C31.8782 180.6 32.9097 187.257 31.917 188.311Z" fill-rule="evenodd" fill="#0A84FF"/>
		<path id="椭圆形" d="M87.6887 72.4223C101.262 70.0289 111.994 71.7027 112.345 68.5374C112.696 65.3722 99.4421 59.7059 85.8687 62.0992C72.2952 64.4926 61.854 74.4289 63.1909 77.2046C64.5281 79.9803 74.1155 74.8157 87.6887 72.4223Z" fill-rule="evenodd" fill="#1A1B54"/>
		<path id="椭圆形" d="M162.17 72.4223C148.597 70.0289 137.865 71.7027 137.514 68.5374C137.164 65.3722 150.417 59.7059 163.99 62.0993C177.564 64.4926 188.005 74.4289 186.668 77.2046C185.331 79.9803 175.744 74.8157 162.17 72.4223Z" fill-rule="evenodd" fill="#1A1B54"/>
		<path id="矩形备份 4" d="M135.084 60.7671C137.082 58.6699 140.889 55.058 145.76 52.2459C150.668 49.4118 156.047 47.7427 159.05 46.9519C160.394 46.5982 161.741 47.3854 162.166 48.7084C162.651 50.2166 161.763 51.8379 160.26 52.3356C157.537 53.2365 153.177 54.8914 148.754 57.4454C144.518 59.8911 141.242 62.5728 139.254 64.377C138.053 65.4658 136.144 65.4349 135.07 64.2214C134.185 63.2217 134.163 61.7335 135.084 60.7671Z" fill-rule="evenodd" fill="#1A1B54"/>
		<path id="矩形备份 49" d="M114.115 60.7671C112.117 58.6699 108.31 55.058 103.439 52.2459C98.5305 49.4118 93.1521 47.7427 90.1484 46.9519C88.8044 46.5982 87.4578 47.3854 87.0325 48.7083C86.5479 50.2166 87.4353 51.8379 88.9392 52.3356C91.6616 53.2365 96.0215 54.8914 100.445 57.4454C104.681 59.8911 107.957 62.5728 109.945 64.377C111.145 65.4658 113.055 65.4349 114.129 64.2214C115.013 63.2217 115.036 61.7335 114.115 60.7671Z" fill-rule="evenodd" fill="#1A1B54"/>
	</g>
</svg>
