<svg width="240.000000" height="240.000015" viewBox="0 0 240 240" fill="none" xmlns="http://www.w3.org/2000/svg" xmlns:xlink="http://www.w3.org/1999/xlink">
	<desc>
			Created with Pixso.
	</desc>
	<defs>
		<clipPath id="clip3_5">
			<rect id="大笑" width="240.000000" height="240.000000"/>
		</clipPath>
	</defs>
	<rect id="大笑" width="240.000000" height="240.000000"/>
	<rect id="大笑" width="240.000000" height="240.000000" />
	<g clip-path="url(#clip3_5)">
		<circle id="椭圆形" cx="120.000000" cy="120.000000" r="100.000000" fill="#FFBF0B"/>
		<path id="路径备份" d="M120.009 92C143.153 92 165.532 95.2617 187.145 101.785C187.685 101.948 188.001 102.197 188.708 102.473C192.408 103.939 195 107.757 195 111.974C195 112.13 194.996 112.285 194.989 112.439L194.992 112.494C194.997 112.861 195 113.228 195 113.596C195 154.688 161.649 188 120.509 188C79.3687 188 46.0178 154.688 46.0178 113.596C46.0178 113.23 46.0203 112.865 46.0256 112.5C46.0283 112.321 46.0439 112.157 46.071 112.007C46.0356 111.669 45.9678 111.323 46.0178 110.975C46.7476 105.904 50.0173 102.975 56.3044 100.992C76.5876 94.9972 97.8225 92 120.009 92Z" fill-rule="evenodd" fill="#1A1B54"/>
		<path id="形状结合备份" d="M58.0017 100.505L58.0027 111.366C58.1672 113.109 58.5525 114.26 59.1587 114.817L59.4512 115.087L59.6292 115.246L59.8025 115.389C60.3511 115.815 60.9385 116 62.6282 116L62.7134 115.995L63.0132 115.953L66.218 115.386L68.0952 115.07L69.9568 114.774L71.2036 114.586L73.0171 114.325L74.491 114.124L75.5276 113.988L77.1636 113.783L78.3081 113.646L79.4961 113.509L80.7273 113.373L82.0017 113.237L83.9944 113.038L86.0845 112.843L87.532 112.717L89.0227 112.593L90.5566 112.474L92.1338 112.359L93.7542 112.248L95.4177 112.143L97.1248 112.043L98.875 111.949L100.668 111.861L102.505 111.78L104.385 111.706L106.308 111.64L108.274 111.582L110.284 111.533C110.623 111.526 110.963 111.518 111.305 111.512L113.38 111.476L115.498 111.45L117.658 111.434C118.386 111.43 119.121 111.429 119.863 111.429L121.324 111.437L122.484 111.453L124.117 111.489L125.406 111.526L126.75 111.572L129.113 111.669L131.113 111.764L133.212 111.875L135.408 112.002L138.886 112.222L141.954 112.433L145.174 112.668L149.24 112.984L153.527 113.335L158.035 113.722L163.573 114.218L169.41 114.763L173.764 115.182L178.081 115.609C178.705 115.672 180 115.526 180.87 114.586C181.739 113.646 182 112.026 182 111.772L182 100.309C162.252 94.8443 141.872 92.075 120.859 92.0015C120.573 92.0006 120.286 92.0001 120 92L119.938 92C98.3953 92.0055 77.7498 94.8403 58.0017 100.505Z" clip-rule="evenodd" fill-rule="evenodd" fill="#FFFFFF" fill-opacity="1.000000"/>
		<path id="形状结合备份 2" d="M186.001 149.717C178.94 137.345 165.59 129 150.285 129C138.424 129 127.737 134.012 120.241 142.026C112.746 134.012 102.059 129 90.198 129C75.2588 129 62.1833 136.95 54.9995 148.836C67.5911 172.151 92.3091 188 120.742 188C148.815 188 173.267 172.55 186.001 149.717Z" clip-rule="evenodd" fill-rule="evenodd" fill="#FF4D8F" fill-opacity="1.000000"/>
		<path id="椭圆形" d="M80.9971 77.4823C94.78 77.4823 105.058 81.9942 105.953 78.938C106.848 75.8817 94.78 68 80.9971 68C67.2144 68 55.2065 75.9722 56.041 78.938C56.8757 81.9037 67.2144 77.4823 80.9971 77.4823Z" fill-rule="evenodd" fill="#1A1B54"/>
		<path id="椭圆形" d="M85.8867 68.9243C97.1248 74.2184 103.871 81.7061 105.708 79.6521C107.544 77.598 100.559 66.779 89.3206 61.4849C78.0825 56.1909 65.4045 57.8333 65.0112 60.4806C64.6177 63.128 74.6487 63.6303 85.8867 68.9243Z" fill-rule="evenodd" fill="#1A1B54"/>
		<path id="椭圆形" d="M160.003 77.4823C146.22 77.4823 135.942 81.9942 135.047 78.938C134.152 75.8817 146.22 68 160.003 68C173.786 68 185.793 75.9722 184.959 78.938C184.124 81.9037 173.786 77.4823 160.003 77.4823Z" fill-rule="evenodd" fill="#1A1B54"/>
		<path id="椭圆形" d="M155.113 68.9243C143.875 74.2184 137.129 81.7061 135.292 79.6521C133.456 77.598 140.441 66.779 151.679 61.4849C162.917 56.1909 175.595 57.8333 175.989 60.4806C176.382 63.128 166.351 63.6303 155.113 68.9243Z" fill-rule="evenodd" fill="#1A1B54"/>
		<path id="矩形备份 48" d="M138.512 25.3514C141.376 25.7853 146.519 26.832 151.616 29.2089C156.753 31.6044 161.205 35.0528 163.576 37.0598C164.636 37.9576 164.764 39.5124 163.924 40.6195C162.967 41.8816 161.13 42.0845 159.859 41.1381C157.56 39.4249 153.704 36.8026 149.074 34.6439C144.641 32.5767 140.566 31.4319 137.947 30.8378C136.367 30.4792 135.297 28.8969 135.675 27.3213C135.987 26.0235 137.193 25.1515 138.512 25.3514Z" fill-rule="evenodd" fill="#1A1B54"/>
		<path id="矩形备份 50" d="M101.05 25.3514C98.186 25.7853 93.0437 26.832 87.9465 29.2089C82.8093 31.6044 78.3572 35.0528 75.9866 37.0598C74.926 37.9576 74.7983 39.5124 75.6382 40.6195C76.5957 41.8816 78.4329 42.0845 79.7031 41.1381C82.0024 39.4249 85.8589 36.8026 90.4883 34.6439C94.9214 32.5767 98.9968 31.4319 101.615 30.8378C103.196 30.4792 104.266 28.8969 103.887 27.3213C103.576 26.0235 102.37 25.1515 101.05 25.3514Z" fill-rule="evenodd" fill="#1A1B54"/>
	</g>
</svg>
