<svg width="240.000000" height="240.000000" viewBox="0 0 240 240" fill="none" xmlns="http://www.w3.org/2000/svg" xmlns:xlink="http://www.w3.org/1999/xlink">
	<desc>
			Created with Pixso.
	</desc>
	<defs>
		<clipPath id="clip3_17">
			<rect id="发呆" width="240.000000" height="240.000000" fill="white"/>
		</clipPath>
	</defs>
	<rect id="发呆" width="240.000000" height="240.000000"  />
	<rect id="发呆" width="240.000000" height="240.000000"  />
	<g clip-path="url(#clip3_17)">
		<circle id="椭圆形备份 16" cx="120.000000" cy="120.000000" r="100.000000" fill="#FFBF0B"/>
		<circle id="椭圆形备份 30" r="28.000000" transform="matrix(1 0 0 1 80 97)" fill="#FFFCFD"/>
		<circle id="椭圆形备份 38" r="28.000000" transform="matrix(1 0 0 1 161 97)" fill="#FFFCFD"/>
		<circle id="椭圆形备份 31" r="12.000000" transform="matrix(1 0 0 1 80 97)" fill="#1A1B54"/>
		<circle id="椭圆形备份 39" r="12.000000" transform="matrix(1 0 0 1 161 97)" fill="#1A1B54"/>
		<path id="矩形备份 24" d="M134.09 76.5083C137.708 75.1915 144.37 72.7665 151.474 70.1809C158.578 67.5953 165.24 65.1703 168.858 63.8536C170.415 63.2869 172.137 64.0897 172.703 65.6465C173.27 67.2035 172.467 68.925 170.91 69.4917C167.273 70.8157 160.569 73.2557 153.518 75.8221C146.469 78.3876 139.775 80.8239 136.142 82.1465C134.585 82.7131 132.863 81.9104 132.297 80.3535C131.73 78.7965 132.533 77.075 134.09 76.5083Z" fill-rule="evenodd" fill="#1A1B54"/>
		<path id="矩形备份 24" d="M106.91 76.5083C103.292 75.1915 96.6301 72.7665 89.5261 70.1809C82.4221 67.5953 75.7598 65.1703 72.1418 63.8535C70.585 63.2869 68.8633 64.0896 68.2966 65.6465C67.73 67.2035 68.5327 68.925 70.0896 69.4917C73.7273 70.8157 80.4312 73.2557 87.4824 75.8221C94.5308 78.3876 101.225 80.8239 104.858 82.1465C106.415 82.7131 108.137 81.9104 108.703 80.3535C109.27 78.7965 108.467 77.075 106.91 76.5083Z" fill-rule="evenodd" fill="#1A1B54"/>
		<path id="形状结合" d="M129.961 128.727C130.595 124.472 123.369 99 122.479 99C121.582 99 114.529 126.338 115.025 128.885C115.009 129.087 115 129.293 115 129.5C115 133.642 118.358 137 122.5 137C126.643 137 130 133.642 130 129.5C130 129.239 129.987 128.981 129.961 128.727Z" clip-rule="evenodd" fill-rule="evenodd" fill="#0A84FF" fill-opacity="1.000000"/>
		<ellipse id="椭圆形" rx="16.500000" ry="10.500000" transform="matrix(1 0 0 1 122.5 158.5)" fill="#1A1B54"/>
	</g>
</svg>
