<svg width="240.000000" height="240.000000" viewBox="0 0 240 240" fill="none" xmlns="http://www.w3.org/2000/svg" xmlns:xlink="http://www.w3.org/1999/xlink">
	<desc>
			Created with Pixso.
	</desc>
	<defs>
		<clipPath id="clip3_25">
			<rect id="发烧" width="240.000000" height="240.000000" fill="white"/>
		</clipPath>
		<linearGradient id="paint_linear_1_530_0" x1="120.000000" y1="20.000000" x2="120.000000" y2="220.000000" gradientUnits="userSpaceOnUse">
			<stop stop-color="#FFBF0B" stop-opacity="0.000000"/>
			<stop offset="1.000000" stop-color="#FFBF0B"/>
		</linearGradient>
		<linearGradient id="paint_linear_1_531_0" x1="120.000000" y1="20.000000" x2="120.000000" y2="129.552368" gradientUnits="userSpaceOnUse">
			<stop stop-color="#56E1FC"/>
			<stop offset="0.462184" stop-color="#67AFFF" stop-opacity="0.800000"/>
			<stop offset="1.000000" stop-color="#C8E3FF" stop-opacity="0.000000"/>
		</linearGradient>
	</defs>
	<rect id="发烧" width="240.000000" height="240.000000"  />
	<rect id="发烧" width="240.000000" height="240.000000"  />
	<g clip-path="url(#clip3_25)">
		<circle id="椭圆形备份 69" cx="120.000000" cy="120.000000" r="100.000000" fill="url(#paint_linear_1_530_0)"/>
		<circle id="椭圆形备份 69" cx="120.000000" cy="120.000000" r="100.000000" fill="url(#paint_linear_1_531_0)"/>
		<path id="矩形备份 60" d="M134.927 73.2603C136.925 75.3576 140.732 78.9695 145.603 81.7816C150.511 84.6157 155.89 86.2848 158.893 87.0755C160.237 87.4293 161.584 86.6421 162.009 85.3191C162.494 83.8109 161.606 82.1896 160.103 81.6919C157.38 80.791 153.02 79.1361 148.597 76.5821C144.361 74.1364 141.085 71.4547 139.097 69.6505C137.896 68.5617 135.987 68.5925 134.913 69.8061C134.028 70.8057 134.006 72.294 134.927 73.2603Z" fill-rule="evenodd" fill="#1A1B54"/>
		<path id="矩形备份 61" d="M103.958 73.2603C101.96 75.3576 98.1531 78.9695 93.2822 81.7816C88.3735 84.6157 82.9951 86.2848 79.9915 87.0755C78.6475 87.4293 77.3008 86.6421 76.8755 85.3191C76.3909 83.8109 77.2783 82.1896 78.7822 81.6919C81.5046 80.791 85.8645 79.1361 90.2881 76.5821C94.5242 74.1364 97.7996 71.4547 99.7881 69.6505C100.988 68.5617 102.898 68.5925 103.972 69.8061C104.856 70.8057 104.879 72.294 103.958 73.2603Z" fill-rule="evenodd" fill="#1A1B54"/>
		<path id="矩形备份 74" d="M108.842 156.342C114.031 155.964 120.377 155.626 126.435 155.626C132.557 155.626 138.652 155.972 143.516 156.354C149.61 156.832 156.568 151.281 150.976 148.814C145.187 146.26 134.381 144 126.435 144C118.488 144 107.651 145.454 99.5872 148.814C92.9587 151.576 101.68 156.862 108.842 156.342Z" fill-rule="evenodd" fill="#1A1B54"/>
		<path id="椭圆形" d="M83.0933 101.71C96.8235 100.509 107.369 103.111 107.994 99.9887C108.619 96.866 95.9099 90.0662 82.1797 91.2674C68.4492 92.4687 57.1819 101.457 58.2717 104.339C59.3618 107.221 69.3628 102.911 83.0933 101.71Z" fill-rule="evenodd" fill="#1A1B54"/>
		<path id="矩形" d="M171.275 107.682C173.615 105.348 177.404 105.348 179.744 107.682C182.093 110.025 182.093 113.83 179.744 116.173L144.292 151.535C143.702 152.124 142.893 152.441 142.06 152.409L127 151.837L171.275 107.682Z" fill-rule="evenodd" fill="#FFFDFE"/>
		<path id="矩形" d="M172.122 119.031C173.157 118 173.156 116.324 172.12 115.295C171.096 114.278 169.443 114.275 168.416 115.289L131 152.182L138.529 152.459L172.122 119.031Z" fill-rule="evenodd" fill="#FF4E90"/>
		<path id="矩形" d="M140.924 137.955L142.338 136.541L144.459 138.662C144.85 139.052 144.85 139.686 144.459 140.076C144.069 140.467 143.436 140.467 143.045 140.076L140.924 137.955Z" fill-rule="evenodd" fill="#1A1B54"/>
		<path id="矩形备份 63" d="M150.758 128.137L152.172 126.723L154.294 128.844C154.684 129.235 154.684 129.868 154.294 130.259C153.903 130.649 153.27 130.649 152.879 130.259L150.758 128.137Z" fill-rule="evenodd" fill="#1A1B54"/>
		<path id="矩形备份 62" d="M145.827 133.04L147.241 131.626L149.362 133.747C149.753 134.138 149.753 134.771 149.362 135.161C148.972 135.552 148.339 135.552 147.948 135.161L145.827 133.04Z" fill-rule="evenodd" fill="#1A1B54"/>
		<path id="矩形备份 64" d="M155.685 123.227L157.1 121.813L159.221 123.935C159.611 124.325 159.611 124.958 159.221 125.349C158.83 125.739 158.197 125.739 157.807 125.349L155.685 123.227Z" fill-rule="evenodd" fill="#1A1B54"/>
		<path id="矩形备份 65" d="M160.713 118.212L162.127 116.798L164.248 118.919C164.639 119.31 164.639 119.943 164.248 120.334C163.858 120.724 163.225 120.724 162.834 120.334L160.713 118.212Z" fill-rule="evenodd" fill="#1A1B54"/>
		<path id="椭圆形" d="M158.334 101.71C144.604 100.509 134.058 103.111 133.433 99.9887C132.808 96.866 145.517 90.0662 159.247 91.2674C172.978 92.4687 184.245 101.457 183.155 104.339C182.065 107.221 172.064 102.911 158.334 101.71Z" fill-rule="evenodd" fill="#1A1B54"/>
		<path id="形状结合" d="M121.112 20.006C134.306 20.1498 146.887 22.8489 158.384 27.6317C159.276 29.0216 159.878 30.6236 160.119 32.3394L161.787 44.2302C162.896 52.1301 156.119 58.9609 148.175 58.2388C140.011 57.4968 129.658 56.8018 119.513 56.8018C109.795 56.8018 100.078 57.4396 92.3005 58.1456C84.2131 58.8796 77.3354 51.8216 78.644 43.8071L80.678 31.3496C80.906 29.9523 81.3735 28.6377 82.0391 27.4569C93.6509 22.6887 106.358 20.0424 119.679 20.0005C119.739 20.0003 119.799 20.0002 119.859 20.0001C120.279 20.0005 120.696 20.0025 121.112 20.006Z" clip-rule="evenodd" fill-rule="evenodd" fill="#FFFFFF" fill-opacity="1.000000"/>
	</g>
</svg>
