<svg width="240.000000" height="240.000000" viewBox="0 0 240 240" fill="none" xmlns="http://www.w3.org/2000/svg" xmlns:xlink="http://www.w3.org/1999/xlink">
	<desc>
			Created with Pixso.
	</desc>
	<defs>
		<filter id="filter_1_646_dd" x="20.000000" y="135.000000" width="44.000000" height="47.000000" filterUnits="userSpaceOnUse" color-interpolation-filters="sRGB">
			<feFlood flood-opacity="0" result="BackgroundImageFix"/>
			<feColorMatrix in="SourceAlpha" type="matrix" values="0 0 0 0 0 0 0 0 0 0 0 0 0 0 0 0 0 0 127 0" result="hardAlpha"/>
			<feOffset dx="0" dy="-3"/>
			<feGaussianBlur stdDeviation="0"/>
			<feComposite in2="hardAlpha" operator="out" k2="-1" k3="1"/>
			<feColorMatrix type="matrix" values="0 0 0 0 0.91765 0 0 0 0 0.71373 0 0 0 0 0.07451 0 0 0 1 0"/>
			<feBlend mode="normal" in2="BackgroundImageFix" result="effect_dropShadow_1"/>
			<feBlend mode="normal" in="SourceGraphic" in2="effect_dropShadow_1" result="shape"/>
		</filter>
		<filter id="filter_1_647_dd" x="153.000000" y="173.000000" width="44.000000" height="47.000000" filterUnits="userSpaceOnUse" color-interpolation-filters="sRGB">
			<feFlood flood-opacity="0" result="BackgroundImageFix"/>
			<feColorMatrix in="SourceAlpha" type="matrix" values="0 0 0 0 0 0 0 0 0 0 0 0 0 0 0 0 0 0 127 0" result="hardAlpha"/>
			<feOffset dx="0" dy="-3"/>
			<feGaussianBlur stdDeviation="0"/>
			<feComposite in2="hardAlpha" operator="out" k2="-1" k3="1"/>
			<feColorMatrix type="matrix" values="0 0 0 0 0.91765 0 0 0 0 0.71373 0 0 0 0 0.07451 0 0 0 1 0"/>
			<feBlend mode="normal" in2="BackgroundImageFix" result="effect_dropShadow_1"/>
			<feBlend mode="normal" in="SourceGraphic" in2="effect_dropShadow_1" result="shape"/>
		</filter>
		<clipPath id="clip3_29">
			<rect id="奋斗" width="240.000000" height="240.000000" fill="white"/>
		</clipPath>
	</defs>
	<rect id="奋斗" width="240.000000" height="240.000000"  />
	<rect id="奋斗" width="240.000000" height="240.000000"  />
	<g clip-path="url(#clip3_29)">
		<path id="路径 8" d="M147.561 64.9156C147.561 64.9156 187.184 59 211.403 46L218.344 71C218.344 71 187.807 83.2202 145.619 71C103.432 58.7798 147.561 64.9156 147.561 64.9156Z" fill-rule="evenodd" fill="#E6103D"/>
		<path id="路径 9" d="M164.172 68.2595C164.172 68.2595 193.354 63.4932 207.186 35L182.51 22.3014C182.51 22.3014 176.517 42.6466 164.172 63.6842C151.828 84.7218 164.172 68.2595 164.172 68.2595Z" fill-rule="evenodd" fill="#E6103D"/>
		<circle id="椭圆形备份 86" cx="120.000000" cy="120.000000" r="100.000000" fill="#FFBF0B"/>
		<path id="形状结合备份 18" d="M135 105.856C136.845 119.488 148.622 130 162.874 130C178.408 130 191 117.513 191 102.11C191 96.5413 189.354 91.3536 186.519 86.9995L135 105.856Z" clip-rule="evenodd" fill-rule="evenodd" fill="#FFFCFD" fill-opacity="1.000000"/>
		<path id="形状结合备份 19" d="M55.4817 86.9995L107 105.856C105.155 119.488 93.3782 130 79.1257 130C63.5923 130 51 117.513 51 102.11C51 96.5411 52.646 91.3536 55.4817 86.9995Z" clip-rule="evenodd" fill-rule="evenodd" fill="#FFFCFD" fill-opacity="1.000000"/>
		<path id="形状结合备份 20" d="M149.063 100.708C149.021 101.147 149 101.592 149 102.042C149 109.751 155.268 116 163 116C170.732 116 177 109.751 177 102.042C177 98.0994 175.361 94.5388 172.725 92.0005L149.063 100.708Z" clip-rule="evenodd" fill-rule="evenodd" fill="#1A1B54" fill-opacity="1.000000"/>
		<path id="形状结合备份 21" d="M69.2754 92.0015L92.937 100.709C92.9788 101.148 93 101.593 93 102.042C93 109.751 86.7319 116 79 116C71.2681 116 65 109.751 65 102.042C65 98.1001 66.6394 94.5397 69.2754 92.0015Z" clip-rule="evenodd" fill-rule="evenodd" fill="#1A1B54" fill-opacity="1.000000"/>
		<path id="矩形备份 70" d="M131.927 90.7671C133.925 88.6699 137.732 85.058 142.603 82.2458C147.511 79.4117 152.89 77.7427 155.893 76.9519C157.237 76.5981 158.584 77.3854 159.009 78.7084C159.494 80.2166 158.606 81.8379 157.103 82.3356C154.38 83.2366 150.02 84.8914 145.597 87.4454C141.361 89.8911 138.085 92.5728 136.097 94.377C134.896 95.4658 132.987 95.4349 131.913 94.2213C131.028 93.2217 131.006 91.7335 131.927 90.7671Z" fill-rule="evenodd" fill="#1A1B54"/>
		<path id="矩形备份 71" d="M110.958 90.7671C108.96 88.6699 105.153 85.058 100.282 82.2458C95.3735 79.4117 89.9951 77.7427 86.9915 76.9519C85.6475 76.5981 84.3008 77.3854 83.8755 78.7084C83.3909 80.2166 84.2783 81.8379 85.7822 82.3356C88.5046 83.2365 92.8645 84.8914 97.2881 87.4454C101.524 89.891 104.8 92.5728 106.788 94.377C107.988 95.4658 109.898 95.4349 110.972 94.2213C111.856 93.2217 111.879 91.7335 110.958 90.7671Z" fill-rule="evenodd" fill="#1A1B54"/>
		<g filter="url(#filter_1_646_dd)">
			<circle id="椭圆形备份 87" r="22.000000" transform="matrix(1 0 0 1 42 160)" fill="#FFD041"/>
		</g>
		<g filter="url(#filter_1_647_dd)">
			<circle id="椭圆形备份 88" r="22.000000" transform="matrix(1 0 0 1 175 198)" fill="#FFD041"/>
		</g>
		<path id="路径 10" d="M213.599 53.7872L211.403 46L206.099 48.7124C206.099 48.7124 198.083 52.5602 189.627 54.9023C197.288 58.6648 213.599 53.7872 213.599 53.7872Z" fill-rule="evenodd" fill="#CE0730"/>
		<path id="路径" d="M138 143L138 168.113L137.914 168.113C137.022 181.522 133.43 192 120 192C106.57 192 102.978 181.522 102.086 168.113L102 168.113L102 143C102 140.791 103.791 139 106 139L134 139C136.209 139 138 140.791 138 143Z" fill-rule="evenodd" fill="#1A1B54"/>
		<path id="形状结合" d="M138 167.016L138 167.662L137.914 167.662C137.023 181.324 133.43 192 120 192C106.571 192 102.978 181.324 102.087 167.662L102 167.662L102 167.015C105.242 158.611 112.084 153.646 120 153.646C127.917 153.646 134.759 158.611 138 167.016Z" clip-rule="evenodd" fill-rule="evenodd" fill="#FF4E90" fill-opacity="1.000000"/>
		<path id="形状结合" d="M178.136 38.6261C192.017 48.5604 203.249 61.9578 210.572 77.5554C198.188 79.0421 161.521 83 122.129 83C82.3633 83 42.5134 78.9667 29.448 77.5138C36.8025 61.8661 48.0933 48.4352 62.0447 38.4968C79.3953 39.8142 100.787 41 121.575 41C141.68 41 161.768 39.8907 178.136 38.6261Z" clip-rule="evenodd" fill-rule="evenodd" fill="#FF355F" fill-opacity="1.000000"/>
		<path id="奋斗" d="M112.837 59.5225L92.4199 59.5225C95.6279 57.7559 98.2207 55.3828 100.163 52.3594L104.698 52.3594C106.5 54.873 109.198 57.29 112.837 59.5225ZM107.361 52.3594L117.082 52.3594L117.082 49.8721L101.534 49.8721C102.105 48.5801 102.65 47.209 103.081 45.6973L100.488 45.4775C100.058 47.0244 99.4424 48.501 98.7217 49.8721L86.8037 49.8721L86.8037 52.3594L97.1748 52.3594C94.5117 55.8486 90.5918 58.2568 85.4414 59.5928L86.7685 61.79C88.0693 61.4297 89.3262 60.9639 90.5127 60.4541L90.5127 78.0586L93.1055 78.0586L93.1055 76.1865L111.22 76.1865L111.22 78.0586L113.804 78.0586L113.804 60.0938C114.779 60.6738 115.825 61.21 116.977 61.79L118.629 59.6982C113.408 57.5361 109.664 55.0928 107.361 52.3594ZM93.1055 73.8135L93.1055 68.9531L101.068 68.9531L101.068 73.8135L93.1055 73.8135ZM103.582 73.8135L103.582 68.9531L111.22 68.9531L111.22 73.8135L103.582 73.8135ZM93.1055 66.6504L93.1055 61.8955L101.068 61.8955L101.068 66.6504L93.1055 66.6504ZM103.582 61.8955L111.22 61.8955L111.22 66.6504L103.582 66.6504L103.582 61.8955ZM153.548 64.8135L147.07 65.6396L147.07 45.5918L144.407 45.5918L144.407 66L122.232 68.918L122.628 71.3965L144.407 68.5576L144.407 78.5684L147.07 78.5684L147.07 68.2324L153.952 67.3359L153.548 64.8135ZM130.767 47.209L128.965 48.9756C132.999 51.8496 136.163 54.5127 138.466 57.0352L140.373 55.1279C137.78 52.5 134.581 49.8721 130.767 47.209ZM127.058 54.7324L125.221 56.499C129.176 59.3027 132.349 61.9307 134.651 64.3828L136.594 62.3965C134.001 59.8477 130.837 57.29 127.058 54.7324Z" fill-rule="evenodd" fill="#FFFFFF"/>
	</g>
</svg>
