<svg width="240.000000" height="240.000000" viewBox="0 0 240 240" fill="none" xmlns="http://www.w3.org/2000/svg" xmlns:xlink="http://www.w3.org/1999/xlink">
	<desc>
			Created with Pixso.
	</desc>
	<defs>
		<clipPath id="clip3_38">
			<rect id="分裂" width="240.000000" height="240.000000" fill="white"/>
		</clipPath>
	</defs>
	<rect id="分裂" width="240.000000" height="240.000000"  />
	<rect id="分裂" width="240.000000" height="240.000000"  />
	<g clip-path="url(#clip3_38)">
		<path id="形状结合" d="M147.701 28.5438L132 69.6852L145.184 102.612L132 138.45L153.077 159.251L123.87 190.09L134.144 213.396C179.903 206.566 215 167.102 215 119.442C215 76.6108 186.656 40.4001 147.701 28.5438ZM102.771 26L97.2227 73.2653L118.275 107.315L109.616 135.304L132.668 160.537L118.275 188.719L133.981 213.42C129.418 214.093 124.75 214.442 120 214.442C67.533 214.442 25 171.909 25 119.442C25 72.8577 58.5293 34.1049 102.771 26Z" clip-rule="evenodd" fill-rule="evenodd" fill="#05B063" fill-opacity="1.000000"/>
		<circle id="椭圆形备份 104" r="28.000000" transform="matrix(1 0 0 1 72 92.4417)" fill="#FFFCFD"/>
		<circle id="椭圆形备份 105" r="28.000000" transform="matrix(1 0 0 1 173 94.4417)" fill="#FFFCFD"/>
		<circle id="椭圆形备份 106" r="12.000000" transform="matrix(1 0 0 1 72 102.442)" fill="#1A1B54"/>
		<circle id="椭圆形备份 107" r="12.000000" transform="matrix(1 0 0 1 173 104.442)" fill="#1A1B54"/>
		<path id="形状结合" d="M128.121 169.44C126.561 169.547 124.993 169.604 123.422 169.604C107.612 169.604 90.9763 164.203 80.1411 159.851C72.5972 156.822 61.1746 160.511 68.1655 164.66C76.4055 169.55 94.9573 180.205 122.504 180.438L128.121 169.44ZM133.428 179.998L146.66 166.026C152.775 164.26 158.331 162.071 162.902 160.017C170.887 156.429 182.861 159.826 175.563 164.66C167.806 169.798 155.208 178.01 133.428 179.998Z" clip-rule="evenodd" fill-rule="evenodd" fill="#1A1B54" fill-opacity="1.000000"/>
	</g>
</svg>
