<svg width="240.000000" height="240.000000" viewBox="0 0 240 240" fill="none" xmlns="http://www.w3.org/2000/svg" xmlns:xlink="http://www.w3.org/1999/xlink">
	<desc>
			Created with Pixso.
	</desc>
	<defs>
		<clipPath id="clip3_15">
			<rect id="感到鸭力" width="240.000000" height="240.000000" fill="white"/>
		</clipPath>
		<linearGradient id="paint_linear_1_303_0" x1="120.000000" y1="129.266220" x2="120.000000" y2="217.615814" gradientUnits="userSpaceOnUse">
			<stop stop-color="#F34022"/>
			<stop offset="1.000000" stop-color="#FFBF0B"/>
		</linearGradient>
	</defs>
	<rect id="感到鸭力" width="240.000000" height="240.000000"  />
	<rect id="感到鸭力" width="240.000000" height="240.000000"  />
	<g clip-path="url(#clip3_15)">
		<path id="椭圆形备份 134" d="M220 217C220 161.772 175.229 117 120 117C64.7715 117 20 161.772 20 217C60.5696 217.128 190.269 218.319 220 217Z" fill-rule="evenodd" fill="url(#paint_linear_1_303_0)"/>
		<ellipse id="椭圆形" rx="29.000000" ry="5.500000" transform="matrix(1 0 0 1 120 125.5)" fill="#DD2C0C"/>
		<ellipse id="椭圆形" rx="34.000000" ry="33.000000" transform="matrix(1 0 0 1 117 56)" fill="#FFBF0B"/>
		<circle id="椭圆形" r="6.500000" transform="matrix(1 0 0 1 132.5 41.5)" fill="#1A1B54"/>
		<circle id="椭圆形" r="2.000000" transform="matrix(1 0 0 1 130 40)" fill="#FFFFFF"/>
		<circle id="椭圆形备份 135" r="6.500000" transform="matrix(1 0 0 1 99.5 41.5)" fill="#1A1B54"/>
		<circle id="椭圆形备份 136" r="2.000000" transform="matrix(1 0 0 1 102 40)" fill="#FFFFFF"/>
		<path id="路径 15" d="M92.8982 67.3367C92.8982 67.3367 89.2324 79.8536 81.2798 81.694C74.4946 82.6 68.2576 82.6 65.8101 87.8245C63.7844 95.1786 65.4514 102.587 72.0164 108.585C76.0999 112.773 77.3145 121.762 91.8423 124.879C99.5615 125.495 105.966 123.564 118.846 123.564C131.794 123.564 139.029 125.283 146.458 124.879C154.787 123.564 163.87 110.649 165.584 108.585C167.983 105.695 177.478 98.7072 174.388 87.8245C170.323 78.7924 161.464 82.7344 157.059 81.694C147.064 80.8073 140.569 74.0102 140.569 67.3367C140.569 60.6633 92.8982 67.3367 92.8982 67.3367Z" fill-rule="evenodd" fill="#FFBF0B"/>
		<path id="椭圆形" d="M116.386 59C129.917 59 141 61.6834 141 65.1656C141 68.6479 124.858 76 116.386 76C107.915 76 92 68.6479 92 65.1656C92 61.6834 102.855 59 116.386 59Z" fill-rule="evenodd" fill="#EA790B"/>
		<path id="椭圆形" d="M116.386 70C129.917 70 141 67.0009 141 63.109C141 59.217 124.858 51 116.386 51C107.915 51 92 59.217 92 63.109C92 67.0009 102.855 70 116.386 70Z" fill-rule="evenodd" fill="#FC952F"/>
		<path id="椭圆形" d="M80.9971 174.482C94.78 174.482 105.058 178.994 105.953 175.938C106.848 172.882 94.78 165 80.9971 165C67.2144 165 55.2065 172.972 56.041 175.938C56.8757 178.904 67.2144 174.482 80.9971 174.482Z" fill-rule="evenodd" fill="#1A1B54"/>
		<path id="椭圆形" d="M85.8867 165.924C97.1248 171.218 103.871 178.706 105.708 176.652C107.544 174.598 100.559 163.779 89.3206 158.485C78.0825 153.191 65.4045 154.833 65.0112 157.481C64.6177 160.128 74.6487 160.63 85.8867 165.924Z" fill-rule="evenodd" fill="#1A1B54"/>
		<path id="椭圆形" d="M160.003 174.482C146.22 174.482 135.942 178.994 135.047 175.938C134.152 172.882 146.22 165 160.003 165C173.786 165 185.793 172.972 184.959 175.938C184.124 178.904 173.786 174.482 160.003 174.482Z" fill-rule="evenodd" fill="#1A1B54"/>
		<path id="椭圆形" d="M155.113 165.924C143.875 171.218 137.129 178.706 135.292 176.652C133.456 174.598 140.441 163.779 151.679 158.485C162.917 153.191 175.595 154.833 175.989 157.481C176.382 160.128 166.351 160.63 155.113 165.924Z" fill-rule="evenodd" fill="#1A1B54"/>
	</g>
</svg>
