<svg width="240.000000" height="240.000000" viewBox="0 0 240 240" fill="none" xmlns="http://www.w3.org/2000/svg" xmlns:xlink="http://www.w3.org/1999/xlink">
	<desc>
			Created with Pixso.
	</desc>
	<defs>
		<clipPath id="clip3_20">
			<rect id="尴尬" width="240.000000" height="240.000000" fill="white"/>
		</clipPath>
		<linearGradient id="paint_linear_1_394_0" x1="119.983406" y1="-25.502327" x2="119.983406" y2="243.072479" gradientUnits="userSpaceOnUse">
			<stop stop-color="#FFBF0B"/>
			<stop offset="0.471512" stop-color="#F12727"/>
			<stop offset="1.000000" stop-color="#FFBF0B"/>
		</linearGradient>
	</defs>
	<rect id="尴尬" width="240.000000" height="240.000000"  />
	<rect id="尴尬" width="240.000000" height="240.000000"  />
	<g clip-path="url(#clip3_20)">
		<circle id="椭圆形备份 202" cx="120.000000" cy="120.000000" r="100.000000" fill="url(#paint_linear_1_394_0)"/>
		<path id="矩形备份 117" d="M59.8589 60.7244C63.8447 61.8913 71.1494 63.0875 77.2012 58.85C83.5283 54.4198 84.874 46.8596 85.1299 42.9433C85.2227 41.5256 84.0635 40.4205 82.6426 40.4142C81.1919 40.4077 79.981 41.5455 79.7534 42.9788C79.23 46.2796 77.8203 51.8826 74.1313 54.4656C70.4907 57.0149 65.2002 56.2237 62.1313 55.4344C60.7056 55.0677 59.1416 55.6326 58.4282 56.9205C57.6069 58.4044 58.231 60.2478 59.8589 60.7244Z" fill-rule="evenodd" fill="#1A1B54"/>
		<path id="矩形备份 118" d="M151.16 42.9308C147.291 44.4407 140.118 46.269 133.72 42.575C127.031 38.7131 125.031 31.2991 124.435 27.4199C124.219 26.0157 125.277 24.8137 126.692 24.6836C128.137 24.5507 129.443 25.5787 129.794 26.9866C130.603 30.2292 132.496 35.6881 136.396 37.9398C140.245 40.162 145.446 38.9128 148.435 37.859C149.823 37.3695 151.431 37.7959 152.253 39.0167C153.201 40.4234 152.74 42.3142 151.16 42.9308Z" fill-rule="evenodd" fill="#1A1B54"/>
		<circle id="椭圆形备份 156" r="28.000000" transform="matrix(1 0 0 1 70 97)" fill="#FFFCFD"/>
		<circle id="椭圆形备份 157" r="34.500000" transform="matrix(1 0 0 1 144.5 90.5)" fill="#FFFCFD"/>
		<circle id="椭圆形备份 158" r="12.000000" transform="matrix(1 0 0 1 79 87)" fill="#1A1B54"/>
		<circle id="椭圆形备份 159" r="12.000000" transform="matrix(1 0 0 1 159 75)" fill="#1A1B54"/>
		<path id="形状结合备份 24" d="M209.91 102.386C211.398 93.0995 194.083 38 191.949 38C189.798 38 172.908 97.0927 174.056 102.73C174.019 103.149 174 103.573 174 104C174 112.837 182.059 120 192 120C201.941 120 210 112.837 210 104C210 103.455 209.969 102.917 209.91 102.386Z" clip-rule="evenodd" fill-rule="evenodd" fill="#0A84FF" fill-opacity="1.000000"/>
		<path id="路径 29" d="M78.3843 145.075C80.6577 143.562 95.417 138.566 115.388 140.98C123.62 142.147 149.656 146.746 154.446 157.156C157.491 166.911 148.177 170.924 141.443 168.834C132.966 166.579 125.1 156.057 107.713 153.74C93.6445 151.33 88.1421 158.29 79.9761 157.996C65.4121 155.568 75.8433 145.699 78.3843 145.075Z" fill-rule="evenodd" fill="#1A1B54"/>
	</g>
</svg>
