<svg width="240.000000" height="240.000015" viewBox="0 0 240 240" fill="none" xmlns="http://www.w3.org/2000/svg" xmlns:xlink="http://www.w3.org/1999/xlink">
	<desc>
			Created with Pixso.
	</desc>
	<defs>
		<clipPath id="clip3_13">
			<rect id="鼓掌" width="240.000000" height="240.000000" fill="white"/>
		</clipPath>
	</defs>
	<rect id="鼓掌" width="240.000000" height="240.000000"  />
	<rect id="鼓掌" width="240.000000" height="240.000000"  />
	<g clip-path="url(#clip3_13)">
		<circle id="椭圆形备份 183" cx="120.500000" cy="113.500000" r="94.500000" fill="#FFBF0B"/>
		<ellipse id="椭圆形备份 185" rx="26.500000" ry="31.500000" transform="matrix(1 0 0 1 120.5 125.5)" fill="#1A1B54"/>
		<path id="形状结合备份 29" d="M144 141.024C139.658 150.576 131.406 157 121.23 157C110.507 157 101.42 150.636 97 140.136C101.331 133.523 110.106 129 120.226 129C130.793 129 139.894 133.932 144 141.024Z" clip-rule="evenodd" fill-rule="evenodd" fill="#FF4E90" fill-opacity="1.000000"/>
		<path id="椭圆形" d="M77.6411 76.02C95.3232 76.02 100.524 83.5831 103.429 81.6983C106.334 79.8136 98.2178 63 77.6411 63C57.064 63 50.2485 79.915 52.3701 81.6983C54.4917 83.4817 59.9585 76.02 77.6411 76.02Z" fill-rule="evenodd" fill="#1A1B54"/>
		<path id="椭圆形备份 184" d="M158.641 76.02C176.323 76.02 181.524 83.5831 184.429 81.6983C187.334 79.8136 179.218 63 158.641 63C138.064 63 131.249 79.915 133.37 81.6983C135.492 83.4817 140.958 76.02 158.641 76.02Z" fill-rule="evenodd" fill="#1A1B54"/>
		<path id="路径 36" d="M46 208.124C46 208.124 52.7964 200.36 54.4019 195.463C55.6318 188.361 54.2051 186.806 55.8105 176.328C57.4165 165.851 66.6914 162 72.2207 162C77.7495 162 83.0024 164.373 85.1992 169.392C88.5137 176.438 86.4805 196.188 85.1992 199.979C83.9175 203.77 73.835 217 73.835 217L46 208.124Z" fill-rule="evenodd" fill="#FFD041"/>
		<path id="三角形" d="M82.3774 155.024L75.0161 137.774L89.7388 137.774L82.3774 155.024Z" fill-rule="evenodd" fill="#FFFFFF"/>
		<path id="三角形" d="M77.8774 156.024L69.0767 142.024L63.8774 148.254L77.8774 156.024Z" fill-rule="evenodd" fill="#FFFFFF"/>
		<path id="三角形" d="M86.8774 156.024L95.6782 142.024L100.877 148.254L86.8774 156.024Z" fill-rule="evenodd" fill="#FFFFFF"/>
		<path id="路径 36" d="M148 211.367C148 211.367 130.88 203.469 127.576 197.81C125.839 191.674 125.936 186.988 124.342 176.434C122.748 165.879 113.54 162 108.051 162C102.562 162 97.3481 164.39 95.167 169.446C92.5791 176.521 91.9912 194.315 95.167 203.778C97.3828 208.528 103.676 213.832 114.047 219.69L148 211.367Z" fill-rule="evenodd" fill="#FFD041"/>
	</g>
</svg>
