<svg width="240.000000" height="240.000000" viewBox="0 0 240 240" fill="none" xmlns="http://www.w3.org/2000/svg" xmlns:xlink="http://www.w3.org/1999/xlink">
	<desc>
			Created with Pixso.
	</desc>
	<defs>
		<clipPath id="clip3_36">
			<rect id="害羞" width="240.000000" height="240.000000" fill="white"/>
		</clipPath>
	</defs>
	<rect id="害羞" width="240.000000" height="240.000000"  />
	<rect id="害羞" width="240.000000" height="240.000000"  />
	<g clip-path="url(#clip3_36)">
		<circle id="椭圆形备份 119" cx="120.000000" cy="120.000000" r="100.000000" fill="#FFBF0B"/>
		<rect id="矩形备份 99" x="68.731934" y="116.500000" rx="3.000000" width="6.000000" height="20.000000" transform="rotate(30 68.731934 116.500000)" fill="#FF4E90"/>
		<rect id="矩形备份 103" x="54.000000" y="116.500000" rx="3.000000" width="6.000000" height="20.000000" transform="rotate(30 54.000000 116.500000)" fill="#FF4E90"/>
		<rect id="矩形备份 96" rx="3.000000" width="6.000000" height="20.000000" transform="matrix(-0.866025 0.5 0.499999 0.866026 142.196 116.5)" fill="#FF4E90"/>
		<rect id="矩形备份 100" x="82.731934" y="116.500000" rx="3.000000" width="6.000000" height="20.000000" transform="rotate(30 82.731934 116.500000)" fill="#FF4E90"/>
		<rect id="矩形备份 97" rx="3.000000" width="6.000000" height="20.000000" transform="matrix(-0.866025 0.5 0.5 0.866025 156.196 116.5)" fill="#FF4E90"/>
		<rect id="矩形备份 101" x="97.731934" y="116.500000" rx="3.000000" width="6.000000" height="20.000000" transform="rotate(30 97.731934 116.500000)" fill="#FF4E90"/>
		<rect id="矩形备份 98" rx="3.000000" width="6.000000" height="20.000000" transform="matrix(-0.866025 0.5 0.5 0.866025 171.196 116.5)" fill="#FF4E90"/>
		<rect id="矩形备份 102" rx="3.000000" width="6.000000" height="20.000000" transform="matrix(-0.866025 0.5 0.499999 0.866026 185.464 116.5)" fill="#FF4E90"/>
		<path id="椭圆形备份 120" d="M76.0249 107.016C91.0542 107.419 99.3667 100.186 101.007 102.502C102.647 104.819 91.0542 116.498 76.0249 116.498C60.9956 116.498 49.8521 104.819 51.0947 102.502C52.3369 100.186 60.9956 106.613 76.0249 107.016Z" fill-rule="evenodd" fill="#1A1B54"/>
		<path id="椭圆形备份 121" d="M165.025 107.016C180.054 107.419 188.367 100.186 190.007 102.502C191.647 104.819 180.054 116.498 165.025 116.498C149.996 116.498 138.852 104.819 140.095 102.502C141.337 100.186 149.996 106.613 165.025 107.016Z" fill-rule="evenodd" fill="#1A1B54"/>
		<rect id="矩形备份 88" x="73.615723" y="110.201538" rx="2.000000" width="4.000000" height="16.000000" fill="#1A1B54"/>
		<rect id="矩形备份 91" x="162.615723" y="110.201538" rx="2.000000" width="4.000000" height="16.000000" fill="#1A1B54"/>
		<rect id="矩形备份 89" x="64.472168" y="106.000000" rx="2.000000" width="4.000000" height="16.000000" transform="rotate(20 64.472168 106.000000)" fill="#1A1B54"/>
		<rect id="矩形备份 92" x="153.472168" y="106.000000" rx="2.000000" width="4.000000" height="16.000000" transform="rotate(20 153.472168 106.000000)" fill="#1A1B54"/>
		<rect id="矩形备份 90" rx="2.000004" width="4.000008" height="16.000000" transform="matrix(-0.939693 0.34202 0.34202 0.939693 86.7588 106)" fill="#1A1B54"/>
		<rect id="矩形备份 93" rx="2.000000" width="4.000000" height="16.000000" transform="matrix(-0.939693 0.34202 0.342021 0.939692 175.759 106)" fill="#1A1B54"/>
		<path id="矩形" d="M94.9629 160.218C99.1299 162.211 108.489 165.949 120.076 165.949C131.703 165.949 141.078 162.185 145.219 160.197C146.523 159.571 148.14 159.962 148.924 161.177C149.574 162.184 149.47 163.494 148.588 164.305C145.079 167.53 135.218 175.104 120 175.104C104.624 175.104 94.9541 167.371 91.6387 164.205C90.8374 163.44 90.7266 162.238 91.2856 161.281C92.0195 160.024 93.6494 159.59 94.9629 160.218Z" fill-rule="evenodd" fill="#1A1B54"/>
		<path id="矩形备份 128" d="M138.083 77.2605C140.78 76.2042 145.757 74.5396 151.36 74.0494C157.006 73.5554 162.586 74.3157 165.643 74.8685C167.01 75.1157 167.898 76.3984 167.725 77.7771C167.526 79.3489 166.037 80.4432 164.463 80.2587C161.615 79.9247 156.965 79.5819 151.876 80.0271C147.003 80.4535 142.901 81.4998 140.337 82.2944C138.789 82.774 137.071 81.9388 136.611 80.3853C136.231 79.1055 136.84 77.7472 138.083 77.2605Z" fill-rule="evenodd" fill="#1A1B54"/>
		<path id="矩形备份 129" d="M100.116 77.2605C97.4185 76.2042 92.4419 74.5396 86.8389 74.0494C81.1924 73.5554 75.6123 74.3157 72.5557 74.8685C71.1885 75.1157 70.3003 76.3984 70.4741 77.7771C70.6724 79.3489 72.1621 80.4431 73.7354 80.2587C76.5835 79.9247 81.2339 79.5819 86.3228 80.0271C91.1953 80.4535 95.2974 81.4998 97.8618 82.2944C99.4097 82.774 101.128 81.9388 101.588 80.3853C101.967 79.1055 101.358 77.7472 100.116 77.2605Z" fill-rule="evenodd" fill="#1A1B54"/>
	</g>
</svg>
