<svg width="240.000000" height="240.000000" viewBox="0 0 240 240" fill="none" xmlns="http://www.w3.org/2000/svg" xmlns:xlink="http://www.w3.org/1999/xlink">
	<desc>
			Created with Pixso.
	</desc>
	<defs>
		<clipPath id="clip3_34">
			<rect id="黑脸" width="240.000000" height="240.000000" fill="white"/>
		</clipPath>
		<linearGradient id="paint_linear_1_736_0" x1="120.000008" y1="112.572311" x2="120.000008" y2="159.000000" gradientUnits="userSpaceOnUse">
			<stop stop-color="#1A1B54"/>
			<stop offset="1.000000" stop-color="#0A84FF"/>
		</linearGradient>
	</defs>
	<rect id="黑脸" width="240.000000" height="240.000000"  />
	<rect id="黑脸" width="240.000000" height="240.000000"  />
	<g clip-path="url(#clip3_34)">
		<circle id="椭圆形备份 97" cx="120.000000" cy="120.000000" r="100.000000" fill="#1A1B54"/>
		<path id="形状结合" d="M144 107C141.791 107 140 108.791 140 111L140 153C140 155.209 141.791 157 144 157C146.209 157 148 155.209 148 153L148 111C148 108.791 146.209 107 144 107ZM92 113C92 110.791 93.7908 109 96 109C98.2092 109 100 110.791 100 113L100 155C100 157.209 98.2092 159 96 159C93.7908 159 92 157.209 92 155L92 113ZM116 115C116 112.791 117.791 111 120 111C122.209 111 124 112.791 124 115L124 142C124 144.209 122.209 146 120 146C117.791 146 116 144.209 116 142L116 115ZM156 113C153.791 113 152 114.791 152 117L152 144C152 146.209 153.791 148 156 148C158.209 148 160 146.209 160 144L160 117C160 114.791 158.209 113 156 113ZM104 118C104 115.791 105.791 114 108 114C110.209 114 112 115.791 112 118L112 145C112 147.209 110.209 149 108 149C105.791 149 104 147.209 104 145L104 118ZM132 114C129.791 114 128 115.791 128 118L128 145C128 147.209 129.791 149 132 149C134.209 149 136 147.209 136 145L136 118C136 115.791 134.209 114 132 114ZM80 121C80 118.791 81.7908 117 84 117C86.2092 117 88 118.791 88 121L88 148C88 150.209 86.2092 152 84 152C81.7908 152 80 150.209 80 148L80 121ZM168 118C165.791 118 164 119.791 164 122L164 138C164 140.209 165.791 142 168 142C170.209 142 172 140.209 172 138L172 122C172 119.791 170.209 118 168 118ZM68 126C68 123.791 69.7908 122 72 122C74.2092 122 76 123.791 76 126L76 142C76 144.209 74.2092 146 72 146C69.7908 146 68 144.209 68 142L68 126Z" clip-rule="evenodd" fill-rule="evenodd" fill="url(#paint_linear_1_736_0)" fill-opacity="1.000000"/>
		<circle id="椭圆形备份 98" r="36.000000" transform="matrix(1 0 0 1 82 104)" fill="#FFFCFD"/>
		<circle id="椭圆形备份 99" r="30.000000" transform="matrix(1 0 0 1 157 102)" fill="#FFFCFD"/>
		<ellipse id="椭圆形备份 100" rx="13.000000" ry="12.500000" transform="matrix(1 0 0 1 96 106.5)" fill="#1A1B54"/>
		<circle id="椭圆形备份 103" r="7.000000" transform="matrix(1 0 0 1 187 116)" fill="#FFFFFF"/>
		<circle id="椭圆形备份 101" r="13.000000" transform="matrix(1 0 0 1 150 99)" fill="#1A1B54"/>
		<path id="形状结合备份 23" d="M65.9092 150.33C65.8157 148.806 65.1067 146.724 64.1284 143.851C62.4546 138.936 59.9929 131.707 58.4788 121C52.9751 133.199 51.0925 147.545 51.0459 150.666C51.0156 150.94 51 151.218 51 151.5C51 155.642 54.3579 159 58.5 159C62.6421 159 66 155.642 66 151.5C66 151.102 65.969 150.711 65.9092 150.33Z" clip-rule="evenodd" fill-rule="evenodd" fill="#FFFDFE" fill-opacity="1.000000"/>
	</g>
</svg>
