<svg width="240.000000" height="240.000000" viewBox="0 0 240 240" fill="none" xmlns="http://www.w3.org/2000/svg" xmlns:xlink="http://www.w3.org/1999/xlink">
	<desc>
			Created with Pixso.
	</desc>
	<defs>
		<clipPath id="clip3_27">
			<rect id="惊讶" width="240.000000" height="240.000000" fill="white"/>
		</clipPath>
	</defs>
	<rect id="惊讶" width="240.000000" height="240.000000"  />
	<rect id="惊讶" width="240.000000" height="240.000000"  />
	<g clip-path="url(#clip3_27)">
		<circle id="椭圆形备份 71" cx="120.000000" cy="120.000000" r="100.000000" fill="#FFBF0B"/>
		<circle id="椭圆形备份 75" r="28.000000" transform="matrix(1 0 0 1 80 97)" fill="#FFFCFD"/>
		<circle id="椭圆形备份 76" r="28.000000" transform="matrix(1 0 0 1 161 97)" fill="#FFFCFD"/>
		<circle id="椭圆形备份 77" r="12.000000" transform="matrix(1 0 0 1 95 94)" fill="#1A1B54"/>
		<circle id="椭圆形备份 78" r="12.000000" transform="matrix(1 0 0 1 175 91)" fill="#1A1B54"/>
		<path id="椭圆形备份 79" d="M120.5 188.314C134.245 188.314 136.077 188.314 142.618 188.314C156.393 189.499 151.677 166.679 149.038 154.294C144.497 132.526 140.282 117 121.286 117C102.29 117 96.0708 128.332 91.0933 154.294C88.4521 171.856 83.002 190.014 98.7476 188.956C103.423 188.956 106.755 188.314 120.5 188.314Z" fill-rule="evenodd" fill="#1A1B54"/>
		<path id="形状结合" d="M138.72 124.781C136.758 129.036 131.834 130 119.551 130C108.414 130 103.293 129.208 100.95 125.888C105.5 119.826 111.8 117 121.286 117C129.403 117 134.822 119.835 138.72 124.781Z" clip-rule="evenodd" fill-rule="evenodd" fill="#FFFFFF" fill-opacity="1.000000"/>
		<rect id="矩形" x="186.000000" y="44.000000" rx="4.000000" width="8.000000" height="35.000000" fill="#0A84FF"/>
		<rect id="矩形备份 69" x="174.000000" y="44.000000" rx="4.000000" width="8.000000" height="24.000000" fill="#0A84FF"/>
		<rect id="矩形备份 68" x="198.000000" y="44.000000" rx="4.000000" width="8.000000" height="50.000000" fill="#0A84FF"/>
		<path id="形状结合" d="M120.5 188.314L142.618 188.314C148.211 188.795 150.755 185.319 151.628 180.19C146.597 170.711 134.109 164 119.5 164C105.505 164 93.457 170.159 88.0454 179.009C88.4082 185.383 91.0356 189.474 98.7476 188.956C103.423 188.956 106.755 188.314 120.5 188.314Z" clip-rule="evenodd" fill-rule="evenodd" fill="#FF4E90" fill-opacity="1.000000"/>
		<path id="形状结合备份 17" d="M120.188 188.956C133.933 188.956 136.265 188.314 142.806 188.314C147.976 188.759 150.542 185.822 151.589 181.324C150.061 173.554 143.956 172 120.164 172C96.0703 172 90.0146 173.594 88.541 181.623C89.4619 186.469 92.3379 189.399 98.9355 188.956L120.188 188.956Z" clip-rule="evenodd" fill-rule="evenodd" fill="#FFFFFF" fill-opacity="1.000000"/>
	</g>
</svg>
