<svg width="240.000000" height="240.000000" viewBox="0 0 240 240" fill="none" xmlns="http://www.w3.org/2000/svg" xmlns:xlink="http://www.w3.org/1999/xlink">
	<desc>
			Created with Pixso.
	</desc>
	<defs>
		<clipPath id="clip3_16">
			<rect id="口水" width="240.000000" height="240.000000" fill="white"/>
		</clipPath>
	</defs>
	<rect id="口水" width="240.000000" height="240.000000"  />
	<rect id="口水" width="240.000000" height="240.000000"  />
	<g clip-path="url(#clip3_16)">
		<circle id="椭圆形备份 34" cx="120.000000" cy="120.000000" r="100.000000" fill="#FFBF0B"/>
		<path id="路径备份 3" d="M120 133.895C146.044 133.895 164.054 124.897 170.989 126.906C171.413 127.028 171.645 127.218 172.185 127.428C175.017 128.542 177 131.442 177 134.646C177 134.764 176.997 134.882 176.992 134.999L176.994 135.041C176.998 135.32 177 135.599 177 135.878C176.992 166 146.407 187 120.138 187C93.8694 187 63.0408 163.919 63 135.878C62.9998 135.6 63.002 135.322 63.0061 135.045C63.0081 134.909 63.02 134.785 63.0408 134.671C63.0137 134.414 63.0786 134.158 63.1265 133.895C63.8857 129.718 67.1982 127.033 70.8713 126.303C81.1399 123.875 93.9563 133.895 120 133.895Z" fill-rule="evenodd" fill="#1A1B54"/>
		<path id="形状结合" d="M162.911 168.484C151.886 179.622 136.135 187 121.138 187C105.577 187 88.9514 179.684 77.6699 168.369C88.4331 158.276 103.523 152 120.229 152C136.999 152 152.14 158.323 162.911 168.484Z" clip-rule="evenodd" fill-rule="evenodd" fill="#FF4E90" fill-opacity="1.000000"/>
		<path id="形状结合" d="M150.04 178.419C150.034 178.29 150.021 178.16 150 178.031C149.4 174.343 144.101 174.963 136.101 175.899C131.542 176.433 126.104 177.069 120.16 177.069C113.909 177.069 108.036 176.125 103.163 175.342C95.2695 174.074 90 173.227 90 177.496C90 177.696 90.0112 177.894 90.033 178.09C99.3657 183.747 110.033 187 120.136 187C130.165 187 140.754 183.886 150.04 178.419Z" clip-rule="evenodd" fill-rule="evenodd" fill="#0A84FF" fill-opacity="1.000000"/>
		<path id="形状结合" d="M160.398 114.705C165.519 116.586 200.543 109.674 208.313 88.1339C208.48 85.7411 202.903 84.2072 194.335 81.8502C188.734 80.3095 181.855 78.4173 174.467 75.7037C167.078 72.9902 160.324 69.9892 154.825 67.5459C146.413 63.8078 140.938 61.3752 140.62 63.2736C132.85 84.8134 155.277 112.824 160.398 114.705Z" clip-rule="evenodd" fill-rule="evenodd" fill="#FF355E" fill-opacity="1.000000"/>
		<path id="形状结合" d="M101.249 119.608C108.455 116.999 139.803 77.5636 128.611 46.9728C126.62 44.2086 119.24 47.611 107.899 52.8391C100.487 56.2564 91.3821 60.4537 80.9851 64.2185C70.5881 67.9833 60.6125 70.856 52.4907 73.1949C40.0652 76.7732 31.9785 79.102 33.3589 81.4641C44.5503 112.055 94.0432 122.217 101.249 119.608Z" clip-rule="evenodd" fill-rule="evenodd" fill="#FF355E" fill-opacity="1.000000"/>
		<path id="矩形" d="M129 181L139 181L139 194C139 196.761 136.761 199 134 199C131.239 199 129 196.761 129 194L129 181Z" fill-rule="evenodd" fill="#0A84FF"/>
		<path id="矩形备份" d="M139 179.229L150 178.031L150 200.5C150 203.538 147.538 206 144.5 206C141.462 206 139 203.538 139 200.5L139 179.229Z" fill-rule="evenodd" fill="#0A84FF"/>
	</g>
</svg>
