<svg width="240.000000" height="240.000000" viewBox="0 0 240 240" fill="none" xmlns="http://www.w3.org/2000/svg" xmlns:xlink="http://www.w3.org/1999/xlink">
	<desc>
			Created with Pixso.
	</desc>
	<defs>
		<clipPath id="clip3_33">
			<rect id="口罩" width="240.000000" height="240.000000" fill="white"/>
		</clipPath>
	</defs>
	<rect id="口罩" width="240.000000" height="240.000000"  />
	<rect id="口罩" width="240.000000" height="240.000000"  />
	<g clip-path="url(#clip3_33)">
		<circle id="椭圆形备份 89" cx="120.000000" cy="120.000000" r="100.000000" fill="#FFBF0B"/>
		<path id="矩形备份 72" d="M132.084 54.2604C134.082 56.3575 137.889 59.9695 142.76 62.7816C147.668 65.6157 153.047 67.2848 156.05 68.0756C157.394 68.4293 158.741 67.6421 159.166 66.3191C159.651 64.8109 158.763 63.1896 157.26 62.6919C154.537 61.7909 150.177 60.1361 145.754 57.582C141.518 55.1364 138.242 52.4547 136.254 50.6505C135.053 49.5616 133.144 49.5925 132.07 50.8062C131.185 51.8058 131.163 53.2939 132.084 54.2604Z" fill-rule="evenodd" fill="#1A1B54"/>
		<path id="矩形备份 73" d="M109.115 54.2604C107.117 56.3575 103.31 59.9695 98.439 62.7816C93.5303 65.6157 88.1519 67.2848 85.1482 68.0756C83.8042 68.4293 82.4575 67.6421 82.0322 66.3191C81.5476 64.8109 82.4351 63.1896 83.939 62.6919C86.6614 61.7909 91.0212 60.1361 95.4448 57.582C99.6809 55.1364 102.956 52.4547 104.945 50.6505C106.145 49.5616 108.055 49.5925 109.129 50.8062C110.013 51.8058 110.035 53.2939 109.115 54.2604Z" fill-rule="evenodd" fill="#1A1B54"/>
		<circle id="椭圆形备份 90" r="28.000000" transform="matrix(1 0 0 1 79 98)" fill="#FFFCFD"/>
		<circle id="椭圆形备份 91" r="28.000000" transform="matrix(1 0 0 1 160 98)" fill="#FFFCFD"/>
		<circle id="椭圆形备份 92" r="12.000000" transform="matrix(1 0 0 1 87 101)" fill="#1A1B54"/>
		<circle id="椭圆形备份 93" r="12.000000" transform="matrix(1 0 0 1 152 101)" fill="#1A1B54"/>
		<path id="矩形" d="M67.5491 131.317C82.4238 128.828 103.504 126 122.5 126C140.845 126 159.671 128.637 173.095 131.06C183.699 132.974 190.188 143.369 187.903 153.9L179.31 193.499C177.633 201.228 172.247 207.652 164.628 209.776C154.704 212.542 139.517 215.753 122.5 215.753C105.019 215.753 87.759 212.364 76.4414 209.551C68.2595 207.516 62.2751 200.805 60.4873 192.566L52.2197 154.467C49.8857 143.711 56.6941 133.134 67.5491 131.317Z" fill-rule="evenodd" fill="#FFFDFE"/>
		<path id="形状结合" d="M190.774 190.647C169.853 179.388 145.923 173 120.5 173C94.8145 173 70.6521 179.521 49.5781 190.998C50.8704 192.28 52.1975 193.527 53.5579 194.737C73.6772 184.053 96.6318 178 121 178C144.86 178 167.365 183.803 187.18 194.075C188.406 192.962 189.604 191.819 190.774 190.647Z" clip-rule="evenodd" fill-rule="evenodd" fill="#FFFDFE" fill-opacity="1.000000"/>
		<path id="形状结合" d="M183.775 142.749C165.505 152.483 144.647 158 122.5 158C98.6987 158 76.3857 151.628 57.1736 140.497C43.1074 132.348 30.7036 121.647 20.595 109.028C20.8486 106.704 21.1819 104.404 21.5918 102.131C22.5029 103.361 23.4358 104.573 24.3901 105.768C34.1313 117.963 46.0986 128.301 59.6765 136.168C78.1526 146.872 99.6106 153 122.5 153C143.798 153 163.857 147.695 181.427 138.333C194.497 131.37 206.188 122.164 215.99 111.227C217.092 109.998 218.17 108.746 219.223 107.474C219.509 109.764 219.718 112.079 219.847 114.415C219.802 114.464 219.759 114.514 219.714 114.563C209.523 125.935 197.365 135.509 183.775 142.749Z" clip-rule="evenodd" fill-rule="evenodd" fill="#FFFDFE" fill-opacity="1.000000"/>
	</g>
</svg>
