<svg width="240.000000" height="240.000000" viewBox="0 0 240 240" fill="none" xmlns="http://www.w3.org/2000/svg" xmlns:xlink="http://www.w3.org/1999/xlink">
	<desc>
			Created with Pixso.
	</desc>
	<defs>
		<clipPath id="clip3_18">
			<rect id="酷" width="240.000000" height="240.000000" fill="white"/>
		</clipPath>
		<linearGradient id="paint_linear_1_366_0" x1="174.977509" y1="71.000000" x2="149.726715" y2="125.080048" gradientUnits="userSpaceOnUse">
			<stop stop-color="#2E96FF"/>
			<stop offset="1.000000" stop-color="#0A84FF"/>
		</linearGradient>
		<linearGradient id="paint_linear_1_371_0" x1="75.603996" y1="71.000000" x2="48.357216" y2="125.873871" gradientUnits="userSpaceOnUse">
			<stop stop-color="#2E96FF"/>
			<stop offset="1.000000" stop-color="#0A84FF"/>
		</linearGradient>
	</defs>
	<rect id="酷" width="240.000000" height="240.000000"  />
	<rect id="酷" width="240.000000" height="240.000000"  />
	<g clip-path="url(#clip3_18)">
		<circle id="椭圆形备份 42" cx="120.000000" cy="120.000000" r="100.000000" fill="#FFBF0B"/>
		<path id="路径 41备份 19" d="M117.705 155.929C117.705 155.929 127.4 161.553 138.501 157.513C149.602 153.472 154.388 142.685 154.388 142.685" stroke="#1A1B54" stroke-width="6.000000" stroke-linecap="round"/>
		<path id="路径 4" d="M23 78.1014C23 73.6076 23 70.0692 27.8225 69.0215C32.6453 67.9738 51.0833 64 68.0503 64C85.0176 64 93.7441 66.0618 103.594 72.5571L133.073 72.5705C133.073 72.5705 148.936 64 174.191 64C191.794 64.0854 204.339 66.0777 212.36 69.0215C212.36 69.0215 218 71.2708 218 75.3031C218 79.3354 216.065 84.0772 212.36 84.0772C212.36 84.0772 211.679 100.5 210.557 105.237C208.643 117.601 198.062 135.283 175.665 136.771C153.268 138.259 137.498 129.837 133.073 111.627C128.648 93.4167 131.808 85.7784 120.692 85.7801C108.663 85.7801 111.784 88.327 106.797 111.627C101.811 134.927 78.3088 138 63.3787 136.771C48.4485 135.542 32.0605 122.967 29.6226 105.237C28.2661 92.0821 27.8225 84.0772 27.8225 84.0772C27.8225 84.0772 23 82.5952 23 78.1014Z" fill-rule="evenodd" fill="#1A1B54"/>
		<path id="椭圆形备份 43" d="M68.1465 131.094C50.1958 131.094 39.0042 118.006 36.0469 102.611C34.2034 88.4418 28.5857 71 68.1465 71C107.707 71 102.645 84.8026 100.649 102.611C98.5481 123.507 86.0972 131.094 68.1465 131.094Z" fill-rule="evenodd" fill="#0A84FF"/>
		<path id="椭圆形备份 43" d="M171.854 131.094C189.804 131.094 200.996 118.006 203.953 102.611C205.797 88.4418 211.414 71 171.854 71C132.293 71 137.355 84.8026 139.351 102.611C141.452 123.507 153.903 131.094 171.854 131.094Z" fill-rule="evenodd" fill="#0A84FF"/>
		<path id="形状结合" d="M138.75 97.7297L149.977 73.3819C155.023 71.8433 162.075 71 171.854 71C174.915 71 177.706 71.1045 180.25 71.3038L154.023 127.486C145.928 123.396 140.653 115.558 139.351 102.611C139.197 101.239 139.025 99.8907 138.857 98.5708C138.821 98.2891 138.785 98.0088 138.75 97.7297ZM172.065 131.093C171.995 131.094 171.924 131.094 171.854 131.094C168.112 131.094 164.609 130.764 161.389 130.053L188.65 72.4731C192.511 73.3024 195.521 74.4534 197.852 75.8527L172.065 131.093Z" clip-rule="evenodd" fill-rule="evenodd" fill="url(#paint_linear_1_366_0)" fill-opacity="1.000000"/>
		<path id="形状结合" d="M79.1833 71.4448C75.9592 71.152 72.2986 71 68.1462 71C60.0706 71 53.8774 71.7268 49.1506 73.0042L35.9229 101.691C35.9656 101.999 36.0068 102.306 36.0466 102.611C38.0583 113.083 43.8804 122.488 53.0481 127.432L79.1833 71.4448ZM71.0979 131.022C70.1316 131.07 69.1475 131.094 68.1462 131.094C65.3745 131.094 62.7642 130.782 60.3201 130.198L87.5334 72.718C91.4883 73.6363 94.418 74.9023 96.5652 76.466L71.0979 131.022Z" clip-rule="evenodd" fill-rule="evenodd" fill="url(#paint_linear_1_371_0)" fill-opacity="1.000000"/>
		<path id="星形备份 8" d="M198.759 58.2531L188.506 62.8758L178.253 58.2531L182.876 68.5061L178.253 78.7592L188.506 74.1364L198.759 78.7592L194.136 68.5061L198.759 58.2531Z" fill-rule="evenodd" fill="#FFFDFE"/>
		<path id="星形备份 9" d="M209.931 79.0815L202.506 82.429L195.082 79.0815L198.429 86.5061L195.082 93.9307L202.506 90.5833L209.931 93.9307L206.583 86.5061L209.931 79.0815Z" fill-rule="evenodd" fill="#FFFDFE"/>
	</g>
</svg>
