<svg width="240.000000" height="240.000000" viewBox="0 0 240 240" fill="none" xmlns="http://www.w3.org/2000/svg" xmlns:xlink="http://www.w3.org/1999/xlink">
	<desc>
			Created with Pixso.
	</desc>
	<defs>
		<clipPath id="clip3_41">
			<rect id="骷髅" width="240.000000" height="240.000000" fill="white"/>
		</clipPath>
	</defs>
	<rect id="骷髅" width="240.000000" height="240.000000"  />
	<rect id="骷髅" width="240.000000" height="240.000000"  />
	<g clip-path="url(#clip3_41)">
		<path id="椭圆形备份 152" d="M120 220C149.722 219.947 214 164.729 214 109.5C214 54.2715 175.229 20 120 20C64.7715 20 26 54.2715 26 109.5C26 164.729 90.2776 220.053 120 220Z" fill-rule="evenodd" fill="#D1D1DD"/>
		<circle id="椭圆形备份 153" r="28.000000" transform="matrix(1 0 0 1 80 119)" fill="#1A1B54"/>
		<circle id="椭圆形备份 154" r="28.000000" transform="matrix(1 0 0 1 161 119)" fill="#1A1B54"/>
		<rect id="矩形" x="73.000000" y="181.000000" rx="19.500000" width="95.000000" height="39.000000" fill="#D1D1DD"/>
		<path id="矩形" d="M91 205C91 203.343 92.3433 202 94 202C95.6567 202 97 203.343 97 205L97 220L91 220L91 205Z" fill-rule="evenodd" fill="#1A1B54"/>
		<path id="矩形备份 115" d="M125 205C125 203.343 126.343 202 128 202C129.657 202 131 203.343 131 205L131 220L125 220L125 205Z" fill-rule="evenodd" fill="#1A1B54"/>
		<path id="矩形备份 114" d="M107 205C107 203.343 108.343 202 110 202C111.657 202 113 203.343 113 205L113 220L107 220L107 205Z" fill-rule="evenodd" fill="#1A1B54"/>
		<path id="矩形备份 116" d="M143 205C143 203.343 144.343 202 146 202C147.657 202 149 203.343 149 205L149 220L143 220L143 205Z" fill-rule="evenodd" fill="#1A1B54"/>
		<path id="椭圆形" d="M127.356 153.677C129.601 152.859 131.494 150.121 129.508 146.432C127.522 142.743 122.826 139.363 121.526 139.836C120.607 140.267 120.06 145.512 121.051 149.51C122.042 153.509 125.111 154.494 127.356 153.677Z" fill-rule="evenodd" fill="#1A1B54"/>
		<path id="椭圆形备份 160" d="M112.963 153.664C110.718 152.847 108.825 150.109 110.811 146.419C112.796 142.73 117.493 139.35 118.793 139.823C119.711 140.254 120.259 145.499 119.268 149.498C118.276 153.496 115.208 154.481 112.963 153.664Z" fill-rule="evenodd" fill="#1A1B54"/>
	</g>
</svg>
