<svg width="240.000000" height="240.000000" viewBox="0 0 240 240" fill="none" xmlns="http://www.w3.org/2000/svg" xmlns:xlink="http://www.w3.org/1999/xlink">
	<desc>
			Created with Pixso.
	</desc>
	<defs>
		<clipPath id="clip3_30">
			<rect id="柠檬精" width="240.000000" height="240.000000" fill="white"/>
		</clipPath>
	</defs>
	<rect id="柠檬精" width="240.000000" height="240.000000"  />
	<rect id="柠檬精" width="240.000000" height="240.000000"  />
	<g clip-path="url(#clip3_30)">
		<path id="路径 34" d="M31 25C31 25 33.4734 45.9238 41.999 52.4541C50.5249 58.9844 60.8943 57.3269 62.8833 57.3269C64.8723 57.3269 70.1829 55.972 76.6145 58.6842C76.6145 58.6842 75.7231 47.2894 69.6003 40.0643C63.4775 32.8391 59.3167 30.8234 53.4915 29.9768C47.6663 29.1302 45.3381 29.6912 39.9543 29.0234C34.5706 28.3557 31 25 31 25Z" fill-rule="evenodd" fill="#00AF64"/>
		<path id="路径 34" d="M73.9341 64.6541C73.9341 64.6541 69.9214 47.6052 74.7393 40.0751C79.5569 32.545 88.1455 30.8851 89.7026 30.3185C91.2595 29.7517 95.802 29.2969 100.066 25.3459C100.066 25.3459 102.608 34.5005 99.8687 41.8888C97.1296 49.277 94.4456 52.0371 90.1262 54.3582C85.8066 56.6792 83.8247 56.9043 79.8 58.96C75.7751 61.0155 73.9341 64.6541 73.9341 64.6541Z" fill-rule="evenodd" fill="#00AF64"/>
		<path id="路径 33" d="M69.7644 52.4371C69.7644 52.4371 41.5164 83.3739 45.9414 128.5C50.3665 173.626 76.7498 195.737 76.7498 195.737C76.7498 195.737 106.27 218.135 162.219 213.09C173.338 210.845 185.223 217.167 190.42 210.845C193.559 205.953 187.708 203.11 194.601 188.711C201.494 174.312 223.231 129.098 194.601 82.9897C164.649 44.6417 124.056 33.8739 72.8247 50.6865C71.3289 51.1774 69.7644 52.4371 69.7644 52.4371Z" fill-rule="evenodd" fill="#FFBF0B"/>
		<path id="椭圆形" d="M130.997 160.482C144.78 160.482 154.374 165.442 155.953 161.938C157.533 158.434 140.954 149.454 127.171 149.454C113.388 149.454 104.704 159.134 106.041 161.938C107.378 164.742 117.214 160.482 130.997 160.482Z" fill-rule="evenodd" fill="#1A1B54"/>
		<ellipse id="椭圆形备份 174" rx="25.500000" ry="25.000000" transform="matrix(1 0 0 1 89.5 110.743)" fill="#FFFCFD"/>
		<ellipse id="椭圆形备份 176" rx="25.500000" ry="25.000000" transform="matrix(1 0 0 1 161.5 110.743)" fill="#FFFCFD"/>
		<ellipse id="椭圆形备份 178" rx="10.500000" ry="11.000000" transform="matrix(1 0 0 1 154.5 113.743)" fill="#1A1B54"/>
		<rect id="矩形" x="59.000000" y="129.743286" width="120.000000" height="14.000000" fill="#FFBF0B"/>
		<path id="矩形" d="M126.641 85.2661L171.889 81.3074L188.924 103.909L125.168 109.487L126.641 85.2661Z" fill-rule="evenodd" fill="#FFBF0B"/>
		<ellipse id="椭圆形备份 177" rx="10.500000" ry="11.000000" transform="matrix(1 0 0 1 83.5 111.743)" fill="#1A1B54"/>
		<path id="矩形" d="M122.359 85.2661L77.1106 81.3074L60.0759 103.909L123.832 109.487L122.359 85.2661Z" fill-rule="evenodd" fill="#FFBF0B"/>
		<path id="矩形备份 124" d="M136.084 97.2534C138.082 95.1562 141.889 91.5443 146.76 88.7322C151.668 85.8981 157.047 84.229 160.05 83.4382C161.394 83.0845 162.741 83.8717 163.166 85.1947C163.651 86.7029 162.763 88.3242 161.26 88.8219C158.537 89.7229 154.177 91.3777 149.754 93.9318C145.518 96.3774 142.242 99.0591 140.254 100.863C139.053 101.952 137.144 101.921 136.07 100.708C135.185 99.708 135.163 98.2198 136.084 97.2534Z" fill-rule="evenodd" fill="#1A1B54"/>
		<path id="矩形备份 125" d="M114.115 96.2534C112.117 94.1562 108.31 90.5443 103.439 87.7322C98.5303 84.8981 93.1519 83.229 90.1482 82.4382C88.8042 82.0845 87.4575 82.8717 87.0322 84.1947C86.5476 85.7029 87.4351 87.3242 88.939 87.8219C91.6614 88.7228 96.0212 90.3777 100.445 92.9318C104.681 95.3773 107.956 98.0591 109.945 99.8633C111.145 100.952 113.055 100.921 114.129 99.7076C115.013 98.708 115.035 97.2198 114.115 96.2534Z" fill-rule="evenodd" fill="#1A1B54"/>
		<path id="矩形" d="M59.4285 30.9668C59.2842 29.4485 66.3691 25.3743 67.5129 26.5066C68.752 28.4044 73.0034 50.4012 73.1472 51.9661C73.3911 52.8323 71.9275 53.8225 71.0688 53.1154C65.9001 46.9171 60.5459 35.2816 59.4285 30.9668Z" fill-rule="evenodd" fill="#1A1B54"/>
	</g>
</svg>
