<svg width="240.000000" height="240.000000" viewBox="0 0 240 240" fill="none" xmlns="http://www.w3.org/2000/svg" xmlns:xlink="http://www.w3.org/1999/xlink">
	<desc>
			Created with Pixso.
	</desc>
	<defs>
		<clipPath id="clip3_40">
			<rect id="庆祝" width="240.000000" height="240.000000" fill="white"/>
		</clipPath>
	</defs>
	<rect id="庆祝" width="240.000000" height="240.000000"  />
	<rect id="庆祝" width="240.000000" height="240.000000"  />
	<g clip-path="url(#clip3_40)">
		<path id="三角形" d="M201.395 23.0896C201.912 23.5233 202.217 24.199 202.31 25.1165L192.548 86.4482L140.623 42.8826L199.335 22.6196C200.192 22.4993 200.878 22.656 201.395 23.0896Z" fill-rule="evenodd" fill="#0A84FF"/>
		<path id="形状结合" d="M191.54 25.3099L180.917 28.9761C187.821 32.7225 194.066 37.5282 199.435 43.1752L201.076 32.8668C198.091 30.1238 194.904 27.5966 191.54 25.3099Z" clip-rule="evenodd" fill-rule="evenodd" fill="#FF4E90" fill-opacity="1.000000"/>
		<path id="形状结合" d="M197.382 56.073C189.381 46.8921 179.852 39.0767 169.192 33.0227L153.253 38.5234C170.1 45.6378 184.492 57.4231 194.807 72.2563L197.382 56.073Z" clip-rule="evenodd" fill-rule="evenodd" fill="#FF4E90" fill-opacity="1.000000"/>
		<circle id="椭圆形备份 129" r="92.000000" transform="matrix(1 0 0 1 115.935 127)" fill="#FFBF0B"/>
		<circle id="椭圆形备份 130" r="36.000000" transform="matrix(1 0 0 1 79.9348 101)" fill="#FFFCFD"/>
		<circle id="椭圆形备份 131" r="28.000000" transform="matrix(1 0 0 1 156.935 104)" fill="#FFFCFD"/>
		<circle id="椭圆形备份 132" r="12.000000" transform="matrix(1 0 0 1 79.9348 101)" fill="#1A1B54"/>
		<circle id="椭圆形备份 133" r="12.000000" transform="matrix(1 0 0 1 148.935 103)" fill="#1A1B54"/>
		<path id="路径 21" d="M38.4924 136.584C38.4924 136.584 50.6614 138.521 52.3962 128.664C54.1311 118.808 44.1074 115.584 40.5452 115.584C36.9829 115.584 26.5583 116.986 24.6272 128.664C22.696 140.342 28.6396 151.306 45.114 154.025C54.854 155.374 64.9348 154.857 64.9348 154.857" stroke="#FF4E90" stroke-width="6.000000" stroke-linecap="round"/>
		<path id="矩形" d="M62.9348 149L98.9348 149C100.592 149 101.935 150.343 101.935 152L101.935 158C101.935 159.657 100.592 161 98.9348 161L62.9348 161C60.7256 161 58.9348 159.209 58.9348 157L58.9348 153C58.9348 150.791 60.7256 149 62.9348 149Z" fill-rule="evenodd" fill="#0A84FF"/>
		<path id="矩形备份 106" d="M86.9348 149L93.9348 149C93.9348 149 93.3696 151.619 92.2805 155C91.1912 158.381 89.3269 161 89.3269 161L81.4412 161C81.4412 161 84.0598 158.218 85.1858 155C86.312 151.782 86.9348 149 86.9348 149Z" fill-rule="evenodd" fill="#FF4E90"/>
		<path id="矩形备份 107" d="M72.4285 149L79.4285 149C79.4285 149 79.1082 151.665 77.7742 155C76.4402 158.335 74.8206 161 74.8206 161L66.9348 161C66.9348 161 69.2866 157.786 70.6794 155C72.0725 152.214 72.4285 149 72.4285 149Z" fill-rule="evenodd" fill="#FF4E90"/>
		<path id="椭圆形" d="M110.935 155C103.203 155 96.9348 150.075 96.9348 144C96.9348 137.925 103.203 133 110.935 133C115.329 133 119.25 134.591 121.817 137.079" stroke="#1A1B54" stroke-width="6.000000" stroke-linecap="round"/>
		<path id="椭圆形备份 143" d="M110.935 155C103.203 155 96.9348 159.925 96.9348 166C96.9348 172.075 103.203 177 110.935 177C116.009 177 120.453 174.879 122.909 171.703" stroke="#1A1B54" stroke-width="6.000000" stroke-linecap="round"/>
		<path id="星形备份 10" d="M72.8594 31.0754L65.4348 34.423L58.0103 31.0754L61.3577 38.5001L58.0103 45.9248L65.4348 42.5773L72.8594 45.9247L69.512 38.5001L72.8594 31.0754Z" fill-rule="evenodd" fill="#FF4E90"/>
		<path id="星形备份 11" d="M102.435 50L99.5518 57.6171L91.9348 60.5L99.5518 63.3829L102.435 71L105.318 63.3829L112.935 60.5L105.318 57.6171L102.435 50Z" fill-rule="evenodd" fill="#0A84FF"/>
		<path id="星形备份 12" d="M187.935 160.804L184.332 163.75L179.739 163L182.685 166.603L181.935 171.196L185.538 168.25L190.131 169L187.185 165.397L187.935 160.804Z" fill-rule="evenodd" fill="#0A84FF"/>
		<path id="椭圆形" d="M47.4348 156.371C48.8154 156.371 49.9348 155.252 49.9348 153.871C49.9348 152.491 48.8154 151.371 47.4348 151.371C46.0542 151.371 44.9348 152.491 44.9348 153.871C44.9348 155.252 46.0542 156.371 47.4348 156.371Z" fill-rule="evenodd" fill="#0A84FF"/>
		<path id="椭圆形备份 145" d="M32.4348 151C33.2632 151 33.9348 150.328 33.9348 149.5C33.9348 148.672 33.2632 148 32.4348 148C31.6064 148 30.9348 148.672 30.9348 149.5C30.9348 150.328 31.6064 151 32.4348 151Z" fill-rule="evenodd" fill="#0A84FF"/>
		<path id="椭圆形备份 148" d="M44.4348 118C45.2632 118 45.9348 117.328 45.9348 116.5C45.9348 115.672 45.2632 115 44.4348 115C43.6064 115 42.9348 115.672 42.9348 116.5C42.9348 117.328 43.6064 118 44.4348 118Z" fill-rule="evenodd" fill="#0A84FF"/>
		<path id="椭圆形备份 149" d="M50.9348 136C51.4871 136 51.9348 135.552 51.9348 135C51.9348 134.448 51.4871 134 50.9348 134C50.3826 134 49.9348 134.448 49.9348 135C49.9348 135.552 50.3826 136 50.9348 136Z" fill-rule="evenodd" fill="#0A84FF"/>
		<path id="椭圆形备份 150" d="M46.9348 139C48.0393 139 48.9348 138.105 48.9348 137C48.9348 135.895 48.0393 135 46.9348 135C45.8303 135 44.9348 135.895 44.9348 137C44.9348 138.105 45.8303 139 46.9348 139Z" fill-rule="evenodd" fill="#0A84FF"/>
		<path id="椭圆形备份 147" d="M25.9348 134C26.4871 134 26.9348 133.552 26.9348 133C26.9348 132.448 26.4871 132 25.9348 132C25.3826 132 24.9348 132.448 24.9348 133C24.9348 133.552 25.3826 134 25.9348 134Z" fill-rule="evenodd" fill="#0A84FF"/>
		<path id="椭圆形备份 144" d="M27.0503 148.335C28.2141 147.693 29 146.474 29 145.076C29 143.01 27.2847 141.335 25.1689 141.335C24.3638 141.335 23.6167 141.578 23 141.992C24.1299 144.343 24.9348 146.122 27.0503 148.335Z" fill-rule="evenodd" fill="#0A84FF"/>
		<path id="椭圆形备份 146" d="M32.4851 120.95C31.7021 120.365 30.6489 120.174 29.6619 120.533C28.105 121.1 27.3022 122.822 27.8689 124.379C28.0403 124.849 28.3171 125.251 28.6633 125.567C29.8525 122.606 32.5381 120.99 32.4851 120.95Z" fill-rule="evenodd" fill="#0A84FF"/>
		<rect id="矩形" x="115.934814" y="51.000000" rx="2.000000" width="10.000000" height="12.000000" fill="#FF4E90"/>
		<rect id="矩形备份 111" x="71.934814" y="189.000000" rx="2.000000" width="10.000000" height="12.000000" fill="#FF4E90"/>
		<rect id="矩形备份 105" x="209.641846" y="117.221924" rx="2.000000" width="10.000000" height="12.000000" transform="rotate(45 209.641846 117.221924)" fill="#FF4E90"/>
		<rect id="矩形备份 104" x="76.968994" y="37.959473" rx="2.000000" width="10.000000" height="12.000000" transform="rotate(-10 76.968994 37.959473)" fill="#0A84FF"/>
		<rect id="矩形备份 113" x="141.581055" y="45.348267" rx="2.000000" width="10.000000" height="12.000000" transform="rotate(-160 141.581055 45.348267)" fill="#0A84FF"/>
		<rect id="矩形备份 112" x="45.238770" y="51.330200" rx="2.000000" width="10.000000" height="12.000000" transform="rotate(-60 45.238770 51.330200)" fill="#00AF64"/>
		<rect id="矩形备份 108" x="170.288574" y="101.651855" rx="2.000000" width="10.000000" height="12.000000" transform="rotate(20 170.288574 101.651855)" fill="#00AF64"/>
		<rect id="矩形备份 109" x="144.288574" y="137.651855" rx="2.000000" width="10.000000" height="12.000000" transform="rotate(20 144.288574 137.651855)" fill="#00AF64"/>
		<rect id="矩形备份 110" x="40.288574" y="175.651855" rx="2.000000" width="10.000000" height="12.000000" transform="rotate(20 40.288574 175.651855)" fill="#00AF64"/>
	</g>
</svg>
