<svg width="240.000000" height="240.000000" viewBox="0 0 240 240" fill="none" xmlns="http://www.w3.org/2000/svg" xmlns:xlink="http://www.w3.org/1999/xlink">
	<desc>
			Created with Pixso.
	</desc>
	<defs>
		<clipPath id="clip3_23">
			<rect id="亲亲" width="240.000000" height="240.000000" fill="white"/>
		</clipPath>
	</defs>
	<rect id="亲亲" width="240.000000" height="240.000000"  />
	<rect id="亲亲" width="240.000000" height="240.000000"  />
	<g clip-path="url(#clip3_23)">
		<circle id="椭圆形备份 161" cx="120.000000" cy="120.000000" r="100.000000" fill="#FFBF0B"/>
		<circle id="椭圆形备份 162" r="28.000000" transform="matrix(-1 0 0 1 156 102)" fill="#FFFCFD"/>
		<circle id="椭圆形备份 163" r="12.000000" transform="matrix(-1 0 0 1 156 102)" fill="#1A1B54"/>
		<path id="椭圆形" d="M77.9971 106.482C91.78 106.482 102.058 110.994 102.953 107.938C103.848 104.882 91.78 97 77.9971 97C64.2144 97 52.2065 104.972 53.041 107.938C53.8757 110.904 64.2144 106.482 77.9971 106.482Z" fill-rule="evenodd" fill="#1A1B54"/>
		<path id="椭圆形" d="M82.8867 97.9243C94.1248 103.218 100.871 110.706 102.708 108.652C104.544 106.598 97.5586 95.7789 86.3206 90.4849C75.0825 85.1909 62.4045 86.8333 62.0112 89.4807C61.6177 92.128 71.6487 92.6302 82.8867 97.9243Z" fill-rule="evenodd" fill="#1A1B54"/>
		<path id="形状结合备份 25" d="M75.9902 180.663C81.324 178.729 104.528 149.505 96.2439 126.835C94.7703 124.786 89.3069 127.308 80.9126 131.182C75.4258 133.714 68.6865 136.825 60.9905 139.615C53.2944 142.405 45.9104 144.534 39.8987 146.267C30.7012 148.919 24.7153 150.645 25.7371 152.395C34.021 175.065 70.6562 182.596 75.9902 180.663Z" clip-rule="evenodd" fill-rule="evenodd" fill="#FF355F" fill-opacity="1.000000"/>
		<path id="形状结合备份 26" d="M44.8674 99.9762C47.925 99.4765 63.1377 86.451 60.7461 73.8411C60.1384 72.6326 56.9575 73.4263 52.0686 74.6462C48.8733 75.4435 44.9487 76.4229 40.5371 77.1439C36.1255 77.8649 31.9429 78.2709 28.5376 78.6016C23.3276 79.1074 19.9373 79.4365 20.3281 80.4467C22.7197 93.0566 41.8098 100.476 44.8674 99.9762Z" clip-rule="evenodd" fill-rule="evenodd" fill="#FF355F" fill-opacity="1.000000"/>
		<path id="形状结合备份 27" d="M58.7815 63.901C60.3894 64.6394 71.9583 63.3943 75.1038 56.7493C75.2273 55.9921 73.4617 55.3518 70.7485 54.3677C68.9753 53.7245 66.7971 52.9345 64.4773 51.8691C62.1575 50.8038 60.0522 49.6642 58.3381 48.7365C55.7158 47.3171 54.009 46.3933 53.8508 46.989C50.7051 53.634 57.1738 63.1627 58.7815 63.901Z" clip-rule="evenodd" fill-rule="evenodd" fill="#FF355F" fill-opacity="1.000000"/>
		<path id="路径 41备份 18" d="M116 157C116 157 112 154.241 112 150C112 145.759 115.963 143 115.963 143" stroke="#1A1B54" stroke-width="6.000000" stroke-linecap="round"/>
		<path id="路径 41备份 20" d="M116 171C116 171 112 168.241 112 164C112 159.759 115.963 157 115.963 157" stroke="#1A1B54" stroke-width="6.000000" stroke-linecap="round"/>
	</g>
</svg>
