<svg width="240.000000" height="240.000015" viewBox="0 0 240 240" fill="none" xmlns="http://www.w3.org/2000/svg" xmlns:xlink="http://www.w3.org/1999/xlink">
	<desc>
			Created with Pixso.
	</desc>
	<defs>
		<clipPath id="clip3_7">
			<rect id="生气" width="240.000000" height="240.000000" fill="white"/>
		</clipPath>
		<linearGradient id="paint_linear_1_148_0" x1="119.983406" y1="-25.502327" x2="119.983406" y2="243.072479" gradientUnits="userSpaceOnUse">
			<stop stop-color="#FFBF0B"/>
			<stop offset="0.471512" stop-color="#F12727"/>
			<stop offset="1.000000" stop-color="#FFBF0B"/>
		</linearGradient>
	</defs>
	<rect id="生气" width="240.000000" height="240.000000"  />
	<rect id="生气" width="240.000000" height="240.000000"  />
	<g clip-path="url(#clip3_7)">
		<circle id="椭圆形备份 12" cx="120.000000" cy="120.000000" r="100.000000" fill="url(#paint_linear_1_148_0)"/>
		<path id="形状结合" d="M134 108.856C135.845 122.488 147.622 133 161.874 133C177.408 133 190 120.513 190 105.11C190 99.5413 188.354 94.3537 185.519 89.9996L134 108.856Z" clip-rule="evenodd" fill-rule="evenodd" fill="#FFFCFD" fill-opacity="1.000000"/>
		<path id="形状结合" d="M54.4817 89.9996L106 108.856C104.155 122.488 92.3782 133 78.1257 133C62.5923 133 50 120.513 50 105.11C50 99.5413 51.646 94.3537 54.4817 89.9996Z" clip-rule="evenodd" fill-rule="evenodd" fill="#FFFCFD" fill-opacity="1.000000"/>
		<path id="形状结合" d="M148.063 103.708C148.021 104.147 148 104.592 148 105.042C148 112.751 154.268 119 162 119C169.732 119 176 112.751 176 105.042C176 101.099 174.361 97.5388 171.725 95.0005L148.063 103.708Z" clip-rule="evenodd" fill-rule="evenodd" fill="#1A1B54" fill-opacity="1.000000"/>
		<path id="形状结合" d="M68.2754 95.0014L91.937 103.709C91.9788 104.148 92 104.593 92 105.042C92 112.751 85.7319 119 78 119C70.2681 119 64 112.751 64 105.042C64 101.1 65.6394 97.5396 68.2754 95.0014Z" clip-rule="evenodd" fill-rule="evenodd" fill="#1A1B54" fill-opacity="1.000000"/>
		<path id="矩形备份 51" d="M130.927 93.7672C132.925 91.6699 136.732 88.058 141.603 85.2459C146.511 82.4118 151.89 80.7427 154.893 79.9519C156.237 79.5982 157.584 80.3854 158.009 81.7084C158.494 83.2166 157.606 84.8379 156.103 85.3356C153.38 86.2365 149.02 87.8914 144.597 90.4454C140.361 92.8911 137.085 95.5728 135.097 97.377C133.896 98.4658 131.987 98.4349 130.913 97.2214C130.028 96.2217 130.006 94.7335 130.927 93.7672Z" fill-rule="evenodd" fill="#1A1B54"/>
		<path id="矩形备份 52" d="M109.958 93.7672C107.96 91.6699 104.153 88.058 99.2822 85.2459C94.3735 82.4118 88.9951 80.7427 85.9915 79.952C84.6475 79.5982 83.3008 80.3854 82.8755 81.7084C82.3909 83.2166 83.2783 84.8379 84.7822 85.3356C87.5046 86.2365 91.8645 87.8914 96.2881 90.4454C100.524 92.8911 103.8 95.5728 105.788 97.377C106.988 98.4658 108.898 98.4349 109.972 97.2214C110.856 96.2218 110.879 94.7335 109.958 93.7672Z" fill-rule="evenodd" fill="#1A1B54"/>
		<path id="矩形" d="M92.8032 145.78C102.002 144.593 110.906 144 119.514 144C128.188 144 137.023 144.831 146.021 146.494C155.033 148.159 157.127 151.143 158.916 165.417C159.79 172.39 153.701 177.559 146.675 176.951C146.056 176.898 145.442 176.8 144.838 176.657C135.293 174.411 126.881 173.287 119.604 173.287C112.51 173.287 104.314 174.354 95.0151 176.489C87.5066 178.212 79.9377 173.613 81.1233 165.417C82.8137 153.73 83.5352 146.976 92.8032 145.78Z" fill-rule="evenodd" fill="#1A1B54"/>
		<path id="路径" d="M150 161.039C152.157 160.759 154 162.861 154 165.108L154 175.969C152.939 176.992 149.084 178.184 146.511 177.976C145.746 177.914 144.694 177.821 143.95 177.631C134.75 175.279 127.212 173.955 120 173.848C112.788 173.848 105.328 175.169 96.4026 177.388C92.7581 178.294 89.0989 177.765 86.0005 176.156L86 165.108C86 162.861 87.8533 160.679 90 161.039C90 161.039 110.692 164.091 121.038 164.091C130.692 164.091 150 161.039 150 161.039Z" fill-rule="evenodd" fill="#FFFFFF"/>
		<path id="路径" d="M120 144C128.263 144 136.669 144.601 145.222 146.19C146.528 146.433 147.806 146.442 149 146.907L149 152.182C149 154.324 147.206 155.716 145 156.061C145 156.061 134 158 120.277 158C106.554 158 94.0002 156.061 94.0002 156.061C91.7734 155.651 90.0002 154.324 90.0002 152.182L90 146.328C91.4338 145.813 92.9736 145.72 94.5913 145.51C103.325 144.374 111.795 144 120 144Z" fill-rule="evenodd" fill="#FFFFFF"/>
		<path id="形状结合" d="M194.519 53.1214L194.514 53.0955C195.722 52.6997 196.487 51.4659 196.26 50.1775C196.033 48.8891 194.892 47.9914 193.622 48.0326L193.617 48.0068L193.252 48.0711L181.927 50.0681C177.084 50.922 173.85 55.5397 174.705 60.3821L176.699 71.6934L176.701 71.7074L176.704 71.7214L176.766 72.0727L176.792 72.0682C177.188 73.2762 178.421 74.0409 179.71 73.8138C180.998 73.5866 181.896 72.446 181.854 71.1755L181.881 71.1709L181.816 70.8056L180.206 61.6722L180.176 61.4897C179.718 58.3287 181.853 55.3548 185.02 54.7963L194.144 53.1876L194.154 53.1857L194.163 53.184L194.519 53.1214Z" clip-rule="evenodd" fill-rule="evenodd" fill="#1A1B54" fill-opacity="1.000000"/>
		<path id="形状结合" d="M174.38 28.6358L174.383 28.6493L174.385 28.6629L175.993 37.7826L176.028 37.9642C176.678 41.0913 179.701 43.1557 182.869 42.5973L191.993 40.9884L192.002 40.9867L192.012 40.985L192.367 40.9223L192.372 40.9482C193.643 40.9068 194.783 41.8046 195.011 43.0931C195.238 44.3816 194.473 45.6155 193.265 46.0111L193.269 46.037L192.904 46.1013L181.579 48.0984C176.736 48.9522 172.119 45.7189 171.264 40.8765L169.268 29.5512L169.203 29.1858L169.229 29.1812C169.188 27.9107 170.086 26.7701 171.374 26.543C172.662 26.3158 173.896 27.0805 174.292 28.2885L174.318 28.284L174.38 28.6358Z" clip-rule="evenodd" fill-rule="evenodd" fill="#1A1B54" fill-opacity="1.000000"/>
		<path id="形状结合" d="M151.632 60.6836L151.627 60.6577C150.357 60.6989 149.216 59.8012 148.989 58.5128C148.762 57.2244 149.527 55.9905 150.735 55.5948L150.73 55.5689L151.087 55.5059L151.104 55.5031L162.421 53.5075C167.263 52.6537 171.881 55.8871 172.735 60.7295L174.732 72.0547L174.796 72.42L174.771 72.4247C174.812 73.6952 173.914 74.8358 172.625 75.063C171.337 75.2901 170.103 74.5255 169.708 73.3173L169.682 73.3219L169.62 72.9711L169.617 72.9566L169.615 72.9421L168.007 63.8233L167.972 63.6417C167.321 60.5146 164.298 58.4502 161.131 59.0087L151.998 60.6191L151.632 60.6836Z" clip-rule="evenodd" fill-rule="evenodd" fill="#1A1B54" fill-opacity="1.000000"/>
		<path id="形状结合" d="M162.175 30.7516L162.119 30.4351L162.145 30.4305C162.103 29.16 163.001 28.0194 164.289 27.7922C165.578 27.5651 166.812 28.3298 167.208 29.5378L167.234 29.5332L167.298 29.8985L169.295 41.2238C170.149 46.0663 166.916 50.684 162.073 51.5378L150.747 53.5349L150.383 53.5992L150.378 53.5733C149.107 53.6149 147.966 52.7169 147.739 51.4284C147.512 50.1399 148.277 48.9059 149.485 48.5103L149.481 48.4846L149.827 48.4235L149.864 48.417L158.979 46.8097C162.147 46.2512 164.281 43.2772 163.823 40.1163L163.794 39.9337L162.192 30.8493L162.184 30.8004L162.175 30.7516Z" clip-rule="evenodd" fill-rule="evenodd" fill="#1A1B54" fill-opacity="1.000000"/>
	</g>
</svg>
