<svg width="240.000000" height="240.000000" viewBox="0 0 240 240" fill="none" xmlns="http://www.w3.org/2000/svg" xmlns:xlink="http://www.w3.org/1999/xlink">
	<desc>
			Created with Pixso.
	</desc>
	<defs>
		<clipPath id="clip3_39">
			<rect id="石化" width="240.000000" height="240.000000" fill="white"/>
		</clipPath>
	</defs>
	<rect id="石化" width="240.000000" height="240.000000"  />
	<rect id="石化" width="240.000000" height="240.000000"  />
	<g clip-path="url(#clip3_39)">
		<circle id="椭圆形备份 186" cx="120.000000" cy="120.000000" r="100.000000" fill="#D1D1DD"/>
		<circle id="椭圆形备份 187" r="28.000000" transform="matrix(1 0 0 1 78 105)" fill="#FFFCFD"/>
		<circle id="椭圆形备份 188" r="28.000000" transform="matrix(1 0 0 1 164 105)" fill="#FFFCFD"/>
		<path id="椭圆形备份 189" d="M121.148 213.848C138.973 213.848 141.35 213.848 149.833 213.848C167.697 215.379 161.581 185.903 158.158 169.906C149.833 132.162 148.551 125 121.148 125C93.7463 125 90.6973 132.162 83.0117 169.906C79.5867 192.59 72.5181 216.044 92.9385 214.677C99.0012 214.677 103.324 213.848 121.148 213.848Z" fill-rule="evenodd" fill="#1A1B54"/>
		<path id="形状结合备份 31" d="M77.9622 59.2083C78.5918 55.2899 71.3906 38 70.5007 38C69.6038 38 62.5337 57.0182 63.0254 59.3601C63.009 59.5623 63.0007 59.7668 63.0007 59.9734C63.0007 64.1155 66.3586 67.4734 70.5007 67.4734C74.6428 67.4734 78.0007 64.1155 78.0007 59.9734C78.0007 59.7151 77.9875 59.4598 77.9622 59.2083Z" clip-rule="evenodd" fill-rule="evenodd" fill="#FFFFFF" fill-opacity="1.000000"/>
		<path id="形状结合备份 32" d="M137.962 79.2083C138.592 75.2899 131.391 58 130.501 58C129.604 58 122.534 77.0182 123.025 79.3601C123.009 79.5623 123.001 79.7668 123.001 79.9734C123.001 84.1155 126.359 87.4734 130.501 87.4734C134.643 87.4734 138.001 84.1155 138.001 79.9734C138.001 79.7151 137.988 79.4598 137.962 79.2083Z" clip-rule="evenodd" fill-rule="evenodd" fill="#FFFFFF" fill-opacity="1.000000"/>
		<path id="形状结合备份 33" d="M175.962 195.208C176.592 191.29 169.391 174 168.501 174C167.604 174 160.534 193.018 161.025 195.36C161.009 195.562 161.001 195.767 161.001 195.973C161.001 200.115 164.359 203.473 168.501 203.473C172.643 203.473 176.001 200.115 176.001 195.973C176.001 195.715 175.988 195.46 175.962 195.208Z" clip-rule="evenodd" fill-rule="evenodd" fill="#FFFFFF" fill-opacity="1.000000"/>
		<path id="形状结合" d="M148.754 136.441C143.965 127.348 136.839 125 121.148 125C105.935 125 98.228 127.208 93.0667 135.631C93.4995 138.519 95.991 140.734 99 140.734L143 140.734C145.721 140.734 148.018 138.923 148.754 136.441Z" clip-rule="evenodd" fill-rule="evenodd" fill="#FFFDFE" fill-opacity="1.000000"/>
		<path id="形状结合" d="M121.148 213.848L149.833 213.848C157.594 214.513 160.829 209.325 161.725 201.932C160.96 199.499 158.686 197.734 156 197.734L85 197.734C82.0806 197.734 79.6479 199.819 79.1106 202.582C79.7456 210.382 83.2449 215.326 92.9385 214.677C99.0012 214.677 103.324 213.848 121.148 213.848Z" clip-rule="evenodd" fill-rule="evenodd" fill="#FFFDFE" fill-opacity="1.000000"/>
		<path id="形状结合" d="M140.408 21.9998L152.734 47.1099L139.846 56.6921L147.441 68.0524L137.707 81.8545L154.289 70.1168L148.418 57.5879L161.707 52.0566L158.832 33.5314L159.602 28.1295C153.497 25.4705 147.075 23.4031 140.408 21.9998Z" clip-rule="evenodd" fill-rule="evenodd" fill="#1A1B54" fill-opacity="1.000000"/>
		<path id="形状结合" d="M50.8926 192.412L53.4016 173.014L70.0886 173.014L65.4705 160.033L74.7068 148.854L61.353 158.734L63.3977 168.957L49.1248 166.819L41.0007 181.549C44.0303 185.409 47.3376 189.04 50.8926 192.412Z" clip-rule="evenodd" fill-rule="evenodd" fill="#1A1B54" fill-opacity="1.000000"/>
	</g>
</svg>
