<svg width="240.000000" height="240.000000" viewBox="0 0 240 240" fill="none" xmlns="http://www.w3.org/2000/svg" xmlns:xlink="http://www.w3.org/1999/xlink">
	<desc>
			Created with Pixso.
	</desc>
	<defs>
		<clipPath id="clip3_31">
			<rect id="睡觉" width="240.000000" height="240.000000" fill="white"/>
		</clipPath>
	</defs>
	<rect id="睡觉" width="240.000000" height="240.000000"  />
	<rect id="睡觉" width="240.000000" height="240.000000"  />
	<g clip-path="url(#clip3_31)">
		<circle id="椭圆形备份 94" r="100.000000" transform="matrix(1 0 0 1 120 120)" fill="#FFBF0B"/>
		<ellipse id="椭圆形备份 95" rx="3.000000" ry="4.000000" transform="matrix(1 0 0 1 115 150)" fill="#1A1B54"/>
		<ellipse id="椭圆形备份 96" rx="3.000000" ry="4.000000" transform="matrix(1 0 0 1 125 150)" fill="#1A1B54"/>
		<path id="矩形" d="M47.7568 77.1229C62.793 66.1229 85.3711 61 116.001 61C146.63 61 173.983 67.7207 189.426 77.1229C204.869 86.5251 207.001 102.024 207.001 115.269C207.001 128.515 194.001 141 178.001 142C153.207 143.55 144.107 133.066 117.445 133.066C85.4138 133.066 78.0969 144.61 57.6594 142C37.2217 139.39 32.0007 121 32.0007 112.468C32.0007 103.935 32.7205 88.1229 47.7568 77.1229Z" fill-rule="evenodd" fill="#1A1B54"/>
		<circle id="椭圆形" r="23.000000" transform="matrix(1 0 0 1 158.87 100.87)" fill="#FFFFFF"/>
		<circle id="椭圆形备份 205" r="23.000000" transform="matrix(1 0 0 1 80.8701 100.87)" fill="#FFFFFF"/>
		<path id="形状结合" d="M174.636 116.636C176.454 114.818 176.454 111.871 174.636 110.053L165.584 101L174.636 91.9473C176.454 90.1293 176.454 87.1816 174.636 85.3635C172.818 83.5455 169.871 83.5455 168.052 85.3635L159 94.4163L149.947 85.3635C148.129 83.5455 145.181 83.5455 143.364 85.3635C141.545 87.1816 141.545 90.1293 143.364 91.9474L152.416 101L143.364 110.053C141.545 111.871 141.545 114.818 143.364 116.636C145.181 118.454 148.129 118.454 149.947 116.636L159 107.584L168.052 116.636C169.871 118.455 172.818 118.455 174.636 116.636Z" clip-rule="evenodd" fill-rule="evenodd" fill="#1A1B54" fill-opacity="1.000000"/>
		<path id="形状结合备份 30" d="M96.6362 116.636C98.4543 114.818 98.4543 111.871 96.6362 110.053L87.5837 101L96.6365 91.9473C98.4543 90.1293 98.4543 87.1816 96.6365 85.3635C94.8184 83.5455 91.8706 83.5455 90.0525 85.3635L81 94.4163L71.9473 85.3635C70.1292 83.5455 67.1814 83.5455 65.3635 85.3635C63.5454 87.1816 63.5454 90.1293 65.3635 91.9474L74.416 101L65.3635 110.053C63.5454 111.871 63.5454 114.818 65.3635 116.636C67.1814 118.454 70.1292 118.454 71.9473 116.636L81 107.584L90.0525 116.636C91.8706 118.455 94.8184 118.455 96.6362 116.636Z" clip-rule="evenodd" fill-rule="evenodd" fill="#1A1B54" fill-opacity="1.000000"/>
		<path id="形状结合备份 22" d="M88.5007 184.368C94.6729 180.063 109.251 167.679 113.785 151.518C114.414 149.276 113.759 148.407 112.435 149.996C105 158.93 94.4885 160.504 85.9817 161.778C80.6853 162.572 76.166 163.249 73.6501 165.512C73.2561 165.818 72.8767 166.153 72.5146 166.515C67.8284 171.201 67.8284 178.799 72.5146 183.485C76.103 187.074 81.3984 187.914 85.7869 186.007C85.895 185.981 86.0996 185.887 86.3884 185.726C87.1277 185.354 87.8362 184.902 88.5007 184.368Z" clip-rule="evenodd" fill-rule="evenodd" fill="#0A84FF" fill-opacity="1.000000"/>
		<ellipse id="椭圆形备份 196" rx="9.000000" ry="10.500000" transform="matrix(1 0 0 1 121 201.5)" fill="#1A1B54"/>
		<path id="z" d="M120.75 102.92C123.088 100.959 125.129 98.9906 126.872 97.0166C128.615 95.0425 129.972 93.1539 130.945 91.3508L126.663 88.9919C126.082 90.1733 121.242 95.7638 119.116 97.5752C117.011 99.5023 117.125 99.4048 116.397 100C116.132 100.206 115.256 100.96 114.875 100.558C114.731 100.386 114.683 100.198 114.731 99.9939C114.779 99.7894 114.911 99.4681 115.128 99.03C115.88 97.7046 116.463 96.6674 116.876 95.9185C117.29 95.1696 117.711 94.4413 118.141 93.7336C118.57 93.0259 119.04 92.2571 119.55 91.4272C120.06 90.5973 120.655 89.4768 121.334 88.0656C121.88 87.0598 122.11 86.0167 122.026 84.9362C121.941 83.8555 121.566 82.9185 120.9 82.1248C120.468 81.61 119.847 81.2178 119.036 80.948C118.225 80.6783 117.363 80.6427 116.451 80.8412C115.54 81.0397 114.612 81.4255 113.667 81.9988C112.723 82.572 111.66 83.3535 110.481 84.3434C108.143 86.3052 106.141 88.1672 104.477 89.9296C102.812 91.6919 101.416 93.3386 100.288 94.8696L104.317 97.3834C104.766 96.5681 110.007 91.1737 110.733 90.4918C111.458 89.8101 112.838 88.3744 113.417 87.8884C113.91 87.4745 114.489 86.9191 114.764 86.7245C115.04 86.5299 115.251 86.3894 115.397 86.3029C115.544 86.2163 115.693 86.1549 115.846 86.1185C115.998 86.0822 116.13 86.1086 116.241 86.1979C116.445 86.3389 116.682 86.6215 116.535 87.267C116.521 87.4248 116.467 87.589 116.373 87.7596C116.279 87.9302 116.217 88.1638 115.53 89.2955C114.924 90.3158 113.648 92.0934 113.158 92.925C112.668 93.7566 112.196 94.5551 111.741 95.3202C111.287 96.0853 110.843 96.8961 110.411 97.7527C109.978 98.6091 109.623 99.373 109.345 100.044C109.027 101.189 108.921 102.174 109.028 102.998C109.134 103.822 109.476 104.577 110.052 105.264C110.466 105.757 111.078 106.139 111.889 106.408C112.7 106.678 113.57 106.734 114.498 106.577C115.426 106.42 116.362 106.054 117.307 105.481C118.251 104.908 119.399 104.054 120.75 102.92Z" fill-rule="evenodd" fill="#0A84FF"/>
		<path id="z备份" d="M135.458 75C139.37 75 142.995 74.7554 146.333 74.2661C149.67 73.7769 152.56 73.0604 155 72.1169L152.739 66.4261C151.196 67.0901 141.838 68.5524 138.258 68.5786C134.603 68.7324 134.795 68.7305 133.59 68.7157C133.16 68.6992 131.678 68.7178 131.636 68.0282C131.636 67.7487 131.744 67.5303 131.959 67.3729C132.175 67.2157 132.569 67.0148 133.144 66.7701C134.974 66.1062 136.4 65.582 137.423 65.1976C138.446 64.8132 139.46 64.455 140.465 64.1229C141.47 63.791 142.564 63.4327 143.749 63.0483C144.933 62.6639 146.44 62.0699 148.271 61.2661C149.635 60.7419 150.72 59.9294 151.528 58.8286C152.335 57.7278 152.739 56.5309 152.739 55.2379C152.739 54.3992 152.452 53.5255 151.878 52.6169C151.303 51.7084 150.487 50.9832 149.428 50.4415C148.369 49.8999 147.14 49.5242 145.741 49.3146C144.341 49.1049 142.654 49 140.68 49C136.768 49 133.269 49.1747 130.183 49.5242C127.096 49.8737 124.369 50.328 122 50.8871L123.884 56.5222C124.997 56.1028 134.588 55.1505 135.862 55.0807C137.136 55.0107 139.674 54.7449 140.643 54.7449C141.468 54.7449 142.494 54.678 142.924 54.7129C143.355 54.7478 143.678 54.7828 143.893 54.8177C144.109 54.8527 144.306 54.9138 144.486 55.0012C144.665 55.0886 144.773 55.2196 144.809 55.3944C144.892 55.6926 144.892 56.153 144.216 56.6525C144.073 56.7922 143.884 56.9058 143.651 56.9932C143.418 57.0804 143.165 57.2544 141.558 57.7853C140.122 58.2745 137.405 58.9509 136.239 59.3528C135.073 59.7548 133.951 60.1392 132.874 60.5061C131.798 60.8729 130.694 61.2924 129.564 61.7642C128.433 62.2358 127.455 62.6814 126.63 63.1008C125.374 63.9396 124.458 64.7957 123.884 65.6693C123.31 66.543 123.023 67.5389 123.023 68.6572C123.023 69.4611 123.31 70.3173 123.884 71.2258C124.458 72.1344 125.266 72.8857 126.307 73.4799C127.347 74.074 128.568 74.4758 129.967 74.6854C131.367 74.8951 133.198 75 135.458 75Z" fill-rule="evenodd" fill="#0A84FF"/>
		<path id="z备份 2" d="M184.945 75C190.16 75 194.993 74.6613 199.444 73.9839C203.894 73.3064 207.746 72.3146 211 71.0081L207.985 63.1285C205.928 64.0479 193.45 66.0726 188.677 66.1089C183.804 66.3219 184.061 66.3191 182.454 66.2987C181.88 66.2759 179.904 66.3015 179.848 65.3468C179.848 64.9597 179.992 64.6572 180.279 64.4396C180.566 64.2218 181.093 63.9436 181.858 63.6049C184.299 62.6855 186.201 61.9597 187.564 61.4274C188.928 60.8951 190.28 60.3992 191.62 59.9396C192.96 59.4799 194.419 58.9839 195.998 58.4517C197.577 57.9193 199.587 57.0968 202.028 55.9839C203.846 55.2581 205.294 54.1331 206.37 52.6089C207.447 51.0847 207.985 49.4274 207.985 47.6371C207.985 46.4758 207.603 45.2661 206.837 44.0081C206.071 42.75 204.983 41.746 203.571 40.996C202.159 40.246 200.521 39.7258 198.654 39.4354C196.788 39.1451 194.539 39 191.907 39C186.691 39 182.026 39.2419 177.91 39.7258C173.795 40.2097 170.158 40.8387 167 41.6129L169.512 49.4153C170.996 48.8347 183.784 47.5161 185.483 47.4193C187.182 47.3226 190.565 46.9545 191.857 46.9545C192.958 46.9545 194.325 46.8618 194.899 46.9102C195.473 46.9585 195.904 47.007 196.191 47.0553C196.478 47.1038 196.741 47.1884 196.981 47.3093C197.22 47.4303 197.364 47.6118 197.411 47.8538C197.523 48.2667 197.523 48.9041 196.622 49.5957C196.43 49.7892 196.179 49.9464 195.868 50.0674C195.557 50.1884 195.22 50.4291 193.077 51.1642C191.163 51.8416 187.541 52.7782 185.985 53.3347C184.43 53.8911 182.935 54.4233 181.499 54.9314C180.064 55.4396 178.592 56.0201 177.085 56.6733C175.577 57.3267 174.273 57.9436 173.173 58.5242C171.498 59.6854 170.278 60.871 169.512 62.0807C168.747 63.2903 168.364 64.6693 168.364 66.2178C168.364 67.3307 168.747 68.5161 169.512 69.7742C170.278 71.0322 171.354 72.0726 172.742 72.8951C174.13 73.7178 175.757 74.2742 177.623 74.5646C179.49 74.8549 181.93 75 184.945 75Z" fill-rule="evenodd" fill="#0A84FF"/>
		<path id="路径 12" d="M206.184 104.441C206.184 104.441 214.473 104.429 219.146 106.77C219.146 106.77 219.579 109.409 220.017 116.753C215.926 114.993 212.283 114.474 206.184 114.474C206.498 108.891 206.184 104.441 206.184 104.441Z" fill-rule="evenodd" fill="#1A1B54"/>
		<path id="路径 12" d="M32.9104 105C32.9104 105 25.4734 105.094 20.7998 107.435C20.7998 107.435 20.3635 110.04 20 117.361C24.0916 115.601 26.812 115.034 32.9104 115.034C32.5964 109.451 32.9104 105 32.9104 105Z" fill-rule="evenodd" fill="#1A1B54"/>
	</g>
</svg>
