<svg width="240.000000" height="240.000000" viewBox="0 0 240 240" fill="none" xmlns="http://www.w3.org/2000/svg" xmlns:xlink="http://www.w3.org/1999/xlink">
	<desc>
			Created with Pixso.
	</desc>
	<defs>
		<clipPath id="clip3_32">
			<rect id="思考" width="240.000000" height="240.000000" fill="white"/>
		</clipPath>
	</defs>
	<rect id="思考" width="240.000000" height="240.000000"  />
	<rect id="思考" width="240.000000" height="240.000000"  />
	<g clip-path="url(#clip3_32)">
		<circle id="椭圆形备份 175" cx="120.000000" cy="119.000000" r="100.000000" fill="#FFBF0B"/>
		<path id="路径 41备份 19" d="M106.705 155.672C106.705 155.672 116.4 150.048 127.501 154.088C138.602 158.129 143.388 168.916 143.388 168.916" stroke="#1A1B54" stroke-width="6.000000" stroke-linecap="round"/>
		<path id="矩形备份 126" d="M127.708 65.5938C130.599 65.4111 135.813 64.8167 141.098 62.8929C146.425 60.9543 151.161 57.9071 153.697 56.1144C154.832 55.3124 155.094 53.7745 154.354 52.5985C153.51 51.2578 151.698 50.8955 150.35 51.7277C147.91 53.234 143.84 55.5101 139.04 57.2571C134.444 58.9301 130.284 59.7153 127.624 60.079C126.018 60.2985 124.814 61.7815 125.053 63.384C125.251 64.7041 126.376 65.6779 127.708 65.5938Z" fill-rule="evenodd" fill="#1A1B54"/>
		<path id="矩形备份 127" d="M90.4465 38.658C87.5679 38.3358 82.3301 38.016 76.7913 38.9926C71.2092 39.9768 66.0161 42.1555 63.2068 43.4805C61.95 44.0732 61.4243 45.5421 61.949 46.8287C62.5471 48.2957 64.269 48.9672 65.7412 48.3817C68.4058 47.322 72.8093 45.7872 77.8396 44.9003C82.6567 44.0509 86.8896 43.9999 89.5725 44.1038C91.1919 44.1664 92.6353 42.915 92.6775 41.2952C92.7126 39.9609 91.7729 38.8065 90.4465 38.658Z" fill-rule="evenodd" fill="#1A1B54"/>
		<circle id="椭圆形备份 179" r="32.500000" transform="matrix(1 0 0 1 79.5 108.5)" fill="#FFFCFD"/>
		<circle id="椭圆形备份 180" r="28.000000" transform="matrix(1 0 0 1 154 98)" fill="#FFFCFD"/>
		<circle id="椭圆形备份 181" r="14.000000" transform="matrix(1 0 0 1 70 123)" fill="#1A1B54"/>
		<circle id="椭圆形备份 182" r="12.000000" transform="matrix(1 0 0 1 143 105)" fill="#1A1B54"/>
		<path id="路径 35" d="M61.1028 151.588C64.4553 148.435 71.7996 147.463 75.5769 152.721C79.3542 157.978 88.5415 172.478 98.3396 171.859C108.138 171.239 122.412 168.257 133.723 159.218C145.035 150.178 155.522 155.937 157.416 161.543C159.309 167.149 156.557 174.697 149.798 178.02C143.04 181.343 133.015 184.017 130.904 184.017C130.904 184.017 131.044 202.027 127.702 208.36C124.36 214.694 117.255 219 103.448 219C89.6416 219 80.3242 215.612 76.0369 210.455C71.7495 205.299 69.4431 197.443 70.6763 179.899C70.6763 179.899 61.1135 169.655 59.1313 164.768C57.1492 159.882 57.7502 154.741 61.1028 151.588Z" fill-rule="evenodd" fill="#EBB613"/>
		<path id="路径 35" d="M59.1028 153.588C62.4553 150.435 69.7996 149.463 73.5769 154.721C77.3542 159.978 86.5415 174.478 96.3396 173.859C106.138 173.239 120.412 170.257 131.723 161.218C143.035 152.178 153.522 157.937 155.416 163.543C157.309 169.149 154.557 176.697 147.798 180.02C141.04 183.343 131.015 186.017 128.904 186.017C128.904 186.017 129.044 204.027 125.702 210.36C122.36 216.694 115.255 221 101.448 221C87.6416 221 78.3242 217.612 74.0369 212.455C69.7495 207.299 67.4431 199.443 68.6763 181.899C68.6763 181.899 59.1135 171.655 57.1313 166.768C55.1492 161.882 55.7502 156.741 59.1028 153.588Z" fill-rule="evenodd" fill="#FFD041"/>
	</g>
</svg>
