<svg width="240.000000" height="240.000000" viewBox="0 0 240 240" fill="none" xmlns="http://www.w3.org/2000/svg" xmlns:xlink="http://www.w3.org/1999/xlink">
	<desc>
			Created with Pixso.
	</desc>
	<defs>
		<clipPath id="clip3_37">
			<rect id="叹气" width="240.000000" height="240.000000" fill="white"/>
		</clipPath>
	</defs>
	<rect id="叹气" width="240.000000" height="240.000000"  />
	<rect id="叹气" width="240.000000" height="240.000000"  />
	<g clip-path="url(#clip3_37)">
		<circle id="椭圆形备份 108" cx="120.000000" cy="120.000000" r="100.000000" fill="#FFBF0B"/>
		<path id="路径备份" d="M112.092 156.92C127.808 156.92 136.806 163.306 139.617 161.758C139.791 161.662 139.958 161.598 140.238 161.491C141.708 160.921 142.737 159.438 142.737 157.799C142.737 157.739 142.735 157.678 142.732 157.619L142.733 157.597C142.736 157.454 142.737 157.312 142.737 157.169C142.732 142.827 127.808 131.84 112.092 131.044C101.085 130.347 85.2812 137.969 84.7437 152.992C84.7388 153.134 84.7451 153.276 84.7471 153.418C84.748 153.488 84.7544 153.551 84.7651 153.609C84.751 153.741 84.7241 153.875 84.7437 154.01C85.0337 155.981 86.332 157.119 88.8286 157.889C90.9946 158.609 96.3755 156.92 112.092 156.92Z" fill-rule="evenodd" fill="#1A1B54"/>
		<path id="形状结合" d="M51.9512 157.266C49.1562 155.091 45.6431 153.796 41.8271 153.796C32.7144 153.796 25.3271 161.183 25.3271 170.296C25.3271 174.864 27.1836 178.998 30.1826 181.986C26.9521 185.747 25 190.639 25 195.986C25 207.86 34.626 217.486 46.5 217.486C51.4136 217.486 55.9419 215.838 59.563 213.064C62.5825 215.811 66.5957 217.486 71 217.486C80.3887 217.486 88 209.875 88 200.486C88 199.856 87.9658 199.235 87.8989 198.623C88.0435 195.142 86.7876 191.615 84.1299 188.957L75.9355 180.763C75.54 179.653 75.3604 178.736 75.5615 178.223C75.6851 176.745 84.0889 162.273 87.8926 155.788C88.4058 154.913 87.4365 153.905 86.5415 154.383C79.958 157.897 65.2705 165.63 62.9434 165.934C62.3926 166.024 61.6733 165.92 60.8535 165.681L54.2988 159.126C53.5747 158.402 52.7861 157.782 51.9512 157.266Z" clip-rule="evenodd" fill-rule="evenodd" fill="#FFF3D3" fill-opacity="1.000000"/>
		<circle id="椭圆形备份 155" r="28.000000" transform="matrix(1 0 0 1 74 108)" fill="#FFFCFD"/>
		<circle id="椭圆形备份 169" r="28.000000" transform="matrix(1 0 0 1 149 108)" fill="#FFFCFD"/>
		<circle id="椭圆形备份 203" r="12.000000" transform="matrix(1 0 0 1 75 112)" fill="#1A1B54"/>
		<circle id="椭圆形备份 204" r="12.000000" transform="matrix(1 0 0 1 148 110)" fill="#1A1B54"/>
		<path id="形状结合" d="M113 58L36.3052 66L31 109L40.0078 107.38C40.5439 109.606 47.7822 108.111 57.9136 106.019C61.8545 105.206 66.2334 104.302 70.8252 103.491C87.3203 100.579 100.606 97.7548 101.037 96.4055L112.593 94.3274L113 58Z" clip-rule="evenodd" fill-rule="evenodd" fill="#FFBF0B" fill-opacity="1.000000"/>
		<path id="形状结合" d="M110 48L196.759 61L200 104L181.727 100.713C183.075 101.933 183.771 102.967 183.771 103.638C183.771 105.82 173.081 103.88 158.785 101.286C155.951 100.772 152.975 100.232 149.913 99.6931C147.054 99.1903 144.236 98.7075 141.523 98.2427C126.666 95.6973 114.936 93.6876 116.744 91.8478C117.342 91.2384 119.132 90.5444 121.805 89.9324L110.446 87.8889L110 48Z" clip-rule="evenodd" fill-rule="evenodd" fill="#FFBF0B" fill-opacity="1.000000"/>
		<path id="矩形备份 58" d="M72.7007 87.2424C75.9492 87.4739 82.5659 87.4464 89.1841 84.4374C95.8555 81.4039 98.6411 74.0626 99.6792 70.1796C100.049 68.796 99.1099 67.4735 97.7002 67.2186C96.2969 66.9647 94.9307 67.8593 94.4683 69.2083C93.3857 72.363 91.022 77.6748 86.9219 79.5865C82.7598 81.5273 76.5068 82.1692 73.0864 82.3801C71.7295 82.4637 70.6348 83.5767 70.6348 84.9359C70.6348 86.1384 71.501 87.157 72.7007 87.2424Z" fill-rule="evenodd" fill="#1A1B54"/>
		<path id="矩形备份 58" d="M155.033 86.1893C151.407 86.6377 144.424 87.0026 138.241 84.4373C131.856 81.7885 128.932 74.1982 127.802 70.2034C127.411 68.8171 128.342 67.4686 129.76 67.2123C131.144 66.9619 132.491 67.8439 132.946 69.1746C134.022 72.3252 136.389 77.668 140.503 79.5865C144.657 81.5237 150.777 81.4235 154.131 81.1812C155.49 81.083 156.757 81.9857 157.024 83.3221C157.298 84.6935 156.42 86.0177 155.033 86.1893Z" fill-rule="evenodd" fill="#1A1B54"/>
	</g>
</svg>
