<svg width="240.000000" height="240.000015" viewBox="0 0 240 240" fill="none" xmlns="http://www.w3.org/2000/svg" xmlns:xlink="http://www.w3.org/1999/xlink">
	<desc>
			Created with Pixso.
	</desc>
	<defs>
		<clipPath id="clip3_12">
			<rect id="调皮" width="240.000000" height="240.000000" fill="white"/>
		</clipPath>
	</defs>
	<rect id="调皮" width="240.000000" height="240.000000"  />
	<rect id="调皮" width="240.000000" height="240.000000"  />
	<g clip-path="url(#clip3_12)">
		<circle id="椭圆形备份 16" cx="120.000000" cy="120.000000" r="100.000000" fill="#FFBF0B"/>
		<circle id="椭圆形备份 30" r="28.000000" transform="matrix(1 0 0 1 82 97)" fill="#FFFCFD"/>
		<circle id="椭圆形备份 31" r="22.000000" transform="matrix(1 0 0 1 82 97)" fill="#1A1B54"/>
		<path id="椭圆形" d="M159.003 106.482C145.22 106.482 134.942 110.994 134.047 107.938C133.152 104.882 145.22 97 159.003 97C172.786 97 184.793 104.972 183.959 107.938C183.124 110.904 172.786 106.482 159.003 106.482Z" fill-rule="evenodd" fill="#1A1B54"/>
		<path id="椭圆形" d="M154.113 97.9243C142.875 103.218 136.129 110.706 134.292 108.652C132.456 106.598 139.441 95.779 150.679 90.4849C161.917 85.1909 174.595 86.8333 174.989 89.4806C175.382 92.128 165.351 92.6303 154.113 97.9243Z" fill-rule="evenodd" fill="#1A1B54"/>
		<path id="矩形" d="M90.4036 140.826C97.5525 140.067 109.608 139 120.926 139C131.94 139 142.927 140.01 149.594 140.764C153.279 141.181 156 144.32 156 148.028C156 151.712 153.314 154.835 149.654 155.26C143.181 156.011 132.485 157 121.028 157C109.216 157 97.3713 155.949 90.3647 155.191C86.7117 154.795 84 151.693 84 148.018C84 144.328 86.7339 141.216 90.4036 140.826Z" fill-rule="evenodd" fill="#1A1B54"/>
		<path id="矩形" d="M101.278 147.481C105.165 146.93 112.118 146.14 120 146.14C127.882 146.14 134.835 146.93 138.722 147.481C140.628 147.75 142 149.394 142 151.319L142 174.5C142 186.374 132.374 196 120.5 196L119.5 196C107.626 196 98 186.374 98 174.5L98 151.319C98 149.394 99.3723 147.75 101.278 147.481Z" fill-rule="evenodd" fill="#FF4E90"/>
		<circle id="椭圆形备份 51" r="8.500000" transform="matrix(1 0 0 1 88.5 89.5)" fill="#FFFDFE"/>
		<circle id="椭圆形备份 52" r="6.000000" transform="matrix(1 0 0 1 74 107)" fill="#FFFDFE"/>
	</g>
</svg>
