<svg width="240.000000" height="240.000000" viewBox="0 0 240 240" fill="none" xmlns="http://www.w3.org/2000/svg" xmlns:xlink="http://www.w3.org/1999/xlink">
	<desc>
			Created with Pixso.
	</desc>
	<defs>
		<clipPath id="clip3_26">
			<rect id="吐" width="240.000000" height="240.000000" fill="white"/>
		</clipPath>
		<linearGradient id="paint_linear_1_554_0" x1="120.000000" y1="20.000000" x2="120.000000" y2="170.633469" gradientUnits="userSpaceOnUse">
			<stop stop-color="#00AF64"/>
			<stop offset="1.000000" stop-color="#FFBF0B"/>
		</linearGradient>
	</defs>
	<rect id="吐" width="240.000000" height="240.000000"  />
	<rect id="吐" width="240.000000" height="240.000000"  />
	<g clip-path="url(#clip3_26)">
		<circle id="椭圆形备份 70" cx="120.000000" cy="120.000000" r="100.000000" fill="url(#paint_linear_1_554_0)"/>
		<path id="矩形备份 66" d="M132.084 54.2603C134.082 56.3576 137.889 59.9695 142.76 62.7816C147.668 65.6157 153.047 67.2848 156.05 68.0755C157.394 68.4293 158.741 67.642 159.166 66.3191C159.651 64.8109 158.763 63.1896 157.26 62.6919C154.537 61.791 150.177 60.1361 145.754 57.5821C141.518 55.1364 138.242 52.4547 136.254 50.6505C135.053 49.5617 133.144 49.5925 132.07 50.8061C131.185 51.8057 131.163 53.294 132.084 54.2603Z" fill-rule="evenodd" fill="#1A1B54"/>
		<path id="矩形备份 67" d="M109.115 54.2603C107.117 56.3576 103.31 59.9695 98.439 62.7816C93.5303 65.6157 88.1519 67.2848 85.1482 68.0755C83.8042 68.4293 82.4575 67.642 82.0322 66.3191C81.5476 64.8109 82.4351 63.1896 83.939 62.6919C86.6614 61.791 91.0212 60.1361 95.4448 57.5821C99.6809 55.1364 102.956 52.4547 104.945 50.6505C106.145 49.5617 108.055 49.5925 109.129 50.8061C110.013 51.8057 110.035 53.294 109.115 54.2603Z" fill-rule="evenodd" fill="#1A1B54"/>
		<path id="椭圆形" d="M80.9971 98.4823C94.78 98.4823 105.058 102.994 105.953 99.9379C106.848 96.8817 94.78 89 80.9971 89C67.2144 89 55.2065 96.9722 56.041 99.9379C56.8757 102.904 67.2144 98.4823 80.9971 98.4823Z" fill-rule="evenodd" fill="#1A1B54"/>
		<path id="椭圆形" d="M85.8867 89.9243C97.1248 95.2184 103.871 102.706 105.708 100.652C107.544 98.598 100.559 87.7789 89.3206 82.4849C78.0825 77.1909 65.4045 78.8333 65.0112 81.4807C64.6177 84.128 74.6487 84.6302 85.8867 89.9243Z" fill-rule="evenodd" fill="#1A1B54"/>
		<path id="椭圆形" d="M160.003 98.4823C146.22 98.4823 135.942 102.994 135.047 99.9379C134.152 96.8817 146.22 89 160.003 89C173.786 89 185.793 96.9722 184.959 99.9379C184.124 102.904 173.786 98.4823 160.003 98.4823Z" fill-rule="evenodd" fill="#1A1B54"/>
		<path id="椭圆形" d="M155.113 89.9243C143.875 95.2184 137.129 102.706 135.292 100.652C133.456 98.598 140.441 87.7789 151.679 82.4849C162.917 77.1909 175.595 78.8333 175.989 81.4807C176.382 84.128 166.351 84.6302 155.113 89.9243Z" fill-rule="evenodd" fill="#1A1B54"/>
		<path id="形状结合备份 11" d="M111.961 172.727C112.595 168.472 105.369 143 104.479 143C103.582 143 96.5291 170.338 97.0254 172.885C97.0088 173.087 97.0005 173.293 97.0005 173.5C97.0005 177.642 100.358 181 104.5 181C108.643 181 112 177.642 112 173.5C112 173.239 111.987 172.981 111.961 172.727Z" clip-rule="evenodd" fill-rule="evenodd" fill="#0A84FF" fill-opacity="1.000000"/>
		<ellipse id="椭圆形" rx="57.500000" ry="40.000000" transform="matrix(1 0 0 1 120.5 146)" fill="#1A1B54"/>
		<path id="路径 7" d="M74.2288 153.385C74.2288 141.303 79.0798 120 118.549 120C158.019 120 163.607 131.725 166.13 149.296C167.808 181.582 170.113 186.641 188.836 190.029C207.464 195.901 198.901 214.382 188.836 212.102C181.363 212.102 177.417 214.346 161.174 214.346C144.931 214.346 137.661 219.806 120.064 219.806C102.468 219.806 88.719 211.798 74.2288 211.798C59.7388 211.798 61.7312 211.798 50.0737 211.798C38.4165 211.798 36.3013 196.254 46.8081 192.297C57.3147 188.341 74.2288 188.341 74.2288 153.385Z" fill-rule="evenodd" fill="#0A84FF"/>
		<ellipse id="椭圆形备份 3" rx="88.000000" ry="18.500000" transform="matrix(1 0 0 1 120 201.5)" fill="#0A84FF"/>
		<path id="形状结合备份 12" d="M103.961 193.727C104.595 189.472 97.3691 164 96.479 164C95.5818 164 88.5291 191.338 89.0254 193.885C89.0088 194.087 89.0005 194.293 89.0005 194.5C89.0005 198.642 92.3584 202 96.5005 202C100.643 202 104 198.642 104 194.5C104 194.239 103.987 193.981 103.961 193.727Z" clip-rule="evenodd" fill-rule="evenodd" fill="#2491FF" fill-opacity="1.000000"/>
		<path id="形状结合备份 13" d="M114.963 153.854C115.499 150.901 110.141 132 109.485 132C108.822 132 103.581 152.333 104.027 153.952C104.009 154.132 104 154.315 104 154.5C104 157.538 106.463 160 109.5 160C112.538 160 115 157.538 115 154.5C115 154.281 114.988 154.066 114.963 153.854Z" clip-rule="evenodd" fill-rule="evenodd" fill="#2491FF" fill-opacity="1.000000"/>
		<path id="形状结合备份 14" d="M130.986 178.547C131.347 174.043 124.798 151 123.98 151C123.158 151 116.8 175.588 117.005 178.738C117.002 178.825 117 178.912 117 179C117 182.866 120.134 186 124 186C127.866 186 131 182.866 131 179C131 178.848 130.995 178.697 130.986 178.547Z" clip-rule="evenodd" fill-rule="evenodd" fill="#2491FF" fill-opacity="1.000000"/>
		<path id="形状结合备份 15" d="M158.962 192.915C159.451 190.617 155.027 175 154.487 175C153.942 175 149.606 191.832 150.029 192.983C150.01 193.152 150 193.325 150 193.5C150 195.985 152.015 198 154.5 198C156.985 198 159 195.985 159 193.5C159 193.302 158.987 193.106 158.962 192.915Z" clip-rule="evenodd" fill-rule="evenodd" fill="#2491FF" fill-opacity="1.000000"/>
		<path id="形状结合备份 16" d="M141.993 150.741C142.199 148.167 138.457 135 137.99 135C137.52 135 133.886 149.052 134.004 150.851C134.002 150.9 134.001 150.95 134.001 151C134.001 153.209 135.792 155 138.001 155C140.21 155 142.001 153.209 142.001 151C142.001 150.913 141.998 150.826 141.993 150.741Z" clip-rule="evenodd" fill-rule="evenodd" fill="#2491FF" fill-opacity="1.000000"/>
		<circle id="椭圆形" r="7.000000" transform="matrix(1 0 0 1 56 127)" fill="#2390FF"/>
		<circle id="椭圆形备份 73" r="4.000000" transform="matrix(1 0 0 1 178 115)" fill="#2390FF"/>
		<circle id="椭圆形备份 72" r="5.000000" transform="matrix(1 0 0 1 72 108)" fill="#2390FF"/>
		<circle id="椭圆形备份 74" r="5.000000" transform="matrix(1 0 0 1 209 186)" fill="#2390FF"/>
	</g>
</svg>
