<svg width="240.000000" height="240.000000" viewBox="0 0 240 240" fill="none" xmlns="http://www.w3.org/2000/svg" xmlns:xlink="http://www.w3.org/1999/xlink">
	<desc>
			Created with Pixso.
	</desc>
	<defs>
		<clipPath id="clip3_10">
			<rect id="微笑" width="240.000000" height="240.000000" fill="white"/>
		</clipPath>
	</defs>
	<rect id="微笑" width="240.000000" height="240.000000"  />
	<rect id="微笑" width="240.000000" height="240.000000"  />
	<g clip-path="url(#clip3_10)">
		<circle id="椭圆形备份 164" cx="120.000000" cy="120.000000" r="100.000000" fill="#FFBF0B"/>
		<circle id="椭圆形备份 165" r="28.000000" transform="matrix(1 0 0 1 80 97)" fill="#FFFCFD"/>
		<circle id="椭圆形备份 166" r="28.000000" transform="matrix(1 0 0 1 161 97)" fill="#FFFCFD"/>
		<circle id="椭圆形备份 167" r="12.000000" transform="matrix(1 0 0 1 79 113)" fill="#1A1B54"/>
		<circle id="椭圆形备份 168" r="12.000000" transform="matrix(1 0 0 1 160 113)" fill="#1A1B54"/>
		<path id="矩形备份 120" d="M65.0437 62.398C67.6975 59.4918 72.8501 55.1632 80 55.1632C87.4854 55.1632 92.8679 59.6919 95.4519 62.4502C96.4766 63.5439 96.1958 65.2209 94.9719 66.0861C93.8459 66.882 92.2964 66.722 91.2598 65.8129C88.9106 63.7533 84.502 60.5155 80 60.5155C75.5989 60.5155 71.791 63.6096 69.7412 65.6725C68.7502 66.67 67.2195 67.0327 65.9561 66.4156C64.3799 65.6458 63.8611 63.6933 65.0437 62.398Z" fill-rule="evenodd" fill="#1A1B54"/>
		<path id="矩形备份 136" d="M146.044 62.398C148.698 59.4918 153.85 55.1632 161 55.1632C168.485 55.1632 173.868 59.6919 176.452 62.4502C177.477 63.5439 177.196 65.2209 175.972 66.0861C174.846 66.882 173.296 66.722 172.26 65.8129C169.911 63.7533 165.502 60.5155 161 60.5155C156.599 60.5155 152.791 63.6096 150.741 65.6725C149.75 66.67 148.219 67.0327 146.956 66.4156C145.38 65.6458 144.861 63.6933 146.044 62.398Z" fill-rule="evenodd" fill="#1A1B54"/>
		<path id="矩形" d="M77.9807 148.478C84.4795 155.148 100.029 168.399 120.999 168.399C142.268 168.399 157.68 154.769 163.875 148.198C165.59 146.379 168.49 146.064 170.418 147.655C172.15 149.085 172.502 151.58 171.083 153.321C165.031 160.749 147.626 178.736 120.999 178.736C94.7661 178.736 76.8313 161.696 70.2524 154.259C68.6035 152.395 68.9192 149.613 70.812 147.997C72.8923 146.221 76.072 146.519 77.9807 148.478Z" fill-rule="evenodd" fill="#1A1B54"/>
	</g>
</svg>
