<svg width="240.000000" height="240.000000" viewBox="0 0 240 240" fill="none" xmlns="http://www.w3.org/2000/svg" xmlns:xlink="http://www.w3.org/1999/xlink">
	<desc>
			Created with Pixso.
	</desc>
	<defs>
		<clipPath id="clip3_14">
			<rect id="笑哭" width="240.000000" height="240.000000" fill="white"/>
		</clipPath>
	</defs>
	<rect id="笑哭" width="240.000000" height="240.000000"  />
	<rect id="笑哭" width="240.000000" height="240.000000"  />
	<g clip-path="url(#clip3_14)">
		<circle id="椭圆形备份 17" cx="120.000000" cy="120.000000" r="100.000000" fill="#FFBF0B"/>
		<path id="路径" d="M185.455 108.384C185.314 108.598 185.17 108.809 185.023 109.019C184.65 109.55 184.259 110.067 183.851 110.57L183.322 111.203L183.043 111.522L182.722 111.877L182.174 112.457L181.747 112.887L181.212 113.401L180.569 113.983L180.148 114.346L179.79 114.644L179.384 114.969C179.196 115.116 179.007 115.261 178.815 115.404L178.19 115.857L177.844 116.097L177.545 116.297L177.127 116.569L176.771 116.792C176.02 117.256 175.244 117.685 174.448 118.077L174.141 118.226L173.849 118.363L173.38 118.575L172.804 118.821L172.418 118.977L172.069 119.113L171.558 119.302L171.216 119.423L170.709 119.592L170.143 119.768L169.833 119.859L169.009 120.082L168.539 120.197L167.839 120.352L167.416 120.437L166.955 120.521L166.295 120.629L165.662 120.717L164.903 120.803L164.486 120.841L163.741 120.894L163.253 120.918L163.037 120.926C162.725 120.936 162.411 120.942 162.096 120.942L161.398 120.933L161.056 120.923L160.43 120.893L159.841 120.852L159.234 120.797L158.694 120.737L158.189 120.671L157.764 120.609L157.635 120.588C157.354 120.543 157.075 120.494 156.797 120.441L156.275 120.336L155.798 120.23L155.499 120.16L155.009 120.037L154.524 119.906L153.89 119.72L153.245 119.514L152.786 119.357L152.292 119.177L151.895 119.026L151.436 118.841L150.951 118.636L150.457 118.415L150.034 118.218L149.442 117.926L148.941 117.666L148.622 117.493L149.402 118.092L149.94 118.496L150.493 118.902L151.061 119.31C151.157 119.378 151.254 119.447 151.352 119.515L151.945 119.924L152.555 120.334C152.658 120.402 152.762 120.471 152.867 120.539L153.504 120.947C153.936 121.219 154.38 121.49 154.837 121.758L155.534 122.16C160.72 125.089 167.605 127.712 177.405 128.774L178.078 128.844C189.905 130.024 194.376 137.111 195.902 146.015L196.02 146.741C196.112 147.349 196.192 147.965 196.26 148.588L196.336 149.338L196.402 150.094L196.458 150.855L196.504 151.62L196.541 152.391L196.57 153.165L196.598 154.332L196.608 155.114L196.611 155.897C196.611 163.481 198.868 169.951 203.381 175.307C213.791 159.682 219.919 140.961 220.092 120.818L220.092 120.431C213.87 112.505 207.419 108.055 200.739 107.081C195.954 106.383 192.307 106.795 189.114 107.482L188.356 107.651L187.614 107.829L186.884 108.012L185.455 108.384Z" fill-rule="evenodd" fill="#0A84FF"/>
		<path id="矩形备份 22" d="M105.797 171.064C108.529 172.217 114.045 174.174 120 174.174C125.94 174.174 131.541 172.227 134.339 171.073C135.449 170.615 136.022 169.424 135.769 168.251C135.41 166.589 133.576 165.656 131.961 166.186C129.212 167.087 124.884 168.174 119.993 168.174C115.158 168.174 110.923 167.112 108.211 166.217C106.587 165.681 104.735 166.629 104.394 168.305C104.161 169.452 104.719 170.61 105.797 171.064Z" fill-rule="evenodd" fill="#1A1B54"/>
		<ellipse id="椭圆形" rx="4.500000" ry="6.000000" transform="matrix(1 0 0 1 112.5 115)" fill="#1A1B54"/>
		<ellipse id="椭圆形备份" rx="4.500000" ry="6.000000" transform="matrix(1 0 0 1 127.5 115)" fill="#1A1B54"/>
		<circle id="椭圆形备份 33" r="28.000000" transform="matrix(1 0 0 1 78 93)" fill="#FFFCFD"/>
		<circle id="椭圆形备份 35" r="14.000000" transform="matrix(1 0 0 1 74 79)" fill="#1A1B54"/>
		<path id="路径备份" d="M120 126.347C129.941 126.347 147.015 125.886 148.626 126.68C148.823 126.778 148.994 126.854 149.297 126.97C150.887 127.587 152 129.196 152 130.972C152 131.038 151.999 131.103 151.995 131.168L151.997 131.191C151.999 131.346 152 131.5 152 131.655C151.995 147.202 135.211 160 120.082 160C104.952 160 88.0305 147.202 88.0076 131.655C88.0073 131.501 88.0088 131.347 88.011 131.193C88.0122 131.118 88.0188 131.049 88.0305 130.986C88.0154 130.843 87.9861 130.698 88.0076 130.551C88.321 128.415 89.7256 127.181 92.426 126.347C94.7688 125.567 110.47 126.347 120 126.347Z" fill-rule="evenodd" fill="#1A1B54"/>
		<path id="形状结合" d="M145.936 147.398C138.91 143.388 130.084 141 120.5 141C110.628 141 101.561 143.533 94.437 147.764C100.747 155.137 110.755 160 120.082 160C129.561 160 139.691 154.975 145.936 147.398Z" clip-rule="evenodd" fill-rule="evenodd" fill="#FF4E90" fill-opacity="1.000000"/>
		<circle id="椭圆形备份 32" r="28.000000" transform="matrix(1 0 0 1 162 93)" fill="#FFFCFD"/>
		<path id="路径" d="M54.6404 108.443C54.7815 108.656 54.9258 108.868 55.0728 109.077C55.4458 109.608 55.8367 110.125 56.2444 110.628L56.7737 111.261L57.053 111.581L57.3738 111.936L57.9219 112.516L58.3484 112.945L58.884 113.459L59.5264 114.041L59.948 114.405L60.3062 114.702L60.7119 115.027C60.8997 115.175 61.0891 115.32 61.2803 115.462L61.9055 115.915L62.2522 116.155L62.5508 116.356L62.9688 116.627L63.3245 116.851C64.0759 117.314 64.8513 117.743 65.6482 118.135L65.9548 118.284L66.2468 118.421L66.7158 118.633L67.2915 118.879L67.6772 119.036L68.0271 119.172L68.5374 119.361L68.8796 119.481L69.3862 119.65L69.9529 119.826L70.2625 119.917L71.0864 120.14L71.5566 120.255L72.2566 120.41L72.6799 120.495L73.1406 120.58L73.8003 120.687L74.4338 120.775L75.1931 120.861L75.6101 120.899L76.3545 120.952L76.8423 120.977L77.0586 120.984C77.3711 120.995 77.6851 121 78 121L78.6978 120.991L79.0396 120.981L79.6658 120.951L80.2544 120.911L80.8613 120.856L81.4021 120.795L81.9065 120.73L82.3313 120.667L82.4607 120.647C82.7415 120.602 83.0205 120.553 83.2983 120.499L83.8203 120.394L84.2979 120.289L84.5964 120.219L85.0864 120.095L85.5715 119.964L86.2058 119.778L86.8506 119.572L87.3093 119.415L87.8042 119.236L88.2004 119.084L88.6602 118.899L89.1448 118.694L89.6387 118.474L90.0615 118.276L90.6541 117.984L91.1543 117.724L91.4736 117.551L90.6934 118.15L90.1555 118.554L89.6028 118.961L89.0344 119.369C88.9382 119.437 88.8416 119.505 88.7441 119.573L88.1511 119.983L87.5408 120.393C87.4375 120.461 87.3335 120.529 87.2288 120.597L86.5913 121.006C86.1599 121.277 85.7158 121.548 85.2583 121.817L84.5615 122.218C79.376 125.148 72.4905 127.77 62.6907 128.833L62.0178 128.903C50.1912 130.082 45.7192 137.169 44.1934 146.074L44.0759 146.8C43.9834 147.408 43.9038 148.024 43.8357 148.646L43.7593 149.396L43.6936 150.152L43.6379 150.913L43.5918 151.679L43.5547 152.449L43.5259 153.223L43.4976 154.39L43.4878 155.172L43.4846 155.956C43.4846 163.54 41.228 170.01 36.7146 175.366C26.3047 159.74 20.1768 141.019 20.0037 120.877L20.0034 120.49C26.2253 112.563 32.6763 108.113 39.3564 107.139C44.1414 106.442 47.7883 106.853 50.9814 107.54L51.7395 107.71L52.4822 107.887L53.2117 108.07L54.6404 108.443Z" fill-rule="evenodd" fill="#0A84FF"/>
		<circle id="椭圆形备份 36" r="14.000000" transform="matrix(1 0 0 1 159 79)" fill="#1A1B54"/>
	</g>
</svg>
