<svg width="240.000000" height="240.000000" viewBox="0 0 240 240" fill="none" xmlns="http://www.w3.org/2000/svg" xmlns:xlink="http://www.w3.org/1999/xlink">
	<desc>
			Created with Pixso.
	</desc>
	<defs>
		<clipPath id="clip3_28">
			<rect id="疑问" width="240.000000" height="240.000000" fill="white"/>
		</clipPath>
	</defs>
	<rect id="疑问" width="240.000000" height="240.000000"  />
	<rect id="疑问" width="240.000000" height="240.000000"  />
	<g clip-path="url(#clip3_28)">
		<circle id="椭圆形备份 80" r="100.000000" transform="matrix(1 0 0 1 120 121)" fill="#FFBF0B"/>
		<circle id="椭圆形备份 81" r="28.000000" transform="matrix(1 0 0 1 80 109)" fill="#FFFCFD"/>
		<circle id="椭圆形备份 82" r="28.000000" transform="matrix(1 0 0 1 161 109)" fill="#FFFCFD"/>
		<circle id="椭圆形备份 83" r="12.000000" transform="matrix(1 0 0 1 88 109)" fill="#1A1B54"/>
		<circle id="椭圆形备份 84" r="12.000000" transform="matrix(1 0 0 1 153 109)" fill="#1A1B54"/>
		<path id="矩形备份 58" d="M71.6128 47.3227C75.3359 49.164 82.3218 51.6105 89.0176 48.4882C96.0176 45.224 98.6558 38.0125 99.5879 34.2C99.9253 32.8199 98.9756 31.5303 97.5776 31.2774C96.1494 31.0191 94.7598 31.9293 94.2866 33.3013C93.1982 36.4611 90.8369 41.7342 86.7554 43.6375C82.7275 45.5157 77.6548 43.8179 74.7695 42.5076C73.4292 41.899 71.7905 42.1837 70.8647 43.3282C69.7983 44.6469 70.0923 46.5707 71.6128 47.3227Z" fill-rule="evenodd" fill="#1A1B54"/>
		<path id="矩形备份 58" d="M167.726 47.3226C164.002 49.164 157.017 51.6105 150.321 48.4882C143.321 45.224 140.683 38.0125 139.75 34.2C139.413 32.8199 140.363 31.5303 141.761 31.2774C143.189 31.019 144.579 31.9293 145.052 33.3013C146.14 36.4611 148.501 41.7341 152.583 43.6374C156.611 45.5157 161.684 43.8179 164.569 42.5076C165.909 41.899 167.548 42.1837 168.474 43.3281C169.54 44.6469 169.246 46.5707 167.726 47.3226Z" fill-rule="evenodd" fill="#1A1B54"/>
		<ellipse id="椭圆形备份 85" rx="10.000000" ry="10.500000" transform="matrix(1 0 0 1 120 183.5)" fill="#1A1B54"/>
		<path id="形状结合" d="M194.192 81.487C208.872 78.8077 220 65.9534 220 50.5C220 33.103 205.897 19 188.5 19C171.103 19 157 33.103 157 50.5C157 60.0134 161.217 68.5417 167.884 74.3176L158.867 83.9965C158.231 84.6788 158.793 85.783 159.719 85.6709L190.621 81.9297C191.77 81.8533 192.903 81.7152 194.016 81.5187L194.218 81.4943L194.192 81.487Z" clip-rule="evenodd" fill-rule="evenodd" fill="#0A84FF" fill-opacity="1.000000"/>
		<path id="形状结合" d="M190.682 61.0306C190.183 63.2752 188.396 64.3263 186.406 64.3254C185.277 64.3246 184.635 63.8953 183.896 63.1385C183.157 62.382 182.518 60.8748 182.574 59.4218C182.646 57.6003 183.286 56.4321 183.9 55.1127C184.514 53.7932 185.306 52.6412 186.275 51.6563C187.244 50.6713 188.544 49.5046 190.177 48.1565C191.608 46.9772 191.309 47.2668 193.284 45.4836C194.755 43.9532 195.171 41.7122 195.079 40.9566C194.98 39.8755 194.611 38.6198 193.396 36.8817C192.156 35.6567 191.477 35.4087 189.799 35.1854C187.473 34.8757 185.163 35.7841 183.8 36.9019C182.436 38.0197 181.466 39.2435 180.596 41.5662C179.766 43.9979 178.323 45.1879 176.27 45.1362C175.058 45.1057 174.054 44.6517 173.254 43.774C172.456 42.8965 172.075 41.9589 172.114 40.9616C172.194 38.9014 172.935 36.8309 174.336 34.7498C175.738 32.6684 177.693 30.375 180.278 29.0509C182.861 27.7267 186.112 26.7264 189.485 26.8114C192.62 26.8904 195.081 27.3665 197.56 29.0435C200.038 30.7205 201.646 33.269 202.27 34.5145C202.895 35.7604 204.07 38.7277 203.979 41.0695C203.907 42.9128 203.752 44.0699 202.671 45.8881C200.979 49.0273 199.539 50.2623 194.736 54.458C193.975 55.1115 193.363 55.6877 192.9 56.1861C192.437 56.6848 192.089 57.1424 191.856 57.5601C191.623 57.9774 191.439 58.3959 191.304 58.8156C191.168 59.2357 190.961 59.9739 190.682 61.0306ZM189.635 74.5648C188.719 75.3285 187.678 75.6925 186.511 75.6565C185.305 75.6192 184.266 75.196 183.392 74.3871C182.519 73.5779 182.104 72.4711 182.152 71.0667C182.193 69.8205 182.663 68.7855 183.562 67.9622C184.459 67.1382 185.542 66.746 186.806 66.7851C188.052 66.8234 189.086 67.2811 189.908 68.1578C190.729 69.0345 191.119 70.0959 191.078 71.3424C191.032 72.7271 190.551 73.801 189.635 74.5648Z" clip-rule="evenodd" fill-rule="evenodd" fill="#FFFFFF" fill-opacity="1.000000"/>
	</g>
</svg>
