<svg width="240.000000" height="240.000000" viewBox="0 0 240 240" fill="none" xmlns="http://www.w3.org/2000/svg" xmlns:xlink="http://www.w3.org/1999/xlink">
	<desc>
			Created with Pixso.
	</desc>
	<defs>
		<clipPath id="clip3_24">
			<rect id="晕" width="240.000000" height="240.000000" fill="white"/>
		</clipPath>
	</defs>
	<rect id="晕" width="240.000000" height="240.000000"  />
	<rect id="晕" width="240.000000" height="240.000000"  />
	<g clip-path="url(#clip3_24)">
		<circle id="椭圆形备份 68" cx="120.000000" cy="120.000000" r="100.000000" fill="#FFBF0B"/>
		<path id="路径 6" d="M172.113 96.4857C171.002 92.7041 167.799 88.3967 162.5 87.4064C157.201 86.4161 151.649 88.2169 149.875 96.4857C148.101 104.754 154.185 118.385 173.086 118.385C191.986 118.385 195 100.716 195 96.4857C195 92.255 192.98 68.2521 164.49 67C135.157 67 130.181 93.0878 130.181 96.4857C130.181 99.8835 124.767 137 173.086 137" stroke="#0A84FF" stroke-width="10.000000" stroke-linecap="round"/>
		<path id="路径 6" d="M67.6897 109.851C70.0315 113.094 74.5178 116.115 79.8318 115.225C85.1458 114.334 89.7383 110.677 88.5635 102.124C87.3887 93.572 76.9954 82.6042 59.2546 89.1708C41.5139 95.7374 44.7542 113.742 46.2073 117.802C47.6604 121.863 56.4451 142.697 84.9729 135.501C112.507 125.31 108.216 98.5434 107.049 95.2822C105.881 92.0211 98.2139 54.5173 52.8604 71.3046" stroke="#0A84FF" stroke-width="10.000000" stroke-linecap="round"/>
		<path id="矩形备份 59" d="M93.3113 157C101.544 157 106.123 161.72 120.112 161.72C134.101 161.72 140.036 158.428 146.529 157.714C153.022 157 159.177 158.896 159.177 167.77C159.177 174.046 154.344 181.816 146.529 181.237C142.076 180.907 136.677 176.104 131.188 175.676C126.17 175.284 124.942 178.446 119.619 178.446C114.295 178.446 114.237 175.385 108.406 175.676C102.574 175.966 99.5942 182.501 93.3113 182.501C88.522 182.501 81 175.975 81 167.77C81 160.704 85.0784 157 93.3113 157Z" fill-rule="evenodd" fill="#1A1B54"/>
		<path id="形状结合" d="M149.435 181.059C146.723 176.465 134.575 173 120 173C104.679 173 92.0413 176.828 90.2241 181.771C91.3071 182.245 92.3625 182.501 93.311 182.501C99.594 182.501 102.574 175.966 108.406 175.676C111.454 175.524 112.925 176.288 114.395 177.052C115.737 177.749 117.078 178.446 119.618 178.446C122.216 178.446 123.839 177.693 125.402 176.967C127.043 176.206 128.618 175.475 131.188 175.676C136.677 176.104 142.075 180.907 146.529 181.237C147.55 181.313 148.52 181.246 149.435 181.059Z" clip-rule="evenodd" fill-rule="evenodd" fill="#FF4E90" fill-opacity="1.000000"/>
	</g>
</svg>
