<svg width="240.000000" height="240.000015" viewBox="0 0 240 240" fill="none" xmlns="http://www.w3.org/2000/svg" xmlns:xlink="http://www.w3.org/1999/xlink">
	<desc>
			Created with Pixso.
	</desc>
	<defs>
		<filter id="filter_1_202_dd" x="176.000000" y="166.000000" width="44.000000" height="47.000000" filterUnits="userSpaceOnUse" color-interpolation-filters="sRGB">
			<feFlood flood-opacity="0" result="BackgroundImageFix"/>
			<feColorMatrix in="SourceAlpha" type="matrix" values="0 0 0 0 0 0 0 0 0 0 0 0 0 0 0 0 0 0 127 0" result="hardAlpha"/>
			<feOffset dx="0" dy="-3"/>
			<feGaussianBlur stdDeviation="0"/>
			<feComposite in2="hardAlpha" operator="out" k2="-1" k3="1"/>
			<feColorMatrix type="matrix" values="0 0 0 0 0.058824 0 0 0 0 0.062745 0 0 0 0 0.23137 0 0 0 1 0"/>
			<feBlend mode="normal" in2="BackgroundImageFix" result="effect_dropShadow_1"/>
			<feBlend mode="normal" in="SourceGraphic" in2="effect_dropShadow_1" result="shape"/>
		</filter>
		<filter id="filter_1_204_dd" x="20.000000" y="166.000000" width="44.000000" height="47.000000" filterUnits="userSpaceOnUse" color-interpolation-filters="sRGB">
			<feFlood flood-opacity="0" result="BackgroundImageFix"/>
			<feColorMatrix in="SourceAlpha" type="matrix" values="0 0 0 0 0 0 0 0 0 0 0 0 0 0 0 0 0 0 127 0" result="hardAlpha"/>
			<feOffset dx="0" dy="-3"/>
			<feGaussianBlur stdDeviation="0"/>
			<feComposite in2="hardAlpha" operator="out" k2="-1" k3="1"/>
			<feColorMatrix type="matrix" values="0 0 0 0 0.058824 0 0 0 0 0.062745 0 0 0 0 0.23137 0 0 0 1 0"/>
			<feBlend mode="normal" in2="BackgroundImageFix" result="effect_dropShadow_1"/>
			<feBlend mode="normal" in="SourceGraphic" in2="effect_dropShadow_1" result="shape"/>
		</filter>
		<clipPath id="clip3_8">
			<rect id="yyds" width="240.000000" height="240.000000" fill="white"/>
		</clipPath>
	</defs>
	<rect id="yyds" width="240.000000" height="240.000000"  />
	<rect id="yyds" width="240.000000" height="240.000000"  />
	<g clip-path="url(#clip3_8)">
		<circle id="椭圆形备份 13" cx="120.000000" cy="120.000000" r="100.000000" fill="#FFBF0B"/>
		<circle id="椭圆形备份 7" r="28.000000" transform="matrix(1 0 0 1 161 77)" fill="#FFFCFD"/>
		<circle id="椭圆形备份 20" r="28.000000" transform="matrix(1 0 0 1 77 77)" fill="#FFFCFD"/>
		<circle id="椭圆形备份 21" r="22.000000" transform="matrix(1 0 0 1 161 77)" fill="#1A1B54"/>
		<circle id="椭圆形备份 23" r="22.000000" transform="matrix(1 0 0 1 77 77)" fill="#1A1B54"/>
		<path id="星形备份 4" d="M80.7529 57.253L70.5 61.8757L60.2471 57.253L64.8696 67.5061L60.2471 77.7591L70.5 73.1364L80.7529 77.7591L76.1304 67.5061L80.7529 57.253Z" fill-rule="evenodd" fill="#FFFDFE"/>
		<path id="星形备份 5" d="M164.759 57.253L154.506 61.8757L144.253 57.253L148.876 67.5061L144.253 77.7591L154.506 73.1364L164.759 77.7591L160.136 67.5061L164.759 57.253Z" fill-rule="evenodd" fill="#FFFDFE"/>
		<path id="星形备份 6" d="M91.9246 78.0815L84.5 81.4289L77.0754 78.0815L80.4229 85.5061L77.0754 92.9307L84.5 89.5832L91.9246 92.9307L88.5771 85.5061L91.9246 78.0815Z" fill-rule="evenodd" fill="#FFFDFE"/>
		<path id="星形备份 7" d="M175.931 78.0815L168.506 81.4289L161.082 78.0815L164.429 85.5061L161.082 92.9307L168.506 89.5832L175.931 92.9307L172.583 85.5061L175.931 78.0815Z" fill-rule="evenodd" fill="#FFFDFE"/>
		<ellipse id="椭圆形备份 9" rx="26.500000" ry="31.500000" transform="matrix(1 0 0 1 120.5 135.5)" fill="#1A1B54"/>
		<path id="形状结合备份 6" d="M144 151.024C139.658 160.576 131.406 167 121.23 167C110.507 167 101.42 160.636 97 150.136C101.331 143.523 110.106 139 120.226 139C130.793 139 139.894 143.932 144 151.024Z" clip-rule="evenodd" fill-rule="evenodd" fill="#FF4E90" fill-opacity="1.000000"/>
		<rect id="矩形备份 3" x="32.000000" y="148.000000" rx="8.000000" width="176.000000" height="60.000000" fill="#0A84FF"/>
		<path id="y y d s备份" d="M77.5234 169.078L65.7578 198.914C63.5703 204.445 60.4844 207.211 56.5 207.211C55.3594 207.211 54.3828 207.086 53.5703 206.836L53.5703 202.805C54.4609 203.148 55.3203 203.32 56.1484 203.32C58.2266 203.32 59.7813 202.102 60.8125 199.664L62.8047 194.953L52.6328 169.078L57.7188 169.078L64.4922 188.555L65.0547 190.688L65.1719 190.688C65.2656 190.203 65.4531 189.508 65.7344 188.602L72.8125 169.078L77.5234 169.078ZM106.466 169.078L94.7005 198.914C92.513 204.445 89.4271 207.211 85.4427 207.211C84.3021 207.211 83.3255 207.086 82.513 206.836L82.513 202.805C83.4036 203.148 84.263 203.32 85.0911 203.32C87.1693 203.32 88.724 202.102 89.7552 199.664L91.7474 194.953L81.5755 169.078L86.6615 169.078L93.4349 188.555L93.9974 190.688L94.1146 190.688C94.2083 190.203 94.3958 189.508 94.6771 188.602L101.755 169.078L106.466 169.078ZM136.815 195L132.221 195L132.221 190.688L132.128 190.688C130.237 193.969 127.299 195.609 123.315 195.609C120.034 195.609 117.424 194.441 115.487 192.105C113.549 189.77 112.581 186.617 112.581 182.648C112.581 178.367 113.674 174.934 115.862 172.348C118.049 169.762 120.909 168.469 124.44 168.469C127.971 168.469 130.534 169.844 132.128 172.594L132.221 172.594L132.221 156.633L136.815 156.633L136.815 195ZM132.245 179.578C132.245 177.5 131.561 175.762 130.194 174.363C128.827 172.965 127.143 172.266 125.143 172.266C122.706 172.266 120.784 173.176 119.378 174.996C117.971 176.816 117.268 179.297 117.268 182.438C117.268 185.328 117.944 187.613 119.296 189.293C120.647 190.973 122.448 191.812 124.698 191.812C126.917 191.812 128.729 190.988 130.135 189.34C131.542 187.691 132.245 185.641 132.245 183.188L132.245 179.578ZM147.102 189.398C149.414 191.07 151.906 191.906 154.578 191.906C158.156 191.906 159.945 190.734 159.945 188.391C159.945 187.391 159.555 186.566 158.773 185.918C157.992 185.27 156.406 184.5 154.016 183.609C151.141 182.453 149.273 181.309 148.414 180.176C147.555 179.043 147.125 177.672 147.125 176.062C147.125 173.766 148.098 171.926 150.043 170.543C151.988 169.16 154.383 168.469 157.227 168.469C159.43 168.469 161.477 168.852 163.367 169.617L163.367 174.047C161.43 172.797 159.234 172.172 156.781 172.172C155.312 172.172 154.117 172.492 153.195 173.133C152.273 173.773 151.812 174.617 151.812 175.664C151.812 176.695 152.145 177.5 152.809 178.078C153.473 178.656 154.945 179.398 157.227 180.305C160.117 181.383 162.07 182.5 163.086 183.656C164.102 184.812 164.609 186.242 164.609 187.945C164.609 190.32 163.637 192.191 161.691 193.559C159.746 194.926 157.227 195.609 154.133 195.609C151.445 195.609 149.102 195.102 147.102 194.086L147.102 189.398Z" fill-rule="evenodd" fill="#FFFFFF"/>
		<path id="形状结合备份 7" d="M220 191C220 203.15 210.15 213 198 213C185.85 213 176 203.15 176 191C176 178.85 185.85 169 198 169C210.15 169 220 178.85 220 191Z" clip-rule="evenodd" fill-rule="evenodd" fill="#FFBF0B" fill-opacity="1.000000"/>
		<path id="形状结合备份 8" d="M64 191C64 203.15 54.1501 213 42 213C29.8499 213 20 203.15 20 191C20 178.85 29.8499 169 42 169C54.1501 169 64 178.85 64 191Z" clip-rule="evenodd" fill-rule="evenodd" fill="#FFBF0B" fill-opacity="1.000000"/>
	</g>
</svg>
