<svg width="240.000000" height="240.000000" viewBox="0 0 240 240" fill="none" xmlns="http://www.w3.org/2000/svg" xmlns:xlink="http://www.w3.org/1999/xlink">
	<desc>
			Created with Pixso.
	</desc>
	<defs>
		<clipPath id="clip3_9">
			<rect id="炸弹" width="240.000000" height="240.000000" fill="white"/>
		</clipPath>
	</defs>
	<rect id="炸弹" width="240.000000" height="240.000000"  />
	<rect id="炸弹" width="240.000000" height="240.000000"  />
	<g clip-path="url(#clip3_9)">
		<path id="路径" d="M41.2463 87.4049C39.5845 89.0581 39.5845 91.7384 41.2463 93.3916L53.542 105.624C40.1519 136.865 46.2676 174.406 71.8882 199.892C105.542 233.369 160.106 233.369 193.76 199.892C227.414 166.416 227.414 112.139 193.76 78.6624C167.735 52.7745 129.206 46.9059 97.5122 61.0566L85.6318 49.2399C83.9697 47.5867 81.2754 47.5867 79.6133 49.2399L41.2463 87.4049Z" fill-rule="evenodd" fill="#1A1B54"/>
		<path id="路径备份 6" d="M135 155.953C159.216 155.953 175.962 154.711 182.411 156.485C182.805 156.593 183.021 156.761 183.523 156.946C186.156 157.929 188 160.49 188 163.318C188 163.423 187.998 163.527 187.993 163.63L187.994 163.667C187.998 163.913 188 164.16 188 164.406C187.993 191.001 159.425 206 135 206C110.575 206 82.0381 189.163 82 164.406C81.9995 164.161 82.002 163.916 82.0059 163.671C82.0073 163.551 82.0186 163.441 82.0381 163.341C82.0127 163.114 82.0732 162.888 82.1177 162.656C82.8237 158.968 85.9038 156.597 89.3188 155.953C98.8667 153.809 110.784 155.953 135 155.953Z" fill-rule="evenodd" fill="#FFFDFE"/>
		<path id="形状结合" d="M85.7583 178.556L102.449 178.556L102.449 155.019C103.468 155.036 104.527 155.064 105.629 155.1L105.629 178.556L123.654 178.556L123.654 155.779C124.686 155.807 125.746 155.832 126.834 155.854L126.834 178.556L144.858 178.556L144.858 155.882C145.938 155.869 146.998 155.855 148.039 155.84L148.039 178.556L166.063 178.556L166.063 155.542C167.167 155.531 168.228 155.524 169.244 155.523L169.244 178.556L185.223 178.556C184.757 179.569 184.244 180.557 183.686 181.52L169.244 181.52L169.244 196.179C168.21 196.847 167.148 197.483 166.063 198.086L166.063 181.52L148.039 181.52L148.039 204.726C146.98 204.946 145.919 205.139 144.858 205.306L144.858 181.52L126.834 181.52L126.834 205.4C125.774 205.237 124.713 205.045 123.654 204.824L123.654 181.52L105.629 181.52L105.629 198.122C104.546 197.521 103.485 196.888 102.449 196.226L102.449 181.52L87.4194 181.52C86.8184 180.554 86.2632 179.566 85.7583 178.556Z" clip-rule="evenodd" fill-rule="evenodd" fill="#D2D2DD" fill-opacity="1.000000"/>
		<circle id="椭圆形备份 198" r="25.500000" transform="matrix(1 0 0 1 101.5 116.5)" fill="#FFFCFD"/>
		<ellipse id="椭圆形备份 199" rx="13.000000" ry="12.500000" transform="matrix(1 0 0 1 94 106.5)" fill="#1A1B54"/>
		<circle id="椭圆形备份 200" r="25.500000" transform="matrix(1 0 0 1 170.5 116.5)" fill="#FFFCFD"/>
		<ellipse id="椭圆形备份 201" rx="13.000000" ry="12.500000" transform="matrix(1 0 0 1 163 106.5)" fill="#1A1B54"/>
		<path id="路径 44" d="M38.887 24.9272C38.887 24.9272 45.3452 22.301 47.1118 19.3225C48.8787 16.3439 48.7114 14.2129 52.2378 15.2784C55.7646 16.3439 60.3154 27.8184 58.6426 42.9598C56.9697 58.1014 43.7661 63.1304 34.6775 61.7936C25.5891 60.4569 20.8159 50.3049 22.2522 41.745C24.0906 29.4645 38.887 24.9272 38.887 24.9272Z" fill-rule="evenodd" fill="#FFBF0B"/>
		<path id="路径 43" d="M38.4517 47C38.4517 47 36.6687 56.3541 41.9255 59.2256C47.1821 62.0972 54.0527 59.0165 58.4971 60.08C62.9419 61.1434 65 66 65 66" stroke="#1A1B54" stroke-width="6.000000" stroke-linecap="round"/>
	</g>
</svg>
