<svg width="240.000000" height="240.000000" viewBox="0 0 240 240" fill="none" xmlns="http://www.w3.org/2000/svg" xmlns:xlink="http://www.w3.org/1999/xlink">
	<desc>
			Created with Pixso.
	</desc>
	<defs>
		<clipPath id="clip3_21">
			<rect id="咒骂" width="240.000000" height="240.000000" fill="white"/>
		</clipPath>
	</defs>
	<rect id="咒骂" width="240.000000" height="240.000000"  />
	<rect id="咒骂" width="240.000000" height="240.000000"  />
	<g clip-path="url(#clip3_21)">
		<circle id="椭圆形备份 190" r="100.000000" transform="matrix(1 0 0 1 121 120)" fill="#FFBF0B"/>
		<circle id="椭圆形备份 192" r="28.000000" transform="matrix(1 0 0 1 68 82)" fill="#FFFCFD"/>
		<circle id="椭圆形备份 193" r="28.000000" transform="matrix(1 0 0 1 149 82)" fill="#FFFCFD"/>
		<circle id="椭圆形备份 194" r="12.000000" transform="matrix(1 0 0 1 56 86)" fill="#1A1B54"/>
		<circle id="椭圆形备份 195" r="12.000000" transform="matrix(1 0 0 1 137 86)" fill="#1A1B54"/>
		<path id="矩形备份 131" d="M111.927 50.7672C113.925 48.6699 117.731 45.058 122.603 42.2459C127.511 39.4118 132.89 37.7427 135.894 36.9519C137.237 36.5982 138.584 37.3854 139.009 38.7083C139.494 40.2166 138.606 41.8379 137.103 42.3356C134.38 43.2365 130.021 44.8914 125.597 47.4454C121.36 49.8911 118.085 52.5728 116.097 54.377C114.896 55.4658 112.986 55.4349 111.913 54.2214C111.028 53.2217 111.006 51.7335 111.927 50.7672Z" fill-rule="evenodd" fill="#1A1B54"/>
		<path id="矩形备份 132" d="M93.1152 53.2534C91.1172 51.1562 87.3105 47.5443 82.4395 44.7321C77.5308 41.898 72.1523 40.2289 69.1484 39.4382C67.8047 39.0844 66.458 39.8717 66.0327 41.1946C65.5483 42.7028 66.4355 44.3241 67.9395 44.8218C70.6616 45.7228 75.0215 47.3777 79.4453 49.9316C83.6816 52.3773 86.9565 55.0591 88.9453 56.8633C90.1455 57.952 92.0557 57.9212 93.1294 56.7076C94.0137 55.708 94.0361 54.2198 93.1152 53.2534Z" fill-rule="evenodd" fill="#1A1B54"/>
		<path id="路径 39" d="M65.0483 124.552C65.0483 124.552 64.5117 116.226 69.9531 112.062C75.395 107.898 82.0806 105.464 93.2607 103.946C104.441 102.428 123.942 101.842 133.697 109.313C141.357 115.77 157.92 131.94 161.49 162.235C165.15 186.867 148.392 200.047 134.446 204.361C120.501 208.675 93.8574 210.494 81.2378 182.129C69.5308 150.286 65.0483 124.552 65.0483 124.552Z" fill-rule="evenodd" fill="#1A1B54"/>
		<path id="形状结合" d="M154.329 136.158C157.63 143.346 160.299 151.981 161.495 162.235C165.118 186.867 148.532 200.047 134.73 204.361C120.929 208.675 93.9551 211.193 81.4658 182.828C78.2031 174.217 75.5742 165.979 73.4766 158.548C79.8687 155.472 87.0757 153.742 94.7002 153.742C102.747 153.742 110.328 155.669 116.978 159.071C124.6 146.324 138.347 137.431 154.329 136.158Z" clip-rule="evenodd" fill-rule="evenodd" fill="#FF4E90" fill-opacity="1.000000"/>
		<path id="形状结合" d="M137.502 112.728C136.092 111.378 134.802 110.245 133.697 109.313C123.941 101.842 104.441 102.428 93.2603 103.946C82.0801 105.464 75.3945 107.898 69.9526 112.062C68.1899 113.411 67.0547 115.196 66.3252 116.994C68.2036 121.552 70.7832 124.776 75.875 126.044C81.9336 127.553 88.7788 127.945 97.2764 127.553C105.774 127.16 120.252 126.284 134.58 117.49C136.361 116.38 137.214 114.662 137.502 112.728Z" clip-rule="evenodd" fill-rule="evenodd" fill="#FFFDFE" fill-opacity="1.000000"/>
		<path id="矩形" d="M124.317 139.296L27.4995 141.758C24.1709 141.843 21.6802 144.843 22.209 148.13L29.2871 192.112C29.8091 195.356 33.041 197.421 36.2046 196.533L129.722 170.266C132.465 169.496 134.166 166.759 133.641 163.959L129.863 143.782C129.366 141.128 127.016 139.227 124.317 139.296Z" fill-rule="evenodd" fill="#0A84FF"/>
		<path id="#¥%&amp;" d="M123.734 162.547C122.769 163.722 121.343 164.563 119.492 164.881C115.789 165.516 113.542 163.517 113.09 161.025C112.691 158.823 113.64 157.032 115.361 155.612L115.345 155.523C114.345 154.686 113.609 153.482 113.388 152.258C112.993 150.078 114.22 147.62 117.351 147.082C119.773 146.667 121.872 147.843 122.299 150.201C122.609 151.914 121.979 153.513 119.711 155.302L119.732 155.413C120.955 156.441 122.44 157.746 123.536 158.59C124.035 157.312 124.148 155.595 124.053 154.029L127.047 153.515C127.109 156.073 126.694 158.461 125.585 160.28C126.577 161.073 127.708 161.98 129 162.997L125.137 163.66C124.7 163.322 124.292 163.025 123.734 162.547ZM41.1763 186.487L40.7217 175.654L45.4883 174.806L45.9429 185.639L50.2275 184.877L49.7251 174.053L54.8286 173.145L54.0903 168.921L49.6606 169.709L49.3335 162.158L54.1484 161.301L53.4097 157.077L49.1729 157.831L48.7119 147.249L44.5234 147.994L44.936 158.584L40.1211 159.44L39.6611 148.858L35.4727 149.603L35.8843 160.194L30.8286 161.093L31.5674 165.317L36.0454 164.521L36.3721 172.072L31.4619 172.945L32.1997 177.169L36.4849 176.408L36.8916 187.249L41.1763 186.487ZM72.9819 172.608L73.5151 178.706L67.5879 180.508L67.0024 173.131L61.7871 174.139L61.5259 171.15L66.7407 170.142L66.479 167.154L61.2642 168.162L61.0034 165.173L66.0366 164.181L55.2637 148.945L61.7871 148.945L70.0693 159.962L76.2158 148.355L80.6455 147.968L72.3789 163.626L77.3643 162.866L77.6255 165.854L72.4585 166.631L72.7202 169.619L77.8872 168.843L78.1484 171.831L72.9819 172.608ZM94.2476 171.594L102 148L99.752 148.406L92 172L94.2476 171.594ZM118.043 153C117.486 152.37 117.138 151.75 117.027 150.919C116.919 150.107 117.12 149.184 117.821 149.021C118.493 148.864 118.876 149.632 118.974 150.368C119.098 151.294 118.773 152.07 118.043 153ZM93.8433 156.04C94.583 160.071 92.6006 162.498 90.0571 162.929C87.2158 163.41 84.7842 161.41 84.145 157.925C83.5098 154.467 84.9902 151.588 87.9946 151.079C91.2417 150.529 93.271 152.92 93.8433 156.04ZM89.6704 160.975C88.4136 161.211 87.5356 159.747 87.1646 157.514C86.8979 155.908 86.7588 153.323 88.3501 153.025C89.709 152.771 90.4653 154.454 90.8315 156.66C91.229 159.055 90.9531 160.735 89.6704 160.975ZM109.839 162.019C110.586 166.076 108.626 168.499 106.076 168.93C103.228 169.411 100.785 167.384 100.145 163.899C99.5088 160.441 100.998 157.588 104.009 157.079C107.263 156.529 109.271 158.925 109.839 162.019ZM116.05 160.253C116.35 162.026 117.771 163.284 119.611 162.945C120.592 162.764 121.485 162.213 122 161.32C120.681 160.225 118.826 158.584 117.079 157C116.443 157.761 115.814 158.855 116.05 160.253ZM105.691 166.976C104.428 167.211 103.536 165.693 103.145 163.351C102.827 161.445 102.946 159.289 104.363 159.026C105.73 158.771 106.463 160.459 106.832 162.665C107.227 165.034 106.954 166.741 105.691 166.976ZM45.8291 170.433L40.2114 171.249L39.8286 164.056L45.3901 163.249L45.8291 170.433Z" clip-rule="evenodd" fill-rule="evenodd" fill="#FFFFFF" fill-opacity="1.000000"/>
	</g>
</svg>
