<?xml version="1.0" standalone="no"?><!DOCTYPE svg PUBLIC "-//W3C//DTD SVG 1.1//EN" "http://www.w3.org/Graphics/SVG/1.1/DTD/svg11.dtd"><svg t="1700117226731" class="icon" viewBox="0 0 1024 1024" version="1.1" xmlns="http://www.w3.org/2000/svg" p-id="6766" xmlns:xlink="http://www.w3.org/1999/xlink" width="128" height="128"><path d="M204.8 426.667c0 10.24 6.827 17.066 17.067 17.066s17.066-6.826 17.066-17.066c0-81.92 10.24-126.294 37.547-150.187s68.267-37.547 150.187-37.547c10.24 0 17.066-6.826 17.066-17.066s-6.826-17.067-17.066-17.067c-81.92 0-126.294-10.24-150.187-37.547s-37.547-68.266-37.547-150.186C238.933 6.827 232.107 0 221.867 0S204.8 6.827 204.8 17.067c0 81.92-10.24 126.293-37.547 150.186S98.987 204.8 17.067 204.8C6.827 204.8 0 211.627 0 221.867s6.827 17.066 17.067 17.066c81.92 0 126.293 10.24 150.186 37.547S204.8 344.747 204.8 426.667z m204.8-307.2c30.72 0 47.787 3.413 54.613 13.653 10.24 6.827 13.654 23.893 13.654 54.613 0 10.24 6.826 17.067 17.066 17.067S512 197.973 512 187.733c0-30.72 3.413-47.786 13.653-54.613 10.24-10.24 23.894-13.653 54.614-13.653 10.24 0 17.066-6.827 17.066-17.067s-6.826-17.067-17.066-17.067c-30.72 0-47.787-3.413-54.614-13.653C515.413 64.853 512 47.787 512 17.067 512 6.827 505.173 0 494.933 0s-17.066 6.827-17.066 17.067c0 30.72-3.414 47.786-13.654 54.613-10.24 10.24-23.893 13.653-54.613 13.653-10.24 0-17.067 6.827-17.067 17.067s6.827 17.067 17.067 17.067z m23.893 368.64c-17.066-17.067-23.893-44.374-23.893-95.574 0-10.24-6.827-17.066-17.067-17.066s-17.066 6.826-17.066 17.066c0 54.614-6.827 81.92-23.894 95.574C337.92 505.173 310.613 512 256 512c-10.24 0-17.067 6.827-17.067 17.067s6.827 17.066 17.067 17.066c54.613 0 81.92 6.827 95.573 23.894 17.067 17.066 23.894 44.373 23.894 95.573 0 10.24 6.826 17.067 17.066 17.067S409.6 675.84 409.6 665.6c0-54.613 6.827-81.92 23.893-95.573 17.067-17.067 44.374-23.894 95.574-23.894 10.24 0 17.066-6.826 17.066-17.066S539.307 512 529.067 512c-54.614 0-81.92-6.827-95.574-23.893z" p-id="6767" fill="#515151"></path><path d="M737.28 109.227c-6.827-3.414-13.653 0-20.48 3.413-3.413 3.413-6.827 13.653-3.413 20.48 23.893 54.613 37.546 112.64 37.546 174.08 0 245.76-197.973 443.733-443.733 443.733-61.44 0-119.467-13.653-177.493-37.546-6.827-3.414-13.654 0-20.48 3.413s-6.827 13.653-3.414 20.48C184.32 911.36 354.987 1024 546.133 1024 808.96 1024 1024 808.96 1024 546.133c0-191.146-112.64-361.813-286.72-436.906z" p-id="6768" fill="#515151"></path></svg>